<?xml version="1.0" encoding="UTF-8" standalone="no"?>
<!DOCTYPE svg PUBLIC "-//W3C//DTD SVG 1.1//EN" "http://www.w3.org/Graphics/SVG/1.1/DTD/svg11.dtd">
<svg width="100%" height="100%" viewBox="0 0 128 128" version="1.1" xmlns="http://www.w3.org/2000/svg" xmlns:xlink="http://www.w3.org/1999/xlink" xml:space="preserve" xmlns:serif="http://www.serif.com/" style="fill-rule:evenodd;clip-rule:evenodd;stroke-linecap:round;stroke-linejoin:round;stroke-miterlimit:1.5;">
    <g transform="matrix(0.866423,0,0,0.923075,-6001.17,-1554.14)">
        <g id="Mesa-de-trabajo3" serif:id="Mesa de trabajo3">
            <g>
                <g transform="matrix(1.2092,0,0,1.1194,6919.31,1683.69)">
                    <rect x="4.81" y="-0.931" width="123.656" height="125.828" style="fill:white;"/>
                </g>
                <g transform="matrix(1.70847,0,0,1.65535,-3518.69,-347.591)">
                    <g>
                        <g transform="matrix(1.21905,0,0,1.22121,-3561.16,-1248.14)">
                            <path d="M7957,2059.46L7957,2067.5C7957,2070.54 7959.55,2073 7962.69,2073L7982.81,2073C7985.95,2073 7988.5,2070.54 7988.5,2067.5L7988.5,2056.5C7988.5,2053.46 7985.95,2051 7982.81,2051L7965.75,2051" style="fill:none;stroke:rgb(24,24,24);stroke-width:1.63px;"/>
                        </g>
                        <g transform="matrix(1.06667,0,0,1.03333,-2342.8,-858.987)">
                            <path d="M7957.5,2073L7964.5,2060.31L7972,2073" style="fill:none;stroke:rgb(24,24,24);stroke-width:1.9px;"/>
                        </g>
                        <g transform="matrix(1.21905,1.14723e-16,0,1.18095,-3560.86,-1163.94)">
                            <path d="M7979.5,2054C7981.43,2054 7983,2055.57 7983,2057.5C7983,2059.43 7981.43,2061 7979.5,2061C7977.57,2061 7976,2059.43 7976,2057.5C7976,2055.57 7977.57,2054 7979.5,2054ZM7979.5,2055.66C7980.51,2055.66 7981.34,2056.49 7981.34,2057.5C7981.34,2058.51 7980.51,2059.34 7979.5,2059.34C7978.49,2059.34 7977.66,2058.51 7977.66,2057.5C7977.66,2056.49 7978.49,2055.66 7979.5,2055.66Z" style="fill:rgb(24,24,24);"/>
                        </g>
                        <g transform="matrix(1.06667,0,0,1.03333,-2342.8,-858.987)">
                            <path d="M7970.5,2069.31L7974.5,2064L7981.5,2073" style="fill:none;stroke:rgb(24,24,24);stroke-width:1.9px;"/>
                        </g>
                        <g transform="matrix(0.4,0,0,0.369048,5764.93,212.174)">
                            <path d="M944,2828.6C944,2826.3 945.809,2824.4 948,2824.4C950.191,2824.4 952,2826.3 952,2828.6L951.968,2839.83L962.697,2839.83C964.888,2839.83 966.667,2841.7 966.667,2844C966.667,2846.3 964.888,2848.17 962.697,2848.17L951.968,2848.17L952,2859.4C952.061,2859.4 952,2859.4 952,2859.4C952,2861.7 950.16,2863.57 947.969,2863.57C945.779,2863.57 944,2861.7 944,2859.4L944.032,2848.17L933.303,2848.17C931.112,2848.17 929.333,2846.3 929.333,2844C929.333,2841.7 931.112,2839.83 933.303,2839.83L944.032,2839.83L944,2828.6Z" style="fill:none;stroke:rgb(24,24,24);stroke-width:5.19px;"/>
                        </g>
                    </g>
                </g>
                <path d="M7000.25,1688C7038.47,1688 7069.5,1717.13 7069.5,1753C7069.5,1788.87 7038.47,1818 7000.25,1818C6962.03,1818 6931,1788.87 6931,1753C6931,1717.13 6962.03,1688 7000.25,1688ZM7000.25,1693.2C7035.41,1693.2 7063.96,1720 7063.96,1753C7063.96,1786.01 7035.41,1812.8 7000.25,1812.8C6965.09,1812.8 6936.54,1786.01 6936.54,1753C6936.54,1720 6965.09,1693.2 7000.25,1693.2Z" style="fill:rgb(253,169,0);"/>
            </g>
        </g>
    </g>
</svg>
