<?xml version="1.0" encoding="UTF-8" standalone="no"?>
<!DOCTYPE svg PUBLIC "-//W3C//DTD SVG 1.1//EN" "http://www.w3.org/Graphics/SVG/1.1/DTD/svg11.dtd">
<svg width="100%" height="100%" viewBox="0 0 10 290" version="1.1" xmlns="http://www.w3.org/2000/svg" xmlns:xlink="http://www.w3.org/1999/xlink" xml:space="preserve" xmlns:serif="http://www.serif.com/" style="fill-rule:evenodd;clip-rule:evenodd;stroke-linejoin:round;stroke-miterlimit:2;">
    <g transform="matrix(1,0,0,1,0,-189)">
        <g id="Mesa-de-trabajo4" serif:id="Mesa de trabajo4" transform="matrix(0.666667,0,0,1.06785,54,-22.4341)">
            <rect x="-81" y="198" width="15" height="271.574" style="fill:none;"/>
            <clipPath id="_clip1">
                <rect x="-81" y="198" width="15" height="271.574"/>
            </clipPath>
            <g clip-path="url(#_clip1)">
                <g transform="matrix(1.5,0,0,0.936462,-204.373,17.0078)">
                    <path d="M92.249,205.772C92.249,204.393 91.128,203.272 89.749,203.272L84.749,203.272C83.369,203.272 82.249,204.393 82.249,205.772L82.249,210.772C82.249,212.152 83.369,213.272 84.749,213.272L89.749,213.272C91.128,213.272 92.249,212.152 92.249,210.772L92.249,205.772Z" style="fill:rgb(251,216,0);"/>
                </g>
                <g transform="matrix(1.5,0,0,0.936462,-204.373,26.3724)">
                    <path d="M92.249,205.772C92.249,204.393 91.128,203.272 89.749,203.272L84.749,203.272C83.369,203.272 82.249,204.393 82.249,205.772L82.249,210.772C82.249,212.152 83.369,213.272 84.749,213.272L89.749,213.272C91.128,213.272 92.249,212.152 92.249,210.772L92.249,205.772Z" style="fill:rgb(255,190,0);"/>
                </g>
                <g transform="matrix(1.5,0,0,0.936462,-204.373,35.737)">
                    <path d="M92.249,205.772C92.249,204.393 91.128,203.272 89.749,203.272L84.749,203.272C83.369,203.272 82.249,204.393 82.249,205.772L82.249,210.772C82.249,212.152 83.369,213.272 84.749,213.272L89.749,213.272C91.128,213.272 92.249,212.152 92.249,210.772L92.249,205.772Z" style="fill:rgb(255,161,0);"/>
                </g>
                <g transform="matrix(1.5,0,0,0.936462,-204.373,45.1016)">
                    <path d="M92.249,205.772C92.249,204.393 91.128,203.272 89.749,203.272L84.749,203.272C83.369,203.272 82.249,204.393 82.249,205.772L82.249,210.772C82.249,212.152 83.369,213.272 84.749,213.272L89.749,213.272C91.128,213.272 92.249,212.152 92.249,210.772L92.249,205.772Z" style="fill:rgb(255,134,0);"/>
                </g>
                <g transform="matrix(1.5,0,0,0.936462,-204.373,54.4663)">
                    <path d="M92.249,205.772C92.249,204.393 91.128,203.272 89.749,203.272L84.749,203.272C83.369,203.272 82.249,204.393 82.249,205.772L82.249,210.772C82.249,212.152 83.369,213.272 84.749,213.272L89.749,213.272C91.128,213.272 92.249,212.152 92.249,210.772L92.249,205.772Z" style="fill:rgb(255,93,0);"/>
                </g>
                <g transform="matrix(1.5,0,0,0.936462,-204.373,63.8309)">
                    <path d="M92.249,205.772C92.249,204.393 91.128,203.272 89.749,203.272L84.749,203.272C83.369,203.272 82.249,204.393 82.249,205.772L82.249,210.772C82.249,212.152 83.369,213.272 84.749,213.272L89.749,213.272C91.128,213.272 92.249,212.152 92.249,210.772L92.249,205.772Z" style="fill:rgb(248,68,0);"/>
                </g>
                <g transform="matrix(1.5,0,0,0.936462,-204.373,73.1955)">
                    <path d="M92.249,205.772C92.249,204.393 91.128,203.272 89.749,203.272L84.749,203.272C83.369,203.272 82.249,204.393 82.249,205.772L82.249,210.772C82.249,212.152 83.369,213.272 84.749,213.272L89.749,213.272C91.128,213.272 92.249,212.152 92.249,210.772L92.249,205.772Z" style="fill:rgb(230,47,0);"/>
                </g>
                <g transform="matrix(1.5,0,0,0.936462,-204.373,82.5601)">
                    <path d="M92.249,205.772C92.249,204.393 91.128,203.272 89.749,203.272L84.749,203.272C83.369,203.272 82.249,204.393 82.249,205.772L82.249,210.772C82.249,212.152 83.369,213.272 84.749,213.272L89.749,213.272C91.128,213.272 92.249,212.152 92.249,210.772L92.249,205.772Z" style="fill:rgb(206,0,69);"/>
                </g>
                <g transform="matrix(1.5,0,0,0.936462,-204.373,91.9247)">
                    <path d="M92.249,205.772C92.249,204.393 91.128,203.272 89.749,203.272L84.749,203.272C83.369,203.272 82.249,204.393 82.249,205.772L82.249,210.772C82.249,212.152 83.369,213.272 84.749,213.272L89.749,213.272C91.128,213.272 92.249,212.152 92.249,210.772L92.249,205.772Z" style="fill:rgb(213,21,112);"/>
                </g>
                <g transform="matrix(1.5,0,0,0.936462,-204.373,101.289)">
                    <path d="M92.249,205.772C92.249,204.393 91.128,203.272 89.749,203.272L84.749,203.272C83.369,203.272 82.249,204.393 82.249,205.772L82.249,210.772C82.249,212.152 83.369,213.272 84.749,213.272L89.749,213.272C91.128,213.272 92.249,212.152 92.249,210.772L92.249,205.772Z" style="fill:rgb(152,43,149);"/>
                </g>
                <g transform="matrix(1.5,0,0,0.936462,-204.373,110.654)">
                    <path d="M92.249,205.772C92.249,204.393 91.128,203.272 89.749,203.272L84.749,203.272C83.369,203.272 82.249,204.393 82.249,205.772L82.249,210.772C82.249,212.152 83.369,213.272 84.749,213.272L89.749,213.272C91.128,213.272 92.249,212.152 92.249,210.772L92.249,205.772Z" style="fill:rgb(124,23,151);"/>
                </g>
                <g transform="matrix(1.5,0,0,0.936462,-204.373,120.019)">
                    <path d="M92.249,205.772C92.249,204.393 91.128,203.272 89.749,203.272L84.749,203.272C83.369,203.272 82.249,204.393 82.249,205.772L82.249,210.772C82.249,212.152 83.369,213.272 84.749,213.272L89.749,213.272C91.128,213.272 92.249,212.152 92.249,210.772L92.249,205.772Z" style="fill:rgb(76,0,143);"/>
                </g>
                <g transform="matrix(1.5,0,0,0.936462,-204.373,129.383)">
                    <path d="M92.249,205.772C92.249,204.393 91.128,203.272 89.749,203.272L84.749,203.272C83.369,203.272 82.249,204.393 82.249,205.772L82.249,210.772C82.249,212.152 83.369,213.272 84.749,213.272L89.749,213.272C91.128,213.272 92.249,212.152 92.249,210.772L92.249,205.772Z" style="fill:rgb(139,106,206);"/>
                </g>
                <g transform="matrix(1.5,0,0,0.936462,-204.373,138.748)">
                    <path d="M92.249,205.772C92.249,204.393 91.128,203.272 89.749,203.272L84.749,203.272C83.369,203.272 82.249,204.393 82.249,205.772L82.249,210.772C82.249,212.152 83.369,213.272 84.749,213.272L89.749,213.272C91.128,213.272 92.249,212.152 92.249,210.772L92.249,205.772Z" style="fill:rgb(89,93,199);"/>
                </g>
                <g transform="matrix(1.5,0,0,0.936462,-204.373,148.112)">
                    <path d="M92.249,205.772C92.249,204.393 91.128,203.272 89.749,203.272L84.749,203.272C83.369,203.272 82.249,204.393 82.249,205.772L82.249,210.772C82.249,212.152 83.369,213.272 84.749,213.272L89.749,213.272C91.128,213.272 92.249,212.152 92.249,210.772L92.249,205.772Z" style="fill:rgb(44,103,201);"/>
                </g>
                <g transform="matrix(1.5,0,0,0.936462,-204.373,157.477)">
                    <path d="M92.249,205.772C92.249,204.393 91.128,203.272 89.749,203.272L84.749,203.272C83.369,203.272 82.249,204.393 82.249,205.772L82.249,210.772C82.249,212.152 83.369,213.272 84.749,213.272L89.749,213.272C91.128,213.272 92.249,212.152 92.249,210.772L92.249,205.772Z" style="fill:rgb(0,84,163);"/>
                </g>
                <g transform="matrix(1.5,0,0,0.936462,-204.373,166.842)">
                    <path d="M92.249,205.772C92.249,204.393 91.128,203.272 89.749,203.272L84.749,203.272C83.369,203.272 82.249,204.393 82.249,205.772L82.249,210.772C82.249,212.152 83.369,213.272 84.749,213.272L89.749,213.272C91.128,213.272 92.249,212.152 92.249,210.772L92.249,205.772Z" style="fill:rgb(6,132,149);"/>
                </g>
                <g transform="matrix(1.5,0,0,0.936462,-204.373,176.206)">
                    <path d="M92.249,205.772C92.249,204.393 91.128,203.272 89.749,203.272L84.749,203.272C83.369,203.272 82.249,204.393 82.249,205.772L82.249,210.772C82.249,212.152 83.369,213.272 84.749,213.272L89.749,213.272C91.128,213.272 92.249,212.152 92.249,210.772L92.249,205.772Z" style="fill:rgb(0,146,131);"/>
                </g>
                <g transform="matrix(1.5,0,0,0.936462,-204.373,185.571)">
                    <path d="M92.249,205.772C92.249,204.393 91.128,203.272 89.749,203.272L84.749,203.272C83.369,203.272 82.249,204.393 82.249,205.772L82.249,210.772C82.249,212.152 83.369,213.272 84.749,213.272L89.749,213.272C91.128,213.272 92.249,212.152 92.249,210.772L92.249,205.772Z" style="fill:rgb(0,132,85);"/>
                </g>
                <g transform="matrix(1.5,0,0,0.936462,-204.373,194.936)">
                    <path d="M92.249,205.772C92.249,204.393 91.128,203.272 89.749,203.272L84.749,203.272C83.369,203.272 82.249,204.393 82.249,205.772L82.249,210.772C82.249,212.152 83.369,213.272 84.749,213.272L89.749,213.272C91.128,213.272 92.249,212.152 92.249,210.772L92.249,205.772Z" style="fill:rgb(40,113,33);"/>
                </g>
                <g transform="matrix(1.5,0,0,0.936462,-204.373,204.3)">
                    <path d="M92.249,205.772C92.249,204.393 91.128,203.272 89.749,203.272L84.749,203.272C83.369,203.272 82.249,204.393 82.249,205.772L82.249,210.772C82.249,212.152 83.369,213.272 84.749,213.272L89.749,213.272C91.128,213.272 92.249,212.152 92.249,210.772L92.249,205.772Z" style="fill:rgb(84,171,0);"/>
                </g>
                <g transform="matrix(1.5,0,0,0.936462,-204.373,213.665)">
                    <path d="M92.249,205.772C92.249,204.393 91.128,203.272 89.749,203.272L84.749,203.272C83.369,203.272 82.249,204.393 82.249,205.772L82.249,210.772C82.249,212.152 83.369,213.272 84.749,213.272L89.749,213.272C91.128,213.272 92.249,212.152 92.249,210.772L92.249,205.772Z" style="fill:rgb(189,227,101);"/>
                </g>
                <g transform="matrix(1.5,0,0,0.936462,-204.373,223.029)">
                    <path d="M92.249,205.772C92.249,204.393 91.128,203.272 89.749,203.272L84.749,203.272C83.369,203.272 82.249,204.393 82.249,205.772L82.249,210.772C82.249,212.152 83.369,213.272 84.749,213.272L89.749,213.272C91.128,213.272 92.249,212.152 92.249,210.772L92.249,205.772Z" style="fill:rgb(218,231,155);"/>
                </g>
                <g transform="matrix(1.5,0,0,0.936462,-204.373,232.394)">
                    <path d="M92.249,205.772C92.249,204.393 91.128,203.272 89.749,203.272L84.749,203.272C83.369,203.272 82.249,204.393 82.249,205.772L82.249,210.772C82.249,212.152 83.369,213.272 84.749,213.272L89.749,213.272C91.128,213.272 92.249,212.152 92.249,210.772L92.249,205.772Z" style="fill:rgb(207,213,107);"/>
                </g>
                <g transform="matrix(1.5,0,0,0.936462,-204.373,241.759)">
                    <path d="M92.249,205.772C92.249,204.393 91.128,203.272 89.749,203.272L84.749,203.272C83.369,203.272 82.249,204.393 82.249,205.772L82.249,210.772C82.249,212.152 83.369,213.272 84.749,213.272L89.749,213.272C91.128,213.272 92.249,212.152 92.249,210.772L92.249,205.772Z" style="fill:rgb(191,164,99);"/>
                </g>
                <g transform="matrix(1.5,0,0,0.936462,-204.373,251.123)">
                    <path d="M92.249,205.772C92.249,204.393 91.128,203.272 89.749,203.272L84.749,203.272C83.369,203.272 82.249,204.393 82.249,205.772L82.249,210.772C82.249,212.152 83.369,213.272 84.749,213.272L89.749,213.272C91.128,213.272 92.249,212.152 92.249,210.772L92.249,205.772Z" style="fill:rgb(192,136,47);"/>
                </g>
                <g transform="matrix(1.5,0,0,0.936462,-204.373,260.488)">
                    <path d="M92.249,205.772C92.249,204.393 91.128,203.272 89.749,203.272L84.749,203.272C83.369,203.272 82.249,204.393 82.249,205.772L82.249,210.772C82.249,212.152 83.369,213.272 84.749,213.272L89.749,213.272C91.128,213.272 92.249,212.152 92.249,210.772L92.249,205.772Z" style="fill:rgb(111,68,31);"/>
                </g>
                <g transform="matrix(0.326218,0,0,0.203661,-74.6462,165.812)">
                    <text x="-2.188px" y="193.911px" style="font-family:'Quicksand-SemiBold', 'Quicksand';font-weight:600;font-size:36.785px;">1</text>
                </g>
                <g transform="matrix(0.326218,0,0,0.203661,-75.2162,428.022)">
                    <text x="-15.596px" y="193.911px" style="font-family:'Quicksand-SemiBold', 'Quicksand';font-weight:600;font-size:36.785px;">26</text>
                </g>
            </g>
        </g>
    </g>
</svg>
