<svg id="Capa_1" data-name="Capa 1" xmlns="http://www.w3.org/2000/svg" viewBox="0 0 805.46 622.47"><defs><style>.cls-1,.cls-2{fill:#7c7c7c;}.cls-1{stroke:#fff;}.cls-1,.cls-2,.cls-3{stroke-linecap:round;stroke-linejoin:round;stroke-width:2px;}.cls-2,.cls-3{stroke:#7c7c7c;}.cls-3{fill:none;}</style></defs><title>mapa españa_codigos_postales_03</title><path id="_52" data-name="52" class="cls-1" d="M477.5,518.79l-0.3.1-0.2-.1,0.3-.2Z"/><path id="_01" data-name="01" class="cls-1" d="M472.1,65.49l0.7,2.5-0.1.8-0.3.5-2.1,1-0.3.3-0.4,1.3,2,1.2L472,73l0.5-.5,0.4,0.2,1.2,0.6,6.5,0.6,2.1,1.3,0.8,1.4,0.4,0.3h1.3l0.6,2.6-0.1.5-0.1.6-0.9,1.6-0.5,1.3-0.1.9v1L484,86l-0.3.3-1.2.5-0.3.5-0.1.5,0.4,2.3,0.3,0.1,0.4,0.2,0.2,0.3v0.6l-0.3.3-1.3.9-0.4.2-0.5.1h-0.8l-0.3-.3-0.3-.6-0.5-.4-0.8-.1-0.4.2-0.8.7-0.6.7-0.9.7-0.4.2-0.6.6-0.1.4,0.1,0.5,0.2,0.3,0.3,0.2,0.4,0.1,0.7,0.4,0.3,0.1,0.4-.2,0.9-1.2,0.7,0.2,0.2,0.3,0.1,0.4,0.2,1.2-0.4,3.2-0.1.9-1-.2-1.5-.4-1.3-.8-0.5-1.1-0.4.2-0.3.2-0.3.4-0.2.5,0.3,0.4-0.9-.2-0.7.1-0.6.4-0.5.5-0.1-.9L470,100l-0.5.1-0.5.5-0.7-.3-1.5-1.2-0.4-.2-0.4-.1-0.1-.9V97l0.1-.4V96.2l-0.2-.5-0.4-.5-1.6-1.1-0.6-.2-0.6.3-0.4.3-0.4,1.4h-0.6l-0.9.3L460,96l-0.3-.3V95.3l0.5-.6,0.1-.3-0.1-.6-0.6.4-0.3-.4-0.1-.8V92.4l-0.2-.7-0.4-.6-2.9-2.4-1.2-.5-1.1-1.4-0.7-.4-0.8-.6-1.3-1.2-1.4-.7-1.3.6-1.2.4-0.2-.1H446l0.3-1-0.2-.4-0.6-.6-0.2-.4V81.9l0.2-.4,0.3-.6,0.4-.6,0.5-.8,0.3-.6,0.1-.7-0.1-.5-0.4-.2-0.4.1-0.6.9-0.3.4-0.3.2-0.9-.1-0.4.1-0.4.2-0.3.4-0.3.7v0.3l-0.1.3-0.2.2-0.6-.4-1.4-1.7-0.6-.6-0.2-.4V77.7l0.4-.8,0.7-.7,0.5-.8,0.2-.4,0.3-.4,0.4-.3,1.6-.2,1,0.2,0.3,0.2,0.3,0.4,0.2,0.7,0.3,0.4,0.7,0.3,0.9,0.1,0.4,0.1,0.9,0.1,0.7-.2h0.9l0.4-.1,0.9-.8H452l0.6-.2,0.2-.1,0.2-.6V74.2l-0.2-.4-1.3-.4-0.6-.4-0.6-.8V71.7h0.5l1.3-.2,0.2-.3,0.3-.9-0.1-.3-0.4-.4-0.8-.3L451,69V68.3l-0.2-.3-0.4-.1-0.8.4L448.8,70l-0.5.2-0.4-.1-1.3-.1-1.3-.3-0.4-.2-0.2-.2,0.4-.8,0.3-.7,0.1-1.4,0.2-1.1V64.5l-0.2-.4-0.8-.3-0.3-.4V62.9l0.3-1,0.2-.4,0.8-.7,1.1,1,0.6,0.2,2.7-.5,0.5-.4,0.3-.6,0.2-1.3,0.2-.5,0.8-.3,0.6,0.2,0.6,0.5,0.9,1.2,0.7,1.6-0.1.7-0.7,1.6-0.2.8,0.4,0.8,2.4,2.2,1.4-.1,0.5,0.1,1,0.6,2.1,0.6,1.9-.3,1.8,0.7h0.5l0.8-.4,1.3,0.3,0.3-.1,0.1-.7-0.2-.7-1-1.4V66.3l0.9-.6,0.7-.2,1,0.4,2.3-.4h0Zm-4.1,19-2.7-.8-0.6-.3-0.5-.1-1.2-.1-2.8.2-0.5.1-0.3.3-0.9,1.4-0.6.7-0.1.4,0.2,0.5,1.1,1.2,1.2,0.9,2.7,1.2,3,0.7,2.2,1h3.5l0.5,0.3,0.3,0.4,0.5-.1,0.5-.3,0.1-.3v-0.7l-0.3-.9-0.2-.5h-0.3l-0.3.2-0.4.5-0.5.2-0.6-.2-0.4-.7-0.7-.7-0.2-.2,0.1-.6,0.3-.1,0.5-.2,0.4-.4,0.4-.8,0.2-.6,0.1-.5-0.1-.2-0.5.1-0.4-.1-0.4-.3-0.4-.5-0.5-.2-0.4.2h-0.4l-0.6-.1h0Z"/><path id="_02" data-name="02" class="cls-1" d="M543.8,318.49l-0.4.3-0.4.1-0.2.4v0.5l0.2,1.1,0.3,0.7,1.1,1.6L545,324l-0.2.4-1.4,1-0.8.3-0.9.1h-1l-0.3-.1-0.7.2-2.4-1.9-1.3-1.1-0.2-.7-0.2-.8-0.2-.3-0.4-.2-1.6-.6H533l-2.6.6-0.5.3-0.4.3-1.1,1.2-2.5,1.4h-0.5l-0.3-.2-0.5-.6-0.4-.1-0.6.3-0.7.7-1.4,1.6-0.8,1.6-0.1.9v1.3l-0.5.8-0.5.3-0.4.4-0.5,1-0.2.6v0.7l0.3,0.5,0.2,0.8,0.2,0.9,0.1,1.8v0.9l0.2,1.4v0.5l-0.1.8-0.2.4-0.4.5-3.2,2.6-2.7.9h-0.4l-0.4-.1-1-.4-0.2-.2-0.4-.5-0.2-.5,0.2-.6-0.1-.6-0.3-.4-0.5-.2-0.8.1-0.7-.5h-0.7l-0.7.3-0.3.3-0.8.2v0.3l-0.2.4-2.3,1.4-1.7,1.3-1.1.6-0.7.2-1.4.3-1.2.4h-0.3l-0.3-.2-0.7-.7-0.4-.2L495,346l-0.5.1-0.8.5-1.1,1.4-1.9,1.7-0.5.3-0.9.1-0.5.2-0.5.4-1.3,1.2-0.5.7-1.2,2.7-1.4,1.8-1.7,1.9-0.2.4-0.6,2.1-0.6.1h-0.4l-4.7-1.4-3.6-1.8,0.5-.7,0.6-.7,0.3-.4,0.4-.7,2.7-3.6,0.1-.4v-0.5l-0.2-.7v-0.3l0.5-.6,0.2-.7,0.1-.7-0.1-.8-0.3-.6-1.4-.9-0.3-.5-0.1-1.1v-0.8l-0.1-.9-0.2-.4-0.1-.8,0.1-.8-0.1-.4-3-.9-0.7-.7-0.1-.4,0.2-.8v-0.8l-0.2-1.2,0.1-.7v-0.2l-0.5-.3-0.7-.3h-1.2l-0.7.1-0.6.1-0.9.4-1.9-.8-1.7-1.1,0.4-.8-0.8-1.5,0.7-1.8,0.4-.6,0.6-.5,2.1-.6,0.5-.8,1.1-3.3v-1l-0.3-1-1.4-1.9-2.2-.8-0.8-1.2-0.5-4-1.7-1.5-2.1.1-1-.3-0.6-1.1,0.2-.8,3.2-6.2v-0.9l-0.1-.9-1.5-2.8,5.3-7.7-0.8-2.9,3.5-.2,1.9-1,2.3,0.7h1.7l0.8-.8,6.1,6.2,1.1-2.6,1.2-.3,1.5,3.3,5.3-3.1,5.3,0.8-1.9-5.3,3.1,0.4-0.3.8,1.7,2.5,4.6-.6,1.8,1.1,3.4,0.3,1.3-2.3,10.6-5.8,0.6,0.1,0.3,0.6,0.2,0.2,0.3,0.1,0.2,0.4,0.4,0.2,0.2,0.2,0.1,0.9,0.1,0.4h0.9l0.5-.2h0.4l0.9,0.3,2.1,1.4,0.4,0.2h0.8l5.9,1.9,0.3,0.5,0.1,0.4-0.3.9-0.1.9v0.9l0.1,0.4-0.1.8-0.7,2.1-0.3.8-0.6.6-0.5.7-0.2.4-0.3.9-0.2.4-0.4.9-0.2.3-0.3,1.3v0.6l0.3,0.9,0.3,0.6,4.3,5.1,0.8,0.6,0.5,0.3h1.3l1.2-.3H539l0.8-.2,0.7-.4,0.6-.2,0.9,0.3,0.5,0.4,1.5,2.5,0.2,0.5v0.5l-0.2.8v0.5l0.6,1.7v0.3l-0.3.7-0.1.9-0.4.4h0Z"/><path id="_03" data-name="03" class="cls-1" d="M551.3,371.59l-0.8.2-0.5-.2-0.6-.6-0.4-.2-0.8-.2-0.3-.2-1.9-2-0.3-.3-1.3-1.4-0.3-.4-0.5-1.1-0.6-1-0.3-.4-0.5-.9-0.7-1.4-0.9-1.5-0.8-.9-0.2-.6-0.3-1v-1.1l0.2-1.1,0.2-.6,1.3-1.9,0.3-.9,0.2-.4,0.3-1.8,0.1-.4,0.2-.9v-0.7l-0.7-2.3-0.4-.8-0.8-.5-1.6-.6-0.9-.1-0.4-.2-0.2-.5-0.1-.9v-2.3l0.1-.9,0.3-.6,0.3-.4,1.7-1.6,0.3-.4,0.3-.8-0.1-1.3,0.1-.9,0.5-1.6v-1.4l-0.8-3.7,0.7-.2,0.3,0.1h1l0.9-.1,0.8-.3,1.4-1,0.2-.4-0.6-.8-1.1-1.6-0.3-.7-0.2-1.1v-0.5l0.2-.4,0.4-.1,0.4-.3,0.6,0.7,0.4,0.1,0.4,0.1,1-.3h0.4l0.4,0.3,1.2,1.3,0.7,0.3,3-.8,0.8,0.1,3.5,2,0.7,0.9,0.9,0.5,4.8-2.8-0.6-.8-0.6-.3-0.6.1-0.8.3-1.3-2.3,7.9-1.3,4.7-3.6,3.5,1.6,8.9-1.7,0.9,0.8,1.2,0.3,2.1,0.2,2.1,0.6,1.9,1.1,1.4,1.5-0.7.5,0.6,0.2,0.3,0.4,1.2,1,0.5-.2,0.2,0.7,0.1,0.9-0.3.5h-0.9l-0.7.2-0.7.4-0.6.6-0.5,1.2-0.3.3-0.9.1-0.3.1-0.6.6-0.5.3-0.5.4-0.4.9,0.3,0.8-0.9-.3-0.6.2-0.6.3-0.8.1h-1.3l-0.6.2-0.6.6-0.6.9v0.8l0.1,0.8-0.3.8-0.7.7-0.6.3h-1.9l-2,.5-1.1.4-1.4,1-4.2,1.8-0.7.5-0.3.6-0.3.3-1.7,1.8-0.4.8-0.2,1.1v0.6l-0.2.3h-1.4l-0.6.2-0.5.5-0.2.8h-1.5l-0.4,2.2,0.6,5.2-0.5.6-0.8.2-1.6-.1-1,.3-0.8.6-0.6.9-0.5.9-0.3.8-0.1.9-0.4,6.1-0.1,1.1-0.4.5-1.1.4-0.9.9-0.4.8-1.8,4.4-0.1,1h0Z"/><path id="_04" data-name="04" class="cls-1" d="M512.3,397.69l-0.2.6-0.3.5-0.8-.1-0.4.5-0.3.9-0.6,1.2-1.3,1.9-2.6,2.6-1.1,1.6-0.8,2.2-0.3,2-0.6,1.5-0.2,1.5-1.3,3.4-1,1.6v0.7l0.3,0.9,0.1,0.5-0.1.5-0.2.3-0.4.1-1,.1-0.2.1-0.6.6-1.5,1-0.7.8-0.4,2.3-0.5.6-0.7.6-0.8.7-0.1.5-0.3,1-0.2.5-0.4.2-0.9.3-0.5,1.1-0.6.5-0.9.4-0.9.1-1.7-.5-1.2-1.3-1.1-1.5-1.2-1.3-1.5-.9-1-.4-1-.1-0.8.1-1.4.8-0.9.2-0.4-.1-1.2-.5-0.6-.2-3.5.7-0.7.4-0.9,2.1L469,434l-1.1,1.2-0.8.6-1.1.5-1.5.2-0.8-.3-0.9.4-1.2-.8-0.8-.7-0.8-.3-0.4.1-0.4.5-0.4.1-0.5-.2-1.2-1.7-1.3-.8-0.8-.1-2.4.8-4-.7-2.3.2-0.5-2.3,4.9-3.2-0.6-1.9-0.4-.4-0.6-.4-0.3-.5,0.2-.7,3.2-3.1,0.2-.8-0.1-.8-0.7-2-0.3-1.9,0.2-.8,0.6-.6,1.6-.1,0.4-.2,0.4-.7,0.4-1.7,0.3-.7,0.5-.4,1-.4,0.4-.5,1.1-4.5,0.3-.4,0.3-.2,0.5-.1,1.4,0.3,0.4,0.2,1.1,1.5,0.6,0.3,2.1,0.1,2.2,1-0.2-4v-0.4l0.4-.8,0.1-.4,0.2-3.1,0.3-.8,6.7-6,5.9-1.8-0.8-5.1,2.7-.5-0.3-4.3,0.4-.9,1.1-1.8,0.2-1-0.3-3.2,0.2-2.4,0.2-.6,0.4-.4,2.8-1.9,1.7,1.1,2-.1,0.6,0.1,1.6,0.8,4.1,0.6,0.3,0.3v0.3l-0.5.7-0.2.4v0.4l-0.1,1.4-0.3.8-0.1.4,0.2,2,0.1,0.5,0.1,0.4-0.2.8-0.2.6v0.4l-0.1,1.3,0.1,0.9,0.1,0.6,0.2,0.3,0.4,0.5,6.6,10.4,0.6,0.5,0.3,0.2,0.6,0.2,0.1-.5,0.5-.2,2.2,0.5,0.4,0.2,4.1,3.2h0Z"/><path id="_33" data-name="33" class="cls-1" d="M384.9,46.29v1.2l-0.4.8-0.5,1-0.2.4,0.1,0.3,0.2,0.3,0.4,1.1,0.2,0.9-0.1.5-0.1.6-0.3.3-0.3.3-0.4.1-0.3-.2-0.2-.7-0.3-.2-0.8-.2-0.5-.1-0.4.1-0.7.4-0.5.7-0.6.4-1,.1-0.8-.1h-0.5l-0.4.2-0.6.3-0.2.3-0.1.4,0.1,0.9-0.2.8v0.5l-0.1.5-0.3.7-0.4.3h-0.4l-0.8-.2-0.9.3-1.3.2-0.5-.1-1.2-2.1-0.9-.7-0.9-.2h-0.4l-2.4,1.3-0.7.7-1.3.7-1.7.5-0.8.4-0.4.4-0.4.9-0.6,1.8-0.3.5-0.7.7-0.5.1-0.5-.2-0.4-.3-0.4.1-2.4,1.2-4.2.5-2.4-.4-0.6.1-0.4.3L346,67l-0.3.4-0.5.2-0.4.1-2.5.1-0.2.3-0.1.3-0.4.7-0.4.1-0.8-.1-1.1.4-0.4.1-0.5-.1-0.7-.5-1-.2H336l-0.9-.2-1.3-.7h-1.7l-0.7.2-0.4.3-0.7,1.1-0.5.8-0.3,1-0.3.7-0.4.4-0.5.1-0.7.2-1.7-.1-0.5-.2-0.3-.2-1.2-.5-0.2-.2-0.5-.2-0.6-.4-0.6-.4-1-.7-0.3-.3-0.3-.9-0.1-.9-0.3-.3-0.5-.3-1.3.3h-0.5l-2.2-.5-0.4.2-0.2.3-0.2.9-0.3.5-0.8.4H313l-0.6-.1-1.2-.5-1.1-.2-0.6.1-0.2.3-0.2.9-0.2.2-0.3.1-0.9-.2-1.9-1h-0.6l-0.8-.2-0.4-.4-0.4-.2-0.8-.3-1.2.6-0.3.4-0.1.4-0.6.8v0.7l-0.2.2-0.3.2-0.9.3-1.3.1-0.2.2-0.1.3,0.3,0.4,0.3,0.2,0.8,0.3,0.3,0.3v0.3l-0.2.4-2.4,1.3-0.6.1-1.6.7h-0.4l-2.1-.2-0.3-.2-0.9-.2h-2.1l-0.8.1-0.8.3-0.5.3-0.6.7-0.4.4-0.5.3-0.3-.1-0.3-.6-0.8-.4-1.5-.3L282,73.8l-0.1-.7-0.4-.5-1.1-1-0.3-.2h-0.9l-0.7-.2-0.5-.5-0.9-1.3h-0.4v1.2l-0.2.4-0.4.2-0.4-.2-0.3-.6-0.3-.7,0.1-.7,0.3-.4,0.4-.1,0.4-.2,0.2-.5,0.1-.5,0.3-.8,0.2-.3,0.5-.2h0.9l1.6-.7,0.3-.2,1.7-1.5,0.1-.6-0.1-.6-0.7-1.2-0.4-.6-0.4-.4-0.4.1-0.2.2-0.2.4-0.1.3-0.2.4-0.4.2-0.4.2-0.8.5-0.8.3-0.3-.1-0.4-.3-0.2-.3-0.3-.4-0.1-.5V60.6l0.3-.9,0.1-.7-0.3-.2-0.4-.1-0.7-.4-0.5-.6-0.6-.1-1-.8-0.3-.4-0.3-.4-0.3-.6-0.3-2.6-0.3-.4-0.4-.2-0.4-.1-0.6-.6-0.3-.5-0.3-.6-0.1-.7L269,48.2l-0.1-.4-0.3-.2-0.8.1-0.6-.3-0.2-.6,0.1-1.3,0.1-.4,0.3-.4,0.5-.1h0.5l0.5,0.2,0.6-.1,0.4-.2,0.4-.4,0.6-1,1.4-1.3,0.2-.4,0.1,0.3h0.2l0.3-1,0.1-1,0.3-.9,0.6-.4,0.4-1.5,2.5-.5,4.4-.2,0.6,0.2,2.7-.2,1.8,0.5,1.2,0.2,2.4-1.3,2.3,0.2,2.2,0.8,1.7,0.9,0.4-.3,0.5-.2h1.1l-0.2-1.2,0.6,0.1,1,0.6,0.7,0.2,2.2-.5H305l0.7-.1,1.1-.6,1.1-.2,0.6-.7,0.6-.1,1.4,1.1,0.6,0.2,3.4,0.4,0.7-.4,0.7,0.3,0.7-.3,0.6-.5,0.7-.3h5.2l0.2-.6L323,34l-0.2-.5,0.6-.6-0.3-.9h1.4l0.5-.3,0.2-.7,0.3-.6,0.7,0.1,1.5,0.7,0.9,0.8,2.5,2.9,0.8,1.3h0.3l0.2-.9,0.4,0.3,0.5,1.1,2.3,0.3,8.9-.3,1.4,0.3,0.1,0.9-0.6.9-0.7.8L345,40l0.4-.3,1-.3,0.4-.2,0.3-.4,0.2-.4,0.2-.4,0.7-.1,1.8,0.2,0.7,0.3,3.2,2.1,1.5,0.6,3.9,0.1,1,0.3,0.5,0.8,0.5-.3,3.1,0.9,0.4-.1,0.6-.6,0.5-.1,0.5,0.2,1,0.5,3.2,0.7,3.6,1.7,0.9,0.3,9.8,0.8h0Z"/><path id="_05" data-name="05" class="cls-1" d="M376.6,181.19L376,185l0.7,1.3,2.5,2.3,0.5,0.8,0.9,2.3,0.4,0.5,0.5,0.4,0.7,0.3,0.3,0.2,0.2,0.4,0.1,1.9,0.7,2.2-0.1.8-0.6,1.3,0.1,0.6,0.5,0.4,1.6-.5,0.7,0.1,0.4,0.4,0.1,0.4,0.2,1.1,0.2,0.9,1,1.1,0.4,0.7,1.1,6.9,3.3-.7,1-.7,2.8-.2-0.8-1.8,0.7-.4,0.7-.1,2.7,0.3,1,0.5-0.3,1.1v0.4l-0.1,1V212l-0.1.5-0.5.3-0.9.3-0.8.4-0.9.1-0.7-.2-0.3-.3-0.4-.7-0.2-.2H395l-0.2.3v0.6l0.3,0.8v0.8l-0.2.7-0.2.4-0.9.7-0.3.6,0.1,1.1-0.1.8,0.1,0.6-0.1,1.1,0.2,0.7-0.6,2.2,0.2,0.8v0.3l-0.5.2-1.2.1-0.6.2-0.8-.3-0.6.1-0.5.3-0.4.5-0.2.3-0.2,1.7-0.2.6-0.4.8-0.3.6-0.5.3-0.5.2h-0.7l-0.5-.3-0.5-.7-0.3-.3-0.3.1-0.3.2v0.5l0.1,0.5,0.2,0.7,0.1,0.5-0.1.4-0.2.4-0.6,1.1-0.4,2-0.6,1-1.3.6-1.1.2-0.6.1-0.6-.2-0.8-.4-0.3-.3-0.3-.3-0.1-.4-0.2-1.4-0.2-.8,0.1-.4-0.3-.4h-0.4l-1,.3-2.1.3h-0.9l-0.3.3-0.2.8-0.2,1-0.5.7-0.7.6-1,.6-0.5.4-0.7.5-0.5.4-0.4.7-0.1.5-0.3.8-0.4.3-0.9.7-0.7.3-1,.2-0.6-.2-0.2-.3-0.3-1.6-0.3-.3h-0.5l-1.1.4-0.6.3-0.3.3-0.6.7-1.8,1.4-0.4.4-0.5.2-0.7.2-1-.1-0.5-.4-1.3-.6-4.3-.5-0.8-1.3-0.7-1.5-0.1-2.7,0.1-.8,0.5-1.2v-0.4l-0.2-.2h-0.8l-2.3.7-1.5,1.3-0.9,1-0.3.1-0.7.2-1.7.1-1.7-.6-1.1-.7-1.1-1.4-1.4-1.3-1.2-.9-1.8-.8,2.1-3.1,0.2-.6v-0.8l-0.2-.8-0.6-1.1-0.1-.6,0.3-.6,3.2-2.5,1.1-.3h0.5l0.2,0.4,0.1,1.1,1.1,1.2,0.6,0.5,0.7-.1,0.5-.5-0.3-1.6,1.6-.2,0.5-.5,0.3-.7,1.1-4h-3.4l-0.2-2h0.2l2.9-.2,1.5-.8,1.2-1.2,1-3.2,5.3-3.8,1.2-1.9,1.7-1.2,0.8-1.5,0.1-.7-0.2-2.2,2.3-2.7-0.7-2.4,1-1.1,0.3-.7,0.1-1-0.2-1-0.2-.5-0.3-.4-0.3-.2-0.9-.2-0.3-.2-0.1-.3-0.2-2,0.3-1,0.9-1.8,0.8-.6,0.6-.1,1.5,0.3,1.8-1.2,0.9-.1,1,0.3,4,2.9,1.3,0.5,0.9-.4,1.9-1.9,4.1-1.1h0Z"/><path id="_06" data-name="06" class="cls-1" d="M361.7,321.69l-1.2.2-0.7.3-3.5.1-0.5.3-0.1.3,0.1,0.4,0.1,0.4-0.4,1.3-0.2.3-1.3.4-2,1.4-1.5,1.2-0.4.5-0.2.5-0.2.5-0.4.1-0.6-.1h-0.9l-0.5.1-0.8.7-0.9,1.3-0.3.6-0.1.4-0.1.4-0.4.5-1.3.9-0.7.6-0.2.4-0.5.7-0.3.3-0.8.3-1.9,1.1-0.6.4-0.3.4-0.3,1.2v0.6l0.1,0.2,0.4,0.5,0.1,0.2,0.1,0.6-0.2.9-0.1.9,0.1,0.2,0.6,0.6,0.3,0.6,0.2,0.6,0.3,0.9,0.5,1v0.8l0.1,0.4,0.1,1.3-0.1.8-0.3.4-0.2.4-0.1.8v0.7l-0.2.3-1.9,1.5-1.9-.1-0.9.6-0.3.4-0.9.9-1,.7-0.8.2-0.5-.1-0.3-.3-0.2-1.2v-0.8l0.6-.4,0.4-.2,0.7-.4,0.2-.3-0.3-.7-0.7-.8-0.6-.5-0.6-.1-3,.4-1.3.5-0.4.4-0.3.3-0.4.7-0.6.6-1.1.7-0.4.3-0.3.4-0.3.8v0.4l0.4,0.7,0.1,0.4v0.4l-0.1.4-0.7,1-0.5,1.3-0.5.6-0.5.3-0.6.2-1.9.4-0.8.1-3.4.7-1.1.5-1.4,1.1-0.5.6-0.8-.7-5.8-2.4-1.1-.3-0.4-1.2-0.3-.6-1.8-1.3-0.5-.1-0.5-.1-0.4.1-0.3.3-0.4.6-0.9.8-0.2.5-0.7.1-1.1-.3-2.1-.2-0.2-.2-0.1-.4v-0.4l-0.2-.8-0.9-1.2-0.6-.5-0.6-.3-0.6-.1-1.5-.2-1,.2h-2.1l-1.2-.4L284,357l-0.6-.2-0.4-.2-0.1-.3,0.1-.4,0.3-.8,0.4-.7,0.1-.4v-0.4l-0.2-.4-6-2-0.8.6-0.6-.5-1.2.1-1.2.4-0.3-.1-0.6.8-1.1.4-1.1.3H270l-1-1-1.8-4.6-0.2-.2-0.8-.6-0.3-.3-0.2-.4-0.3-.7-0.1-.4-4.7-6-1.3-1-0.6-.3,0.6-.6,0.5-.7v-0.6l-0.5-.8,0.4-.6,0.8-2.9,1.9-2.7,0.2-.8-0.1-.4-0.6-.4-0.2-.3-0.1-1.1,0.1-1.3,0.3-1.9,0.2-.4,0.4-1,2.7-2.2,0.6-.2,0.8-.6,0.6-.7,0.2-.6,0.4-.4,2.1-.4,0.7-.4,0.5-.5,0.6-.5,0.3-.2v-0.8l0.2-.9-0.6-1.1,1-.8,1-1.4,1.4-2.9,0.5-.6,0.2-.6-0.1-.5-0.5-.4,0.3-1-0.2-1.1-0.7-1-0.7-.7-1-.7-1.1-.3-1.2.1-1.1.7-0.5.2-0.7-.1-0.6-.4-0.5-.4-0.1-.5,0.5-1.1,0.1-.6-0.5-1.1-1.1-.5-1.2-.3-1.1-.7-0.6-.8-0.4-1.2,0.1-1.2,0.6-1,2.1,0.2,2-2.7,0.2-.3-0.1-.4-0.5-.6-0.1-.4,0.3-.9,0.1-.1,1.9-1.1,0.9-.3,1.1,0.2-0.2,2.6,0.2,1.2,0.9,0.2,0.3-.2,0.3-.3,0.8-3.1v-0.4l-0.1-.4-0.2-.4-0.3-.3-1.4-.8,0.8-1.3,7.1,3.1h0.7l1.7-.3h0.8l0.7,0.6,0.9,2.1,0.9,0.7,0.3,1.5-0.4,1.4-1.7,2.2,1,2.3,0.4,0.5,3.9,0.8,0.9-1.2,3.3,0.9,0.3,0.4,0.2,0.8,0.4,0.3,0.5,0.1,0.4-.1,0.4-.7,0.3-.3,7,0.6,2.3-1.2,0.1,3.1,0.2,0.8,0.9,0.9,1.9,0.1,0.8,0.5,0.8,1.3,0.4,0.4h1.4l0.2,0.1,1.2,1.5,2.3-3,3-2.5,0.4,3.4,0.4,0.3,0.8-.1,2-2.5,0.7,1.5,3-1.2,1.3-.9,0.8-1.4,1.9,0.4,3.4,3.1,2-1.1h1.4l0.5-.2,0.6-.7,0.5-1.1v-0.6l-1.3-2.1-0.2-.2,2-1.2,1.1-.3,1.1,0.3,2.1,2.2,1.1,0.7,1.5-.3,0.6-.5,1.2-1.3,1-1.9,0.1-.5-0.1-.4-0.3-.7v-0.4l0.3-2.2,0.4-1.3,0.8-.3,3.3,1.1h3l1.7-1,0.8-.7,0.2-.5,0.1-.5v-1.2l0.1-.5,0.7-.7,0.6,0.4,1.2,1.6,2.9-.4,2.1-1.2,2.8,1.4,1.1-.6,0.6-.2,0.3-.1,1-.5,1.6-.5,0.5-.2,0.6-.8,2.2-1.2,0.5-.6,0.6,1.8-0.1,1-0.7,1.3-0.7,1.9-0.4.6-0.4.3-0.5.1-0.4.2-0.3.4v0.6l0.2,0.5,0.8,2.1,0.8,1.4,0.3,0.7,0.5,0.4,1.2,1.5,0.6,1-0.8-.1-1.6-.8-0.7-.4-0.8-.1-0.7.2H373l-0.7-.2h-0.4l-0.3.2-0.5.7-0.7.7-0.3.3-0.2.3-0.2.7-0.5,2.4V301l0.2,0.6,0.2,0.3,0.8,0.4,0.3,0.3,0.1,0.5-0.1.4-1.1.7-0.4.1-0.4.1-0.8-.3-1.1-.7-0.8-.2-0.4.1-0.3.3V304l0.3,0.8,0.1,0.9L366,306l0.4,0.2,0.1,1.3,0.3,0.8,0.3,0.2,1.6,0.5,0.3,0.2,1.1,0.1,0.3,0.4,0.2,0.6-0.2.8-0.2,1.3-0.3.3h-0.3l-1.2-.1-0.8.1-0.4.3-0.7.6-0.6,1.3-0.2.5-1.1,4-0.4,1.1-0.5.6-0.3.2-1,.1-0.7.3h0Z"/><path id="_08" data-name="08" class="cls-1" d="M708.3,152.19l-5.6,2.4-9,4.1-0.9,1-2.6,1.8-3.3,1.4-1.3,1-1.2,1.6-2.1,3.8-1.3,1.8-1.5,1.3-3.1,1.8-1.8.5-3,.3-3,.8-0.9.5-0.4.1h-1.5l-8.7,2.6,0.2-1.5-0.2-.3-0.3-.2-1.5-.1-0.4-.4v-0.6l0.2-.2,1.2-.6,0.3-.4,0.1-.4-0.1-.6-0.2-.4-1-.7-0.9-2-0.1-1.4-0.2-.5-1-1.1-2.3-1.3-0.6-1.1,0.4-1.7,0.1-1.3-1-.8-2.4-1-0.4-.8,1.4-1.9,0.4-.8-0.3-.5-0.5-.1-1.2.1,0.7-.9-0.9-.6-0.8-.2,0.2-1,0.7-.5,2.1-.5,0.1-.4-1.4-3.6,0.1-4.7,0.1-.4,0.4-.4,0.5-.3h0.5l0.5,0.2,0.8,1.1,0.4,0.2,1.2-.3,0.4,0.1,1.1,1h0.4l0.4-.3,3.1-3.6,0.1-.6v-0.6l-0.8-2.1v-0.7l1.2-2,0.1-1.5,0.1-.4,0.3-.4,0.4-.2,1.4,0.1,0.5-.3,0.3-.3,0.2-.5-0.1-.5-0.3-.4-0.3-.2h-0.3l-1.1.5-0.2-.1-0.2-.2-0.1-.5,0.1-.4,1-.9,0.3-.5,0.1-.6v-0.6l-0.1-1.1V126l0.2-.2,0.6-.2,0.2-.3,0.1-.5-0.3-1.5v-0.5l0.4-.6,0.5-.3,0.2-.4,0.2-.5v-0.5L662,120l-0.1-.3-1.4-.7-0.3-.2-0.2-.4-0.3-2.2v-0.5l0.1-.3,1.3-1.6,5.7-1.1,3.1-.7,1.1,0.3,1.6,1.1,0.6,0.1,1.3-.3h0.6l0.5,0.3,0.2,0.6v0.7l-0.1.4-0.6.8-0.3,1.5,0.1,0.2,0.9,1.2,0.2,0.4,0.2,0.7v1.9l0.2,0.6,0.3,0.4H677l0.8-.1,0.3,0.1,1.2,0.9,0.2,0.1,1.3-.5h2l0.2-.1,0.5-.5,0.5-.2,2.2-.1,0.3,0.3,0.3,0.9,0.6,0.6h0.9l1.7-.5,1.7,2.4,0.7,0.5h1.7l0.9,0.6,0.7,1,0.3,1.2-0.1,1.3-0.4.8-2.2,2.5-0.1.4,0.3,0.3,0.3,0.3,0.5,0.7v0.6l-0.9,1.4-0.8-.1-1.4.9-0.5.1-2-1-0.2.1-0.3.5-0.5.8,0.2,1.2,0.5,1.2,0.7,1,0.7,0.6h0.4l1.1-.4,1.8,0.1,4.9,5,4-.8,1.4-.9,0.7-.1h0.8l2,0.8,0.9,0.9,0.3,1.2-0.1.3-0.4.5-0.2.3,0.1,0.5,0.8,1.7h0Z"/><path id="_09" data-name="09" class="cls-1" d="M468,84.49l0.6,0.1H469l0.4-.2,0.5,0.2,0.4,0.5,0.4,0.3,0.4,0.1,0.5-.1,0.1,0.2-0.1.5-0.2.6-0.4.8-0.4.4-0.5.2-0.3.1-0.1.6,0.2,0.2,0.7,0.7,0.4,0.7,0.6,0.2,0.5-.2,0.4-.5,0.3-.2h0.3l0.2,0.5,0.3,0.9v0.7l-0.1.3-0.5.3-0.5.1-0.3-.4-0.5-.3h-3.5l-2.2-1-3-.7-2.7-1.2-1.2-.9-1.1-1.2-0.2-.5,0.1-.4,0.6-.7,0.9-1.4,0.3-.3,0.5-.1,2.8-.2,1.2,0.1,0.5,0.1,0.6,0.3,2.7,0.8h0Zm-8.8,7.9-3,1.1-1.2-.3-0.7-.3-2.9-.3-1.9.2-0.7.3-0.1.4,0.5,0.8,0.1,0.4v0.4l-0.2.5-0.6.7-0.2.4-1.3,1.5-0.1.4,0.2,0.3h0.4l0.3-.2h0.8l0.2,0.3,0.1,0.3v0.5l-0.1.6-0.4.7-0.1.5,0.2,0.4,0.6,0.5,0.3,0.3,0.1,0.4,0.2,0.4,0.1,0.4v0.3l-0.4,1.3v1.3l0.1,0.9v0.5l-0.7,1.2-0.3.3-0.8.2-0.5.2v0.3l0.4,0.7,0.1,0.4v1l0.2,1L448,114l0.1,0.9-0.1,1.3-0.5,1.8-0.3.5-0.5.5v0.3l1.5,2.3,0.1,0.5,0.3,0.7,1,0.8,0.4,0.7,0.4,0.8,0.5,0.7,0.6,0.4h1.6l0.7-.1,0.4-.1h0.4l0.3,0.1,0.5,0.8,0.3,0.8,0.3,2-1,.3-1.4,3.3-0.2,1.4-0.2.5-0.4.1h-0.4l-0.3.2-0.2.3-0.6,2-1.3-.1-1.3.3-4.3,5.4-1-2-0.3-.3-1.2-.5-0.4-.5-0.7-.9-0.8-.1-0.7.6V141l0.4,3.7-0.2.4-1.7,1.2-1.5.4-0.2,2.6-1.5.2-3,6-3-1.1-0.3.1-0.3.3-0.1.5,0.1,0.9-1.4.7-2.2-.4-1.1.2-1.1.6-0.3.3-0.5,1.1-0.3.3-1,.5-0.3.5-0.1.5v2.8l-1.8-.1-0.7-2.5-2.2.2v-0.1l-2.4-2.8-4.1-2.1-0.5-1.5-1.7-1.3,0.2-3.2-0.2-1-1.1-2.4,0.7-1.6,0.1-1.3-2.3-2.4v-2.4l1.6,0.1,2.5-1,0.3-.3,0.2-.4,0.1-.5,0.1-1.2,0.2-.3,2.8-.7,0.6-.5,0.3-.7v-0.7l-0.1-.6-0.4-.4-0.5-.1-4,2.1h-0.8l-0.2-1.1,2.5-3.3,0.1-.5-0.4-.5-0.4-.2-4.1.7-0.2-.2-0.8-1.1-0.8-4-3.7-.4,0.6-2.8-2.1-2,0.2-.8-1.9-9.3,0.2-.1-2,.2-0.4-.5-0.2-.9v-2l0.3-.7,0.4-.4,0.6-.2,2.6,0.3-0.1-2.2L396,98.9l-0.6-.8-0.9-1-0.3-.2,0.9-.4-0.5-1.7,0.9-.8-0.1-2.1L395,90.5l0.1-.6,0.7-1.2,0.1,0.2,0.3,0.3,0.6,0.3,1.2-.8,1.4-1.9,1.2-.7,0.6-.2,0.6,0.2,0.7,0.7,0.2,0.1,0.4-.2,0.3-.4,0.5-1.1,1.7-.4,1.2-2.8,0.4-.3,0.4-.1,0.1,0.5,0.1,1.7-0.1,1,1.5,0.5,0.7-.2,0.9-.2,0.5-.3,1.6-1.4,0.7-.2h1.6l0.4-.3,0.2-.3,0.1-.8-0.5-1-0.1-.5,0.1-.6-0.1-.5-0.1-.4-0.4-.2h-0.5l-0.5.2-0.7,1-0.3.3h-0.4l-0.3-.3-0.2-.3V78.8l-0.2-.7,0.1-.3,0.3-.2,0.1-.6,1.3-.1,1.3-.8,0.2-.5-0.1-.4-0.5-.8-0.3-.2-0.4-.2-0.8.3-0.2.3-0.4.8-0.3.3-1.1.7-0.8.3h-0.5l-0.4-.2-0.4-.3-0.3-.4-0.2-.4,0.1-.9,1-2.9,0.4-.7,0.4-.3,0.4-.2,0.8-.5,0.9-1,0.7-.5,0.7-.2,0.4-.2,0.6-.6,0.1-.6V65.7l0.3-.2,0.4-.1H416l1.2,0.1,0.4-.1,0.4-.2,0.7-.6,0.8-.5,0.5-.4,0.7-.7,1.1-1.5,0.9-.9,0.6-.4,0.5-.1,0.4,0.2,0.7,0.5,0.3,0.2,1.4,0.2,1.2,0.4,1.2,0.5,0.8,0.2h0.9l1.3,0.1,1.2-.1,2.7-1,3.8-2.4,0.8-.3,0.6,0.2,0.7,0.7,1,0.2h1.5l1,0.1,0.4,0.4v0.6l-0.8.7-0.2.4-0.3,1v0.5l0.3,0.4,0.8,0.3,0.2,0.4v0.8l-0.2,1.1-0.1,1.4-0.3.7-0.4.8,0.2,0.2,0.4,0.2,1.3,0.3,1.3,0.1,0.4,0.1,0.5-.2,0.8-1.7,0.8-.4,0.4,0.1,0.2,0.3V69l0.3,0.3,0.8,0.3,0.4,0.4,0.1,0.3-0.3.9-0.2.3-1.3.2h-0.5v0.5l0.6,0.8,0.6,0.4,1.3,0.4,0.2,0.4v0.4l-0.2.6-0.2.1-0.6.2h-0.4l-0.9.8-0.4.1h-0.9l-0.7.2-0.9-.1-0.4-.1-0.9-.1-0.7-.3-0.3-.4-0.2-.7-0.3-.4-0.3-.2-1-.2-1.6.2-0.4.3-0.3.4-0.2.4-0.5.8-0.7.7-0.4.8v0.4l0.2,0.4,0.6,0.6,1.4,1.7,0.6,0.4,0.2-.2,0.1-.3V80.4l0.3-.7,0.3-.4,0.4-.2,0.4-.1,0.9,0.1,0.3-.2,0.3-.4,0.6-.9,0.4-.1,0.4,0.2,0.1,0.5-0.1.7-0.3.6-0.5.8-0.4.6-0.3.6-0.2.4v0.5l0.2,0.4,0.6,0.6,0.2,0.4-0.3,1h0.5l0.2,0.1,1.2-.4,1.3-.6,1.4,0.7,1.3,1.2,0.8,0.6,0.7,0.4,1.1,1.4,1.2,0.5,2.9,2.4,0.4,0.6,0.2,0.7h0Zm-55.6,30.4,0.8,0.3,0.7-.2,0.3-.4-0.1-.8-0.3-.5-0.5-.4-0.5-.2-0.5.2-0.3.4-0.1.6,0.1,0.6,0.4,0.4h0Z"/><path id="_10" data-name="10" class="cls-1" d="M331.1,231.59l1.8,0.8,1.2,0.9,1.4,1.3,1.1,1.4,1.1,0.7,1.7,0.6,1.7-.1,0.7-.2,0.3-.1,0.9-1,1.5-1.3,2.3-.7h0.8l0.2,0.2v0.4l-0.5,1.2-0.1.8,0.1,2.7,0.7,1.5,0.8,1.3-1.3.6-0.4.7-0.2,1.5v0.6l0.1,0.5-0.3,3.1-0.7,4.3v1.6l0.2,0.7,0.4-.2,0.9-.2,1.2-.1,0.4,0.1,0.3,0.2,0.4,0.3,0.5,0.7,0.2,0.3v0.4l-0.1.4-0.5.7-0.2.5-0.2,1.4-0.1.6-0.1,1.2,0.1,0.5,0.3,0.3,1.5,0.3h0.6l0.5-.3,0.5-.8,0.4-.4,0.9-.8,0.3-.1,0.8-.1h0.3l0.4,0.2,0.2,0.5,0.2,0.7v0.6l-0.3.8,0.1,0.4,0.6,0.7,0.3,0.5,0.1,0.4-0.1.5-0.2.4-0.1.8-0.1,1.2-0.4,1.1-0.5.7-0.2.4-0.9,1.4-0.1.4,0.1,0.3,0.6,0.6,0.7,0.5,0.4,0.3,1.6,2.1,0.9,1,0.7,0.6,0.3,0.4,0.7,0.4,0.8,0.2,0.3,0.2,0.6,1.1,1.4,1.6,0.4,0.6,0.6,0.7,1.2,1-2.1,1.2-2.9.4-1.2-1.6-0.6-.4-0.7.7-0.1.5v1.2l-0.1.5-0.2.5-0.8.7-1.7,1h-3l-3.3-1.1-0.8.3-0.4,1.3-0.3,2.2v0.4l0.3,0.7,0.1,0.4-0.1.5-1,1.9-1.2,1.3-0.6.5-1.5.3-1.1-.7-2.1-2.2-1.1-.3-1.1.3-2,1.2,0.2,0.2,1.3,2.1v0.6l-0.5,1.1-0.6.7-0.5.2h-1.4l-2,1.1-3.4-3.1-1.9-.4-0.8,1.4-1.3.9-3,1.2-0.7-1.5-2,2.5-0.8.1-0.4-.3-0.4-3.4-3,2.5-2.3,3-1.2-1.5-0.2-.1h-1.4l-0.4-.4-0.8-1.3-0.8-.5-1.9-.1-0.9-.9-0.2-.8-0.1-3.1-2.3,1.2-7-.6-0.3.3-0.4.7-0.4.1-0.5-.1-0.4-.3-0.2-.8-0.3-.4-3.3-.9-0.9,1.2-3.9-.8-0.4-.5-1-2.3,1.7-2.2,0.4-1.4-0.3-1.5-0.9-.7-0.9-2.1-0.7-.6H282l-1.7.3h-0.7l-7.1-3.1-0.8,1.3,1.4,0.8,0.3,0.3,0.2,0.4,0.1,0.4v0.4l-0.8,3.1-0.3.3-0.3.2-0.9-.2-0.2-1.2,0.2-2.6-1.1-.2-0.9.3-1.9,1.1-0.1.1-0.3.9,0.1,0.4,0.5,0.6,0.1,0.4-0.2.3-2,2.7-2.1-.2-2.2-2.8-0.8-.6-0.4-.7-0.2-1.2v-1.3l0.2-.8,0.4-.8,0.2-1.3V280l-0.3-.5-1.9-.5-0.9-.5-0.7-.6-0.4-1.2-0.4-.5-1.5-.8-0.7-.7-1.3-1.8-0.8-.7-1.5-4-0.4-1,9.6,0.5,0.6-.2,0.7-.3,0.9-.2,1.7,0.1,0.8-.3,0.9,0.6,1.4,0.1,6.5-.8,0.7-.3,0.5-1.2-0.2-.8v-0.6l0.2-.5,0.6-1,0.1-.5v-0.5l-0.2-.5-0.1-.7,0.3-.7,0.4-.3,1-.5,0.4-.2,1.1-1.7,0.2-.6v-0.9l0.1-.8-0.1-.6-0.1-.3,0.2-.3,0.4-.3,0.1-.2,0.3-1.5,0.2-.5-0.1-.6,0.2-.6,0.8-1.3-1.8-3.2-1-1.3-0.6-1-0.5-.4-0.5-.2-1.1-.1-0.6-.2-0.5-.8-0.3-2-0.4-.8,0.4-.7,0.4-1.3,0.4-.6,0.8-.3,1.9-1.3,0.9-.1h1.7l0.8-.6,0.2-.3v-0.5l0.5,0.4,0.8,1,0.5,0.3,0.4,0.2,0.5,0.1h0.4l0.5-.2h0.4l0.3,0.1,0.8,0.1,1.5-.8h0.4l0.8,0.5h0.4l0.5-.2,0.4-.3,0.6-.2,3.1-.6,0.7-.2,0.3-.3,0.3-.4,0.1-.3,0.1-.5-0.3-.8V230l0.5-.7,1.4-1.1,0.4-.2,0.9-.3,0.3-.2,1.7-.6,0.9-1,0.4-.3,0.4-.2,1.4-.2,0.4-.3,0.4-.8,0.2-.4,0.7-.7,0.4-.2,0.8-.2,0.6-.1,0.6-.3,1.5-1.1,0.4-.3H309l0.8,0.1,1.5,1,0.5,0.4,0.7,0.8,0.4,0.2,0.8,0.2,0.1,0.7,0.4,0.4,0.5,0.3,1,0.3,0.2,0.3v0.2l-0.2.4-0.1.3-0.3.4-0.2.7-0.1.2-0.3.2,0.1,0.3,0.6,0.3,1.6,0.6,1,0.6,0.6,0.5,0.3,0.4,0.6,0.5,1.6,0.8,1.2,0.5h0.6l0.4-.2,0.3-.3,0.2-.4,0.2-.9,0.2-.3,0.7-.5,1.4-.4,1-.5,0.4-.1,0.4,0.1,0.4,0.6,0.2,0.4v0.5l-0.1.4-0.4.7,0.1,0.3,0.3,0.3,0.9,0.1,1.6-.6h0Z"/><path id="_11" data-name="11" class="cls-1" d="M357,418.69l2,2.7,0.6,1.7-0.2,1.7-0.8,1.5-1.1,1.3-1.3.7-1.5.1-3-2.5-1.3.1-0.6.4-1.3,1.4-0.3.8,0.4,1.1,1.5,1.9-0.1,1.2-0.9,1.2-0.8,3.4-0.7,1-1.3.8-2.7.9-0.4.4-0.8,1.5-0.5.6-1.2.7-3.7,1.2-0.4.3-0.2.7,0.3,0.7,0.7,0.5L338,447h0.9l1.7-1,1.6-.6,1.6-.1,0.6,0.3,0.5,0.6,1.1,2.3,1.6,1.8,0.9,2.1,0.6,3.9,1.9-.7,1.1,2.2-0.6.5-0.3.3-0.8.3,0.1,0.4,0.2,0.5-0.5.7-1.5,2.7-0.2.6-0.2,2.6h-0.9l-0.3-1.2-0.7-.5-1.1-.4h-0.8l-0.2.5-0.4.5-0.2.7v0.7l0.3,0.8-0.2.4,0.1,0.8,0.3,0.5,0.1,0.5-0.1.6-0.6.7-1,.3-4.4,1.6-0.6.5-1.4.4-0.8-1.7-1.9-1-0.7-.7-1.1.4-0.9-.3-0.9-.5-1.9-.6-0.6-.6-1-1.4-2.9-2.8-0.8-.6h-1l-2,.4-2.4-.7-1.1-1.5-0.9-1.9-1-1.6-2.4-1.3-0.3-.8-0.1-.9-0.3-1-0.4-1-1.5-1.7-1.1-2.4-0.6-1.7-1-1.9-1-.8-0.4-.5,0.6-.2h0.3l1.5,1.3,0.3,0.5-0.2.5,0.3,0.5,0.7,0.8,0.6-.1,0.3-.3,0.5-.8,0.9-1-0.3-.1-0.9.3L309,446l-0.3-.8,0.3-1.7-0.4-1.1-2.2-2-0.5-.3-3-.2-0.8-.2-0.6-.7-0.6-2.2-0.4-1-0.7-1.1-0.2-1,0.2-1,0.8-.9,0.8-.4,1.7-.6,0.6-.5,0.4-1.3-0.4-2.3,0.3-1.3,1.5-1.3,3.2,0.2,3.3,0.9,2.3,1.6,5.9,0.8,1.4-.5,2.2,0.6,0.5-1.9,0.6-1.2,1-.8,1.7-.5,3.9,0.1,1.1-1.9,1.1-.7,1.1,0.4,2.5,2,0.9,0.1,1-.3,0.9-.7,0.8-.9,0.5-1.1,0.1-.7-0.2-2,0.1-.6,0.2-.3,0.8-.3H343l0.6,0.1,0.5,0.4,0.3,0.6-0.1,1-0.8,1.7v1l0.5,0.6,0.5-.2,4.9-3.6,0.3-.1,0.5,0.3,2,3.1,0.6,0.4h0.8l1-.5,0.9-.7,1.5-1.8h0Z"/><path id="_39" data-name="39" class="cls-1" d="M440.2,57l-1.4.7-0.3-.3V55l0.8,0.3,0.8,1.1,0.1,0.6h0Zm5.1-8.1,0.1,2.2-0.2.6-0.3.4-1.9,1-0.4-.1-1-.3-1.2.1-2.7-.2-0.6.3-0.5.5-3.7,2.7-0.5.6-0.1.5,0.1,0.5,0.1,0.9v0.8l0.3,0.9,0.3,1.3,0.1,0.7-1.2.1-1.3-.1h-0.9l-0.8-.2-1.2-.5-1.2-.4-1.4-.2-0.3-.2-0.7-.5-0.4-.2-0.5.1-0.6.4-0.9.9L420.7,63l-0.7.7-0.5.4-0.8.5-0.7.6-0.4.2-0.4.1-1.2-.1h-0.5l-0.4.1-0.3.2v1.1l-0.1.6-0.6.6-0.4.2-0.7.2-0.7.5-0.9,1-0.8.5-0.4.2-0.4.3-0.4.7-1,2.9-0.1.9,0.2,0.4,0.3,0.4,0.4,0.3,0.4,0.2h0.5l0.8-.3,1.1-.7,0.3-.3,0.4-.8,0.2-.3,0.8-.3,0.4,0.2,0.3,0.2,0.5,0.8,0.1,0.4-0.2.5-1.3.8-1.3.1-0.1.6-0.3.2-0.1.3,0.2,0.7v0.5l0.2,0.3,0.3,0.3h0.4l0.3-.3,0.7-1,0.5-.2h0.5l0.4,0.2,0.1,0.4,0.1,0.5-0.1.6,0.1,0.5,0.5,1-0.1.8-0.2.3-0.4.3h-1.6l-0.7.2-1.6,1.4-0.5.3-0.9.2-0.7.2-1.5-.5,0.1-1-0.1-1.7-0.1-.5-0.4.1-0.4.3-1.2,2.8-1.7.4-0.5-.8-0.2-.3-0.4-.3-0.5-.1-1.1-.1-0.6-.2-0.8-.8-0.3-.3-0.1-.4,0.1-.3,0.3-.2,0.8-.3H401l0.4-.2,0.3-.3,0.1-.4-0.1-.4-0.3-.4-0.4-.2-1.1.3-0.4.3-0.5.5-0.6.1-0.3-.2-0.2-.2-0.2-.6-0.1-1.2-0.1-.5-0.1-.8-0.2-.9-0.1-.8V74.3l-0.1-.4-0.6-.5-4.5-1.6-0.7-.5-0.2-.4-0.2-.6-0.9-1.5-0.4-.3-1.1-.5-0.5-.2h-0.8l-0.8.5-0.4.2h-0.6l-0.6.1-1.5.8-0.6.1-1.6-.2-1.7.4h-2.2l-0.7.2h-1l-0.3-1.5-0.2-.4-0.9-.9-0.5-1-1.8-1-0.4-.3-0.3-.5-0.3-1-0.1-.6,0.2-3.3,0.5,0.1,1.3-.2,0.9-.3,0.8,0.2h0.4l0.4-.3,0.3-.7,0.1-.5V57.2l0.2-.8-0.1-.9,0.1-.4,0.2-.3,0.6-.3,0.4-.2h0.5l0.8,0.1,1-.1,0.6-.4,0.5-.7,0.7-.4,0.4-.1,0.5,0.1,0.8,0.2,0.3,0.2,0.2,0.7,0.3,0.2,0.4-.1,0.3-.3,0.3-.3,0.1-.6,0.1-.5-0.2-.9-0.4-1.1-0.2-.3-0.1-.3,0.2-.4,0.5-1,0.4-.8V46.3l0.2,0.1,1.2,1.1,0.9-.9,1.3-.2,1.2,0.3,0.9,0.8h0.3l0.4-.8,0.4-.2,2.1,0.3,5.5-.6,1.2-1,2.8-.9,1.1-.1h2l0.2-.2,0.1-.6,0.4-.1,0.3,0.1,1.1,0.8,0.2-.3,0.4-.1,0.1-.1-0.4-.4V42.9l1.5-1.1,0.8-.3,0.7,0.2,0.6-.4,0.3,0.4,1.3-.8,1.4-.3,1.3,0.2,1.2,0.9-1.9.8-0.8.6-0.6.7,0.4,0.5,0.5,0.3-0.4.1,0.1,0.3H416l0.7-.4,0.3-.3,0.6-.8,0.2-.2,0.4,0.1,0.4,0.6,0.4,0.2,0.2-.3-0.1-.5-0.3-.6-0.3-.3V42.1l0.6,0.1,0.6,0.3,0.1-.3,0.2-.1-0.3-.4,0.5-.2,1.3-.1L422,41l0.4-.4,0.5-.2,3.4-1.1,1.1,0.1v1l0.7,0.1,0.6,0.4,0.5,0.5,0.4,0.3,3.1,0.5,0.2,0.2,0.2,0.7-0.1.6-0.8.1-0.6-.5-0.4-.1-0.4.7-0.3.3-0.7.4,0.9,0.2,0.5,0.7,0.4,0.3,0.6-1.2,0.5,0.8h0.6l1.3-.4,0.7,0.1,2.1,0.8,2.7,0.4,2,0.7,0.6,0.1,0.5,0.3,1,1.2,1.1,0.3h0Z"/><path id="_12" data-name="12" class="cls-1" d="M592.7,206.09l1.2,0.3,0.9-.2,0.2,0.2,0.4,0.9,0.5,0.5,0.9,0.3,0.6,0.3,0.4,0.5-0.1.4-0.4.8v0.5l0.4,0.9,0.4,0.4,1,0.6,3.1,1.1,1.4,0.7,0.5,0.4,0.3,0.4v0.4l0.2,0.5,0.3,0.4,0.4,0.4,2.8,1.1,0.2,0.2-1,2.5-0.8,1.1-0.8.8-0.6,1-0.3,1.5-1.1,1.2-3.1,6-0.5.6-1.2,1-0.6.6-1.5,2.1-2.6,2.3-2.7,5.3-1.2,1.3-2.3,1.5-1.1,1.6-2,4.2-1.1,1.7-2.8,3.1-4.6,7.7-3.4-2.1-1.6-2.1-1.7-.6-1.5.9-1.3,2.1-1,1-1.1.3-0.9-.3-2.5-3.9-1.6.9-0.7,1.2-0.7.5-0.8.3-0.7-.1-0.5-.6v-0.5l0.1-.6v-0.8l-0.5-2.6-1.6-.9-0.9,2-1.1-.2-1.7-2.8-0.7-.5-0.3-.6-0.5-.6-0.7-.5-0.4-.7-0.1-.8v-0.4l-0.1-.3,0.1-1.3,0.2-.4,0.3-.4,1-.6,0.5-.1,0.7-.5,0.4-.4,0.2-.6,0.2-.9,0.1-.3,0.3-.1,0.4,0.1H553l1.7-.3,3.1-1.5,0.1-.4-0.3-1.2,0.1-.5,0.2-.4,0.7-.8,0.6-.4,0.4-.6,0.2-.5,0.1-.9,0.5-.9,0.2-.9v-1.6l0.1-.4,0.2-.3h0.5l0.8,0.4,0.6,0.1h0.6l0.8-.2,0.8-.1,0.4-.1,1.7-.8,0.3-.3,0.3-.4,0.1-.6-0.2-.9,0.1-.3,1-.8,0.5-.5,0.7-1.2,0.5-.5,1.7-1.1,0.3-.4v-0.6l-0.2-.4-0.2-.4-0.6-.7-0.3-.3-0.6-.5-0.3-.3L570,223l0.3-.4,0.4-.5,2.1-.8,0.2-.2v-0.4l-0.4-1.1-0.7-.4v-0.8l0.2-.8v-0.8l-0.2-.8-0.1-.8,0.2-.9v-0.8l-0.3-.2h-0.3l-0.8.2-0.7-.1-0.4-.3h-0.3l-0.7-.4-0.2-.3,0.1-1.3-0.1-.4v-0.4l0.4-.4,0.5-.3,0.5-.1,0.8,0.1,0.7,0.5h0.4l0.5-.3,0.3-.3,2.3-1.3,0.2-.3V207l0.1-.9,0.2-.8,0.4-.8,0.8-1,0.5-.2h0.8l0.6,0.3,0.4,0.3,0.4,0.3,0.6,0.6,2.1,1.3,1.1,0.3,2.2-.2,0.8,0.2,0.3,0.4,0.1,0.4,0.1,0.8,0.3,0.1,0.4,0.1,0.5-.4,0.3-.3,0.8-.5,0.5-.2,0.6-.1,1.7-.1,1.2-.5h0Z"/><path id="_51" data-name="51" class="cls-1" d="M348.2,482.49l-1-.9-0.7-1-0.5-1.1-0.4-1.2,0.6-.1h0.9l1,0.6,0.7,0.6,0.8,0.2,1.2-.6-0.4,1.1-2,1.6-0.2.8h0Z"/><path id="_13" data-name="13" class="cls-1" d="M365.8,283.79l2-7.2,1.1-2,0.5-.2,3.9,2.1,0.9,1,0.4,0.6,0.2,0.8-1.1,2.5,0.6,0.9-0.6.8-0.5.2-1.6.5-1,.5-0.3.1-0.6.2-1.1.6-2.8-1.4h0Zm89.3-4.6,1,2.4,1.7,2.3-1.2,1.3,0.6,0.9,2.3-.2,1.9-2.4,2.1,4.5,0.8,2.9-5.3,7.7,1.5,2.8,0.1,0.9v0.9l-3.2,6.2-0.2.8,0.6,1.1,1,0.3,2.1-.1,1.7,1.5,0.5,4,0.8,1.2,2.2,0.8,1.4,1.9,0.3,1v1l-1.1,3.3-0.5.8-2.1.6-0.6.5-0.4.6-0.7,1.8,0.8,1.5-0.4.8-0.5.5-0.1.2-0.9.8-2.4,1.3-0.7.6-0.1.3-0.7.4h-0.2l-0.9-.6-0.9-.3-0.6.1h-0.6l-0.7.4-0.9.6-0.3.3-0.1,1.1-0.2.2-0.4-.3-0.6-.7-1-1.5-0.3-.3-0.4-.2h-0.4l-1.2.8-0.7.6-0.4.2-0.7.1-1.5-.5-3-.1-0.9-.2-0.8-.3-0.8-.4-0.5-.2h-0.7l-1,.1-0.7.4-0.4.4-0.1.4-0.2.8-0.2.4-0.6.7-1.1.6-1.1.5-0.6.1h-0.5l-0.7-.1-1.5-.4-0.3-.2-0.2-.4-0.2-.8-0.1-.3-0.3-.3-0.4-.1-0.6.1-0.5.3-0.1.4-0.2,1.3-0.2.3-0.3.2-0.5.2h-0.6l-2.3-.6-0.9-.1-1.1-.5h-0.4l-0.6.2-0.8-.2-0.4-.2-0.5-.1-0.7.1-0.6.2-0.7.4-0.3.4-0.4.9-0.9.4-1.5.2-12.6-.5-1.7-.6-0.9-.1h-0.9l-0.4.1-0.3.4-0.1.3v2.1l-0.7.2-0.5-.1-2.9-1.2-0.6-.1-1.1-.4-2-.9-0.4-.3-0.4-.5-0.9-1.2-1.3-1.4-1.1-1-0.7-.3-0.5-.5-0.6-.1h-0.4l-0.4-.2-0.4-.2-0.4-.5-0.2-.5-0.4-.5-1.5-1.3-0.8-.3-0.8-.5-0.2-.3-0.3-.4-0.6-.4-1.8-.9-0.6-.1-0.9-.1-0.5-.1-0.7-.2-0.9-.6-0.5-.6-0.2-.6-0.1-1.3-0.1-.9-0.2-.4-0.4-.2h-1.3l-0.5.1h-1l-1.4-.6-2.6-2,0.7-.3,1-.1,0.3-.2,0.5-.6,0.4-1.1,1.1-4,0.2-.5,0.6-1.3,0.7-.6,0.4-.3,0.8-.1,1.2,0.1h0.3l0.3-.3,0.2-1.3,0.2-.8-0.2-.6-0.3-.4-1.1-.1-0.3-.2-1.6-.5-0.3-.2-0.3-.8-0.1-1.3L366,306l-0.2-.3-0.1-.9-0.3-.8v-0.4l0.3-.3,0.4-.1,0.8,0.2,1.1,0.7,0.8,0.3,0.4-.1,0.4-.1,1.1-.7,0.1-.4-0.1-.5-0.3-.3-0.8-.4-0.2-.3-0.2-.6v-0.8l0.5-2.4,0.2-.7,0.2-.3,0.3-.3,0.7-.7,0.5-.7,0.3-.2h0.4l0.7,0.2h0.9l0.7-.2,0.8,0.1,0.7,0.4,1.6,0.8,0.8,0.1-0.6-1-1.2-1.5-0.5-.4-0.3-.7-0.8-1.4-0.8-2.1-0.2-.5v-0.6l0.3-.4,0.4-.2,0.5-.1,0.4-.3,0.4-.6,0.7-1.9,0.7-1.3,0.1-1-0.6-1.8,3.3-.3,0.2-.9,0.6-.7,0.7-.6,0.7-.3,0.2-1.4,0.4-1,0.7-.5H385l0.5,2.6L386,278l0.6,0.4,0.5,0.1,0.6-.3,0.4-.8,0.3-.2,0.3-.1,8.2,1.7,2.2-1.1,1.5-4.5,1.6,0.7,3.6-.7,0.1,0.5,0.1,1.2-0.2.4-0.4.5-0.6.2-0.5.3-0.1.7,0.1,0.4,0.6,0.7,0.1,0.4v0.6l-0.2.5-0.7.7-1.7-.2-0.4,2.7-0.7,1.8-0.1.6,0.3,0.5,1,0.8,0.5,0.1,0.3-.1,1.1-1.2,4.5,0.8,0.2,3.1,2.9,1,1.2,1,1.5,0.2,1.2-1.4,0.7-.5,0.8-.1,2,1.4H420l1.9-1.4,4.1-.8,1.4,0.5,3.5-2.5,0.3-1.7,3.1-1.9,2.5,0.1,0.7-.4,0.4-.7,0.6-2.3,0.5-.4,4.8-.2v-0.8l1.9-.5,3.2,2.6,2.1-.3,2,0.7,2.1-1.6h0Z"/><path id="_14" data-name="14" class="cls-1" d="M395.5,343.09l1.4,0.7,0.1,0.1,1.2,2.7-0.1,1.9,0.3,1.2,0.5,1.1,1.3,2v2.4l-1.1.6-2.5,3.7-0.2.5-0.2,1.5-0.2.4-0.9.8,1,2.3-1,8.1,0.2,0.6,0.5,0.6,1.1,0.6,0.5,0.7,0.2,2.4,0.3,0.9,1.5,0.6L400,380l0.1,1-0.3.6-1.4,1.5-0.2.9,0.4,0.3,1,0.4,1.2,2,2,2.2,0.7,2.2,0.3,0.7,2.2,1.7,1.6,3-3.3-.1-0.8.4-1.9,2.2-0.8.5-0.8.1-1.6-.3-0.4.1-0.3.4-0.5.9v1.7l-1.2,2,0.4,1.7-2.9,2.4-0.3-.9-2-.7-0.5-3.4h-2.8l-1.5,2.1-2.6,1.5-2.6-.5-0.7-1.9h-1.8l-0.2-1.2-0.6-1.2-0.3-2.4-0.6-.7-0.8-.4-2.4,1.8-0.9-.1-1.7-1.5-1.2-3-1.6-1.5-0.1-1.4-0.9-1.8-1.6-1.4,0.4-1,0.3-2.6-0.2-1-0.2-.3-0.6-.4-0.2-.2-0.1-.5,0.1-.7v-0.5l-0.5-1.2-0.7-1.1-0.9-.8-1.1-.4-1.1.2-2.3.9-0.8,1.2-0.3.3-1,.2-1.2-.2-0.5-.3-3.8,2.6-3,.8-1.6-.1-1-1.1-0.5-2.4,1-1.3,3.5-.1,0.1-4.2-1.1-.7-0.3-.4-0.2-.7-0.2-1.4-0.4-.6-1.5-.9-0.5-.5-0.4-1.1-0.1-2.4-0.3-.7-2.5-2.3-0.8-3.5-3.8-4.1,0.1-1.1,1.9-1.5,0.2-.3v-0.7l0.1-.8,0.2-.4,0.3-.4,0.1-.8-0.1-1.3-0.1-.4v-0.8l-0.5-1-0.3-.9-0.2-.6-0.3-.6-0.6-.6-0.1-.2,0.1-.9,0.2-.9-0.1-.6-0.1-.2-0.4-.5-0.1-.2v-0.6l0.3-1.2,0.3-.4,0.6-.4,1.9-1.1,0.8-.3,0.3-.3,0.5-.7,0.2-.4,0.7-.6,1.3-.9,0.4-.5,0.1-.4,0.1-.4,0.3-.6,0.9-1.3,0.8-.7,0.5-.1h0.9l0.6,0.1,0.4-.1,0.2-.5,0.2-.5,0.4-.5,1.5-1.2,2-1.4,1.3-.4,0.2-.3,0.4-1.3-0.1-.4-0.1-.4,0.1-.3,0.5-.3,3.5-.1,0.7-.3,1.2-.2,2.6,2,1.4,0.6h1l0.5-.1h1.3l0.4,0.2,0.2,0.4,0.1,0.9,0.1,1.3,0.2,0.6,0.5,0.6,0.9,0.6,0.7,0.2,0.5,0.1,0.9,0.1,0.6,0.1,1.8,0.9,0.6,0.4,0.3,0.4,0.2,0.3,0.8,0.5,0.8,0.3,1.5,1.3,0.4,0.5,0.2,0.5,0.4,0.5,0.4,0.2,0.4,0.2h0.4l0.6,0.1,0.5,0.5,0.7,0.3,1.1,1,1.3,1.4,0.9,1.2,0.4,0.5,0.4,0.3,2,0.9,1.1,0.4,0.6,0.1,2.9,1.2,0.5,0.1,0.7-.2h0Z"/><path id="_16" data-name="16" class="cls-1" d="M504.9,225.39l1.3,0.5,0.7,0.8,1.9,2.5L509,230v0.7l-0.2.5v0.7l0.3,0.1,0.6-.4,0.6,0.1,1.1,0.6,4.7,4.5,0.6,0.4,0.4,0.2,0.6-.4h0.4l0.7,0.2,0.6,0.3h0.5l1.1-.2,0.2,0.3,0.1,0.7v0.5l-0.2.7-0.3.5-0.1,1.1,0.5,0.6,1,0.7,0.2,0.2,0.3,1.2,1.2,3.6,0.4,0.4,0.5,0.1h0.4l2.8,0.5,1.2,0.4,0.7,0.1,0.5-.2,0.4-.1,0.8-.1,0.8-.1,0.3-.2,0.8-.1,0.8,2.2-0.6.5-1.7.8-0.3.3-0.1.4v0.3l0.3,0.5,0.1,0.4v0.4l-0.1.9-0.1.9-0.1.9-0.6,3-0.4.9-0.3.5-0.5.7-1,1.9-0.2.5,0.1,0.9,0.1,0.9v0.5l-0.4.8-0.7.4-0.5.1h-0.8L525,267h-0.8l-0.4.2-0.8.7-1,1-0.2.3-1.6,3.2-0.5.7-0.5.4-0.4.2-0.2.2-0.2.6-0.1.5,0.2,0.5-0.1.8v1.1l0.2,0.4-0.3.3-0.1.2,0.1,0.7-0.3.9-0.3.5,0.1,0.6,0.1,0.2,0.3,0.4,0.3,0.5-10.6,5.8-1.3,2.3-3.4-.3-1.8-1.1-4.6.6-1.7-2.5,0.3-.8-3.1-.4,1.9,5.3-5.3-.8-5.3,3.1-1.5-3.3-1.2.3-1.1,2.6-6.1-6.2-0.8.8h-1.7l-2.3-.7-1.9,1-3.5.2-2.1-4.5-1.9,2.4-2.3.2-0.6-.9,1.2-1.3-1.7-2.3-1-2.4,0.2-7.5,0.8-2.3-4.1-4.6-0.7-2.5-1.1-1.3-0.8-2.9-1.6-1.8-1.3-.5,1.2-3.2v-3.1l-2,.1-1.2-3.7,0.3-1,2.2-.1,0.9-.3,0.6-.6,0.5-.4,0.2-.5,0.1-.4-0.2-.4-0.3-.3-0.3-.8-0.3-.8v-0.6l0.1-.2,0.5,0.1,0.4-.7,2.2,0.8-0.3-2.2,1-.9,2.3,2.3,1.5,0.7,0.5-.1,0.4-.3,0.3-.5,0.5-1.2,0.4-.3,1.8-.3,0.4-.4,0.6-3.3-0.6-3.4,0.4-4.7,1.6-.9,2.1,1.4,1.9-2.1,2.4-1.1h1.1l1.2,0.3,2.7,1.6h0.3l0.2-.3,0.1-.3-0.1-.7-0.3-.5-0.8-.6-0.4-.5V221l0.3-1v-0.3l-0.7-1-0.2-.6,0.2-.6,0.2-.2,0.6-.2,1.2,1.6,0.5,0.2,2.5-1.3,1.5,0.4,0.3-.2,0.2-.5-0.1-.6-1.2-1.7v-0.6l0.1-.5,0.3-.5,0.3-.2h0.5l1,0.6,1.6,1.6h0.5l0.5-.3,0.4-.4,0.3-.6,0.1-.7-0.1-1.6,0.2-.6,0.6-.1,1.3,0.8,1.5,0.5h0.7l0.8-.3,0.4-.3,0.2-.4,0.3-1,0.5-.1,2.7,1.1,2.4,2.4,1.7,0.7h0.4l1.2-.7,0.7,0.1,0.5,0.3,1.7,3.5,1.5,6.1,2.2,1.6h0Z"/><path id="_17" data-name="17" class="cls-1" d="M673.1,104.59l-1.1-.1-0.6-.5-0.1-.7,0.5-1.1,0.5-.2,0.5,0.6,0.4,1,0.5,0.9-0.6.1h0Zm35.2,47.6-0.8-1.7-0.1-.5,0.2-.3,0.4-.5,0.1-.3-0.3-1.2-0.9-.9-2-.8h-0.8l-0.7.1-1.4.9-4,.8-4.9-5-1.8-.1-1.1.4h-0.4l-0.7-.6-0.7-1-0.5-1.2-0.2-1.2,0.5-.8,0.3-.5,0.2-.1,2,1,0.5-.1,1.4-.9,0.8,0.1,0.9-1.4v-0.6l-0.5-.7-0.3-.3-0.3-.3,0.1-.4,2.2-2.5,0.4-.8,0.1-1.3-0.3-1.2-0.7-1-0.9-.6h-1.7l-0.7-.5-1.7-2.4-1.7.5h-0.9l-0.6-.6-0.3-.9-0.3-.3-2.2.1-0.5.2-0.5.5-0.2.1h-2l-1.3.5-0.2-.1-1.2-.9-0.3-.1-0.8.1h-0.3l-0.3-.4-0.2-.6V120l-0.2-.7-0.2-.4-0.9-1.2-0.1-.2,0.3-1.5,0.6-.8,0.1-.4v-0.7l-0.2-.6-0.5-.3h-0.6l-1.3.3-0.6-.1-1.6-1.1-1.1-.3-3.1.7-0.4-1.2,0.2-1-0.1-.4-0.1-.5-0.8-1-0.2-.5v-1.8l-0.2-.3-2.8-1.1-0.7-.6-0.4-.9-0.2-.9-0.1-1,0.8,0.3,2.8,0.4,0.9,0.4,2.5,1.7,1,0.2,0.9,0.1,0.6,0.3,0.6,1,0.6,2.2,0.4,1,0.9,0.7,0.6,0.4,0.6,0.1,1.1-.1,0.7-.2,0.6-.4,0.7-.8,1.1-.8,0.2-.3,0.3-.9,0.2-.3,0.7-.4,2.1,0.3,2.8-.9,1.4-.1,1.2,0.7,0.5,0.4,2.6,1.3,1.4,0.3h0.7l0.3,1,0.7,0.9,0.9,0.7,0.8,0.2,0.9,0.5,0.5,0.2h0.5l0.2-.3,0.4-1,0.4-.3h0.8l2.1,0.7,0.9,0.1h1.2v-0.3l-0.5-.6-0.4-1.2,0.3-.5,1.9-1.5,0.8-.4h0.9l1.7,0.2,0.9-.1,0.7-.5,1.4-1.3,0.7-.4,0.7-.1,0.8,0.1,0.7-.2,1.5-1.1,1.4,0.5,0.8-.5,0.4,0.1,1.3,0.1,0.3,0.1,0.3,0.6,0.3,0.6,0.5,0.4,0.5,0.4,0.9,0.3,1.2,0.1,1.1-.1,1.9-.3-0.1.8-0.3,1.3,0.1,1v1l0.6,0.8,0.8,0.6,0.9-.1,1.1-.1,0.6,0.9h0.3l0.4-.5,0.6,0.1,1.1,0.7-1.1,2.1-0.1.6-0.2.9-0.3.5-0.4.3-0.3.6-0.7-.3-1.7.3-1.4-.6-0.3-.6-0.9.2-0.9,1-0.5,1.3-0.1,3.6,0.2,1.1,0.8,0.7,1.5,1,0.8,1.1,1,1.5v0.7l-0.6.6-0.2.8L727,130l0.3,1.3v0.4l0.2,0.3,0.8,0.7,0.3,0.4-0.2,1.2-1.1,1.9-0.6,1.5-0.7.8-1.2,1.8-1.5-.1-1.7,1.2-0.4,1.7-1.3.7-4,3.1-0.8,1.3-1.4.4-2.2.5-0.7.3-0.7.6-0.3.7-0.4.1h-0.5l-0.6,1.4h0Z"/><path id="_18" data-name="18" class="cls-1" d="M481.4,361.49l1.5,1.1,0.3,0.3,0.7,1.3,0.9,1.4,1.3,1.5,1,0.6-2.8,1.9-0.4.4-0.2.6-0.2,2.4,0.3,3.2-0.2,1-1.1,1.8-0.4.9,0.3,4.3-2.7.5,0.8,5.1-5.9,1.8-6.7,6-0.3.8-0.2,3.1-0.1.4-0.4.8v0.4l0.2,4-2.2-1-2.1-.1-0.6-.3-1.1-1.5-0.4-.2-1.4-.3-0.5.1-0.3.2-0.3.4-1.1,4.5-0.4.5-1,.4-0.5.4-0.3.7-0.4,1.7-0.4.7-0.4.2-1.6.1-0.6.6-0.2.8,0.3,1.9,0.7,2,0.1,0.8-0.2.8-3.2,3.1-0.2.7,0.3,0.5,0.6,0.4,0.4,0.4,0.6,1.9-4.9,3.2,0.5,2.3-1.2.1-3.2-.6-4.5.6-0.7.4-0.6.6-0.9.7-1.6,1h-2.8l-1.7-1.4-0.9.1-0.6.4-1.6-.8-0.6-.9-1.4.1-1.5.1-0.6.6-2.3.2-2-.6-0.3-1.6,0.7-2.1-2.7-3-2.1.2-12.1-5.3-5-4.2-0.5-.8-0.4-1-0.3-3.6-1.4-3.7,2.9-2.4-0.4-1.7,1.2-2v-1.7l0.5-.9,0.3-.4,0.4-.1,1.6,0.3,0.8-.1,0.8-.5,1.9-2.2,0.8-.4,3.3,0.1,2.3,1.3,4.8-.4,2.2-4.5,4.8-2.9,2.5-.6,5.3-4.7,0.7-.2,1.1,0.6,1.9,2.1,1.1,0.2,3.7-.7,0.8-.6,1-1.6,1.1-.9,1.2-.4,1.6,0.2,4.3,2.2,0.9-.6,0.8-.3h0.9l2.2,0.6,0.3-1.7,3.3-1.9v-4.6l0.5-1.5,4.6-7.7,3.8-3.4h0.4l0.2,0.1,0.7,0.5,3.2-2.5-0.1-3.1,2.4-1.1,3.6,1.8,4.7,1.4h0.4l0.6-.1h0Z"/><path id="_19" data-name="19" class="cls-1" d="M494,181.49l3.6-1.2,1.2,0.4,0.3,0.4,0.4,0.4,0.6,0.4,1.1,0.5,1.8,1.4,1.5,0.8,2.2,1.9,0.5,0.8,0.1,0.4,0.3,0.4,0.6,0.7,2.4,2.1,0.3,0.4,0.4,0.4,0.3,0.4,1.5,1.4,0.6,1.1-0.1.5-0.1,1.9,0.2,0.9,0.4,0.7,0.3,0.5,0.6,0.7,1.2,0.8,0.4,0.5,0.1,0.4,0.1,0.5v1.4l-0.1.6-0.4.9-0.2.5-0.1,1.1,0.2,0.5,0.3,0.5,0.3,0.8,0.1,0.6v1.2l-0.2.5-0.3.8-0.3.9V213l0.2,1.1-0.5.7-0.4.3-0.7.4h-0.8l-0.7-.5-0.7-.3h-0.4l-1.1-.3-0.3.3-0.3.3-0.7,2.2V220l-0.3.5-0.3.3-0.9.4-0.4.3-0.3.5-1.5,2.2-0.3.3-0.3.1-0.5.8-2.2-1.6-1.5-6.1-1.7-3.5-0.5-.3-0.7-.1-1.2.7h-0.4l-1.7-.7-2.4-2.4-2.7-1.1-0.5.1-0.3,1-0.2.4-0.4.3-0.8.3H487l-1.5-.5-1.3-.8-0.6.1-0.2.6,0.1,1.6-0.1.7-0.3.6-0.4.4-0.5.3h-0.5l-1.6-1.6-1-.6h-0.5l-0.3.2-0.3.5-0.1.5V215l1.2,1.7,0.1,0.6-0.2.5-0.3.2-1.5-.4-2.5,1.3-0.5-.2-1.2-1.6-0.6.2-0.2.2-0.2.6,0.2,0.6,0.7,1V220l-0.3,1v0.4l0.4,0.5,0.8,0.6,0.3,0.5,0.1,0.7-0.1.3-0.2.3h-0.3l-2.7-1.6-1.2-.3h-1.1l-2.4,1.1-1.9,2.1-2.1-1.4-1.6.9-0.4,4.7,0.6,3.4-0.6,3.3-0.4.4-1.8.3-0.4.3-0.5,1.2-0.3.5-0.4.3-0.5.1-1.5-.7-2.3-2.3-1,.9,0.3,2.2-2.2-.8-0.4.7-0.4-2.4v-1.1l-0.1-.6-0.1-.7-0.4-1-0.4-.8-0.5-.3-0.4.1-1.2.8-0.5.7-0.4.3-0.3.1-0.3-.5-0.1-.8v-0.6l0.3-1.1,0.1-1.1,0.3-.5,0.6-.6,0.2-.3,0.1-.6,0.4-1.1v-0.8l0.2-.9-0.2-.7-0.6-1.1-0.6-.5-0.5-.2-0.4-.1-0.3-.3-0.2-.4,0.1-1.6-0.1-1.7-0.1-.3-1-.9-0.6-.6-0.4-.2-0.4-.1-0.6.3-0.2.2-0.6.1-0.3-.3,0.3-.6,0.1-.3-0.3-.9-0.6-.5-0.4-.3-0.2-.4-0.2-.5v-1.6l0.3-1.2-0.3-.1-0.5.3-0.4-.1-0.4-.3-0.5-.6-0.7-1.1-0.3-.5h-0.4l-0.3.6-0.7-.1-0.6.2-0.4-.2-0.6-.6-0.1-.4,0.1-.5,0.6-.7,0.1-.4v-0.5l-0.1-.4-0.1-.8-0.1-.6-0.3-.6-0.3-.4-1.3-.4-0.3-.2-0.1-.4,0.3-.4,0.3-.6,0.3-.9,0.3-1.7,0.3-.5,0.6-.5,0.2-.3v-0.6l-0.3-.5,0.1-.5,0.3-1,0.4-.8,0.3-1.4,0.4-.9,0.3-.7,0.2-.6-0.1-.8-0.6-1.8-0.5-2-0.8-.3-1-.5-0.7-.7-0.5-.8-1.7-1.6-0.2-1.1,0.8,0.1,0.4-.1,3.4-2.6,1-.3,0.4-.1,0.1-.5,0.1-.9V176l-0.6-1.1,0.1-.1,1.2,0.5,2.3,0.1,2.1-.4,0.5-.3,1.4-.1,1.3-1.5,0.9-.5,5.1,1.2h1.6l2.9-.4,1-.2,0.7-.5,0.1-.4,0.5-.6,0.4-.2,0.5-.2,0.6,0.1,0.8,0.4,0.2,0.4,0.2,0.9,0.3,0.8,0.3,0.4,0.5,0.3,1.7,0.4h1.1l0.5-.3,0.4-.3,0.4-.2h0.5l0.6,0.1,0.3,0.4,0.5,0.8,0.5,0.2,0.8,0.3,1.1,0.1,0.7,0.4,0.6,0.7,0.4,0.2,0.8-.2,0.3,0.1,0.3,0.3-0.3.7-0.7.5-0.1.3,0.4,0.2,0.7,0.5,0.3,0.4-0.1.4-0.3.6,0.1,0.3,0.3,0.2,0.5,0.1,0.7-.3,0.5-.3,0.4-.1,0.4,0.3,0.4,0.8,0.1,0.3,0.2,0.5,1.1,0.6,0.2,0.4,0.2,0.8,0.2,0.5,0.4,0.3,0.4,0.4,1.2,0.5h0.6l1.5-.7,0.5-.2,0.5,0.2,0.4,0.2,0.8,0.5,0.6,0.1,1.1-.2,0.7-.3,0.5-.2,0.5-.5,0.6-.3,0.8-.1,1,0.1,0.8-.1,1.4-1.4,0.4-.2,0.3,0.1,0.6,0.6,1.1,0.7,0.3,0.3,0.5,0.6,0.4,0.1,0.2-.1,0.1-.4-0.1-.3-0.1-1.1,0.4-1.5v-0.9h0Z"/><path id="_20" data-name="20" class="cls-1" d="M507.5,52.89l-1.1.3-0.8.8-0.6,1.2-0.7,1.2-0.6.5-0.6.4h-0.4L502,57l-0.2.2-0.1.7-0.4.1-0.9-.4-0.1.3L500,59.2l-0.1.5,0.2,1.3,0.2,0.4V62l-0.1.7-0.6,1.2-0.5.6-0.5.4-0.6.3-2.3,1.6-0.6,1.1-0.4.8-0.1.5-0.1.5,0.1,0.4v0.5l-0.1.6-0.3.4-0.4.3-1.2.2-0.4.3-0.9,1.1-0.4.4-0.4.2h-1l-0.9.2-0.3-.1-0.8-.4-0.6.1-0.5.5-0.3.4-0.3.7-0.6,1.4h-1.3l-0.4-.3-0.8-1.4-2.1-1.3-6.5-.6-1.2-.6-0.4-.2L472,73l-0.4.1-2-1.2,0.4-1.3,0.3-.3,2.1-1,0.3-.5,0.1-.8-0.7-2.5,1.5-.3,0.5-.6,0.2-.9-0.4-2.6,0.1-.4,0.4-.1,0.3-.9-0.1-2.3,0.6-.4,0.4,0.2L476,57l1.8-2.4-1-1.3,1.5-2.5,1.8,0.9,1.8,0.5,1.8,0.2,2-.2,1.5-.4,0.5-.1,0.2,0.2,0.3,0.4,0.4,0.5,0.6,0.2,0.4-.4h0.3l0.3,0.1,0.2,0.6,0.3,0.1,1.3-1,0.5-.2,1-.2,3.1-1.1,1-.7,0.5-.2h0.7l0.5,0.4,0.3,0.6,0.4,0.3,0.6-.4-0.2-.2-0.7-.7,1.8-.8,1.6-1.5,1.6-.9,0.8,0.6-0.1.7v2l1.2,0.6,0.6,0.8,0.1,1.2,0.2,0.2h0Z"/><path id="_21" data-name="21" class="cls-1" d="M310.9,366.39l0.7,1.7,0.4-.2,1,0.1,0.3,0.2-0.8,3.3,1,2.4-1,.7-1.7-.6-0.8.3-0.6.8,0.1,2.3-0.1.5-0.3.3h-0.3l-0.5-.1-0.3-.2-0.2-.3-0.2-1-0.4-.4h-2l-6.1,1.7-0.9.5-1.5,2.7-0.9.7-0.2.4-0.2,1.4,1.1,0.6,2.8-.1,2.2,1.1-0.3,1.6,1.1,1.6,0.9,2.8,1.8,3.3,0.1,0.5-0.2.5-0.4.3-1.1.2-0.4.2-0.2.5,0.3,1.5-0.1.7-0.6.6-0.3.5,0.1,0.6,1.4,1.4,0.3,0.8v0.8l-0.6,1.5-0.1.7,0.5,3.3-0.4,1.7v1.8l-0.1.3-0.9,1.3-0.2.6v1.4l1.2,3.5-1.1,2.9,1.7,1.6-0.2.2-0.3,1.2,0.2,3.3-0.2.6-1.6.1-1.3-1.7-1.4-3.7-1-1.7-1.3-1.4-10.9-7.8-1.1-.7-1.1-.2L283,412l-1.8-1.5-1.8-.9-0.8-1.2-0.3-1.5,0.3-.7,0.5-.4,1.6-2.3,0.5-1-2.3,2.5-1.2.9h-1.4v0.3l1,1.5,0.4,1,0.1,0.6-0.6.1-3.9-1.9-3.1-1.1-1.2.6,1.2,0.1,0.6,0.3-10.7.3-0.7.3-0.9.8-0.8.1-0.7-.3-0.7-.4-0.7-2.5-0.2-1.2,0.3-.9-0.5-1.8-0.3-4.4-0.8-1.8,0.1-.6-0.1-1.2-0.3-1.4-0.3-1.1-0.2-.3-0.8-.6-0.3-.4-0.4-.6-0.2-.7-0.2-.8h-0.2l-0.1-.6,0.7-.8,0.1-.8-0.1-.4,0.4-.2,1.2-1.3,0.3-.4,0.3-.9,0.3-2.7,0.6-1.7,0.8-1.1,4.1-3.5,1.2-2.1,0.5-2,1-2.6,0.2-1v-0.6l-0.1-.5-0.1-.4,0.3-.4,1.5-.3,0.4-.3h0.6l0.6,0.2,0.5,0.1,0.6-.3,0.5-.2,0.4-.2,0.4-.6,0.5-1.2,0.4-.4,0.7,0.1,2.5,1,1.2-.1,0.3-1.4,0.5-.7,0.3-1.7,0.9-1.7,0.6-1.9,0.3-.8,0.5-1.6-0.2-.1,0.8-.6,6,2,0.2,0.4V354l-0.1.4-0.4.7-0.3.8-0.1.4,0.1,0.3,0.4,0.2L284,357l0.6,0.3,1.2,0.4h2.1l1-.2,1.5,0.2,0.6,0.1,0.6,0.3,0.6,0.5,0.9,1.2,0.2,0.8V361l0.1,0.4,0.2,0.2,2.1,0.2,1.1,0.3,0.7-.1,0.2-.5,0.9-.8,0.4-.6,0.3-.3,0.4-.1,0.5,0.1,0.5,0.1,1.8,1.3,0.3,0.6,0.4,1.2,1.1,0.3,5.8,2.4,0.8,0.7h0Z"/><path id="_22" data-name="22" class="cls-1" d="M614.5,89.29l0.5,0.4,0.9,1.6,0.6,1.7,0.3,0.5,0.4,0.3,0.4,0.2,0.9,0.2,0.5,0.3,0.2,0.5-0.2.4-0.2,1.5-0.2.5-0.4.9-0.2.5-0.2.2-0.3.9,0.1,0.7-0.2.5-0.3.2h-0.5l-0.3.2-0.1.5,0.1,0.5,0.2,0.5,0.1,0.4v0.7l0.2,0.4,0.5,0.6,0.3,0.4,0.2,0.7,0.4,1.5,0.2,2.5v1.2l-0.1.6-0.2.7v1.1l-0.1,1.1v0.4l-0.4,1.1-0.5.8-0.1.3-0.4,1.9-0.1.4-0.2,1.2,0.2,1-0.1.6-0.2,1.3-0.1.6-0.3.6-0.4.3v0.3l-0.7,2.4-0.6,1.4,0.1,0.8-0.2.7-0.4.5-0.5.2-0.6.6-0.3.6-0.5.4-0.3.1-0.4.3-0.4.3-0.4.7v0.4l0.6,0.6,0.4,0.2,0.3,0.7,0.1,2-0.2.4-0.6.7-1,.6-0.4.7-0.3.4-0.4.3-0.8.2-0.4.1-0.4.5-0.6,1-0.5.9-0.3.5-0.5.3-1.5.3-0.6.3-0.5.6-0.1.4-0.3.2-0.3.4-0.6,1-1,.9-0.7,1,0.1,0.9,0.6,1.5,0.2,1.3,0.2,0.5,0.2,0.3,0.4,0.2,1.3,0.2,0.5-.1,0.4,0.1,0.4,0.1,0.2,0.5v0.9l0.2,0.5,0.2,0.4,0.1,0.5-0.1.4-0.2.3-0.9,1.1-0.2.3-0.4.8-0.4.3-1.3.4-0.5.4-0.1.4,0.1,1.1-0.1,1.2-0.4,1.6-4.4-1.3-0.9,1.4-1.6.6-0.9-.7-1.5,1.1-1,2.1-3.9-.5-0.3-.2-0.5-.7-0.7-.5-0.8.1-1.6.5-1.5-6-0.6-1.3-1.6-1.9-0.6-2.4-0.4-.7-0.5-.6-0.5-.2h-0.5l-1.3,1.1h-0.3l-0.6-.1-2.5-2.7-1.3-.5-0.3-.3-1-2.5-0.3-.3-4.8-3.1-0.4-.5-0.2-.6-1-5.1-0.6-.9-0.7-.7-2.4-1.3-2-3.4-0.7-.6-4.8-.1-3.4-2.3-0.5-.9v-0.9l0.4-2,0.4-.8,0.5-.5,0.4-.1,0.3,0.1,0.4,0.1,0.3,0.2,0.7,1.1,0.3,0.1,0.6-.3,0.5-.6,0.4-.9,0.1-.9-0.5-9.4,0.3-.9,0.7-1,0.1-.5v-0.6l-0.4-1.9v-2.1L552,108l-0.4-.4h-1.1l-0.1.2v0.4l0.4,1.7v0.5l-1.4,3.7-0.4.5-0.4.1-0.3-.1-0.6-.4-0.4-.1-0.4.1-0.5.2-0.3.3-0.3,1.1-0.3.3h-0.6l-0.5-.2-0.3-.5,0.1-.6,3.7-5.8,0.1-.7v-0.5l-0.3-1.1-2.5-1.6-0.1-.4,0.5-1.1v-0.8l-0.3-1.4-0.4-7.1-0.8-2,0.1-.6,0.2-.2,1-.3,0.4-.3,0.2-.6-0.1-.6-1.2-1.1-0.1-.5,0.4-1.6,0.3-.8,0.3-.2,0.5-.3,0.5-.4,0.5-1,0.2-1.8V81l0.1-.5,0.1-.5,1.2-1.6,0.2-.4V77.6l0.1-.4,0.3-.5,1.6-.9H552l0.2,0.5v0.4l-0.2.6,0.2,0.6,0.5,0.4,0.4,0.1,0.5-.1,0.4,0.1,1.5,0.9,0.8,0.7,1.7,2.3,0.1,0.3L558,83l0.3,0.2h0.9l0.3,0.4-0.1.8,0.4,0.2h0.4l0.7-.5,0.4-.2,0.1-1.4h1.1l2.4,1.2,1.4-.1,1-.7,2.2-1.7,0.4,0.4,0.3-.1,0.3-.5,0.2-.6,0.7,0.7,2.7,1.6,0.5,1.1,1.2,0.2,1.3-.4,0.8-.3-0.1,1,0.3,1.1,0.5,0.9,0.7,0.6,0.3,0.3,0.2,0.8,0.5,0.2,0.5,0.2,0.3,0.3,0.5,0.5,1.7,0.7,1.6-.1,3.4-1.3,2.7-.4,0.8-.6,0.8-.1,2.3,0.7,0.7,0.3,1,1.7,0.7,0.8,0.6-.1,1.3-1.7,0.8-.8,0.8-.3,1.2,1,0.1,0.2v0.5l0.2,0.2,0.9,0.2h0.9l1.7-.5,0.7,0.3,5.5-.1,1.6,0.2,0.6-.2,0.3-.5h0Z"/><path id="_23" data-name="23" class="cls-1" d="M472.1,358.39l-2.4,1.1,0.1,3.1-3.2,2.5-0.7-.5-0.2-.1h-0.4l-3.8,3.4-4.6,7.7-0.5,1.5v4.6l-3.3,1.9-0.3,1.7-2.2-.6h-0.9l-0.8.3-0.9.6-4.3-2.2-1.6-.2-1.2.4-1.1.9-1,1.6-0.8.6-3.7.7-1.1-.2-1.9-2.1-1.1-.6-0.7.2-5.3,4.7-2.5.6-4.8,2.9-2.2,4.5-4.8.4-2.3-1.3-1.6-3-2.2-1.7-0.3-.7-0.7-2.2-2-2.2-1.2-2-1-.4-0.4-.3,0.2-.9,1.4-1.5,0.3-.6-0.1-1-0.6-.5-1.5-.6-0.3-.9-0.2-2.4-0.5-.7-1.1-.6-0.5-.6-0.2-.6,1-8.1-1-2.3,0.9-.8,0.2-.4,0.2-1.5,0.2-.5,2.5-3.7,1.1-.6v-2.4l-1.3-2-0.5-1.1-0.3-1.2,0.1-1.9-1.2-2.7-0.1-.1-1.4-.7V341l0.1-.3,0.3-.4,0.4-.1h0.9l0.9,0.1,1.7,0.6,12.6,0.5,1.5-.2,0.9-.4,0.4-.9,0.3-.4,0.7-.4,0.6-.2,0.7-.1,0.5,0.1,0.4,0.2,0.8,0.2,0.6-.2h0.4l1.1,0.5,0.9,0.1,2.3,0.6h0.6l0.5-.2,0.3-.2,0.2-.3,0.2-1.3,0.1-.4,0.5-.3,0.6-.1,0.4,0.1,0.3,0.3,0.1,0.3,0.2,0.8,0.2,0.4,0.3,0.2,1.5,0.4,0.7,0.1h0.5l0.6-.1,1.1-.5,1.1-.6,0.6-.7,0.2-.4,0.2-.8,0.1-.4,0.4-.4,0.7-.4,1-.1h0.7l0.5,0.2,0.8,0.4,0.8,0.3,0.9,0.2,3,0.1,1.5,0.5,0.7-.1,0.4-.2,0.7-.6,1.2-.8h0.4l0.4,0.2,0.3,0.3,1,1.5,0.6,0.7,0.4,0.3,0.2-.2,0.1-1.1,0.3-.3,0.9-.6,0.7-.4h0.6l0.6-.1,0.9,0.3,0.9,0.6h0.2l0.7-.4,0.1-.3,0.7-.6,2.4-1.3,0.9-.8,0.1-.2,0.5-.5,1.7,1.1,1.9,0.8,0.9-.4,0.6-.1,0.7-.1h1.2l0.7,0.3,0.5,0.3v0.2l-0.1.7,0.2,1.2v0.8l-0.2.8,0.1,0.4,0.7,0.7,3,0.9,0.1,0.4-0.1.8,0.1,0.8,0.2,0.4,0.1,0.9v0.8l0.1,1.1,0.3,0.5,1.4,0.9,0.3,0.6,0.1,0.8-0.1.7-0.2.7-0.5.6v0.3l0.2,0.7v0.5l-0.1.4-2.7,3.6-0.4.7-0.3.4-0.6.7-0.5.7h0Z"/><path id="_15" data-name="15" class="cls-1" d="M243.8,26.19l-0.6,3.5L244,31l-1.5,1.7-0.2.6,0.2,1.1-0.1.7-0.1.3-1.1,1.1L241,37v0.6l0.5,0.9,0.1,0.6L240,43.5l-1.2.7-0.4,1.4-0.3.5-0.5.3-2.1-.3-0.3,4-0.3.7-1.6,1.8-0.2.4-0.1.5,0.2,0.5,0.3,0.8v0.6L232,59.3l1.6,6-0.1.5-0.2.4-0.1.7v0.8l1.2,3.9v1.6l-0.2,1.5-1.1,2-0.4.4-0.9.5-0.4.4-1.1,2-1.5.8-0.7.1-5.5-1.1-0.8.3-0.6.8-0.2.2-0.5.1-1.4-.4-0.4.1-1.3.9-0.4-.1-0.2-.4-0.2-.5-0.3-.5-0.3-.1h-0.3l-0.3.2-0.2.4v0.3l0.3,1.1v0.7l-0.1.6-0.3.5-0.5.2-1.7-.6-1.3,2-1.1.8-0.5.1-0.7-.1-1.3-.8-3.3.7-0.8.4-0.2.4-0.2.8-0.2.1-1.6-.5-3.2,1.1-0.6,1.1h-0.3l-0.3,1-0.4.9-0.6.7-0.8.3-0.9-.3-0.5-.8-0.5-.9-0.5-.5-0.7,1.3-0.1.7,0.4,0.5L191.8,94l-0.6.4-0.6-.5,0.2-.7-0.6.3-1.4,1.2,0.6,0.7-0.5.5-1.6.4-0.2.3L186.8,98l-0.4.1-0.3.4-0.7.7-0.6-.7-0.1-1.1-0.2-1-1-.5-0.7-.6,0.2-1.5,0.7-1.5,0.5-.9V90.7l0.1-.9,0.3-1.2,0.5-.8,0.2-.4,0.4-.4,0.5-.2,0.1-.1,1.3-.8,1.1-1.6,0.7-.6,1.1-.2,0.3-.5,0.2-.9-0.1-1-0.9-.5L189.8,82l-0.7.8-1,.5-1.2.2-2.2-.4-0.9.2,0.1,1-1,1.1-0.6.3-0.8-.1-0.6-.6-0.3-.7-0.2-1L180,82.2h0.5l0.4-.2,0.3-.4,0.3-.6-0.4-.7-0.6-.4-0.8-.4-0.1-.5-0.2-.8-0.1-.3,0.1-.3,0.4-.4,0.2-.4V75.9l-0.3-.3h-0.8l-0.4-.3-0.7-1.1-0.5-.3v0.4l0.2,0.7-0.2.3-0.5.1h-0.2l-0.2-.8-0.4-.1-0.5.3-0.4.4-0.3.5-0.5,1.2-0.3.6-0.2-.2-0.4-1.4-0.4-.3V75.2l0.3-.6,0.9-2.5,0.1-.9,0.2-.5,0.3-.8-0.3-.4-0.6-.5-0.4-1.5,0.4-.3h0.6l0.3-.6,0.2-1.1,0.6-.5,0.5-.4,0.2-.7,0.6,0.6,0.6,0.2,0.6-.2,0.6-.6,0.3-.3,0.3-.6,0.4-.3,0.7-.3,0.8-.1V61.8l-0.8.4-1,.2h-0.7V61.8l-1.4.8-0.6-.1-0.4-1.1,2.1-2,1.4-.8,1.7,0.8,0.8-.1,0.7-.1,0.6-.3,0.6-.5,0.5-.3,0.5-.8,0.2-.9h0.4l0.8,0.7,1.2-.1,1.1-.4,0.8-.6h-0.9l-0.6-.3-0.6-1.4h-0.2l-0.6-.3-0.3-.3,0.3-.2,0.4-.1,1.8-.8,1.9-1.2,1.4-.4,0.3-.5,0.4-.3,0.5-.1,0.6,0.3,1.3,1.5,0.8,0.3,0.8,0.1,1.7,0.6,0.8,0.1,1.3-.5,1.5-.8,1.7-.6,1.5,0.7,2.3-1.1,0.4-.4,0.2-.5,0.3-.5,0.5-.3,0.9-.2,0.3-.6,0.2-.2,2.5-.6,0.1,0.8,0.4,0.6,1,0.9,0.6-.7,0.1-.6L215.2,47l0.4-.8,0.9,0.1,1.3,0.9,0.6,0.2,0.3,0.5,0.2,0.7,0.3,0.7,1,1,0.5,0.6,0.3,0.9,0.3-1V49.9L221,48V47.1l0.2-.6,0.5-.4,0.8-.6-0.9-.4-0.8-.1-1.5.1-0.8-.3-1-1.1-0.7-.3,0.8-.7,4.5-.6,0.3-.1,0.3-.3,0.2-.4-0.1-.4-0.2-.1-1,.5-2.7.5,0.3-.4,0.3-.1-0.6-.4-0.6.8-0.8.4h-2l0.4-.9,0.1-1.3,0.2-.9,0.6,0.2,0.5-.8-0.3-.3-0.4-.5-0.2-.6V36.3l1,0.1,0.3-.1,1,0.2,1.3-.7,6.4-5,0.2,0.7,0.4,0.3,0.5,0.1-0.1-.6,0.6-.5-0.9-.7-0.1-.6,0.2-.7,0.2-.7,0.3-.5,0.6-.2h1.5l1.3-.4,1.3-.7,1.1-1,0.8-1.2,1.3,0.2,0.5,0.8,0.3,1.1,0.7,0.8-0.3.3-0.6-.3-0.4.6-0.2.5v0.5l0.3,0.5-0.5.4-0.5-.4-0.4.4-0.2.1V30l2.3,0.1,0.4-.5-0.8-1.3,0.5-.4h0.5l1.1,0.4-0.3-.9,0.6-.7,0.8-.7,0.9-.5,1.8-.4,0.9-.7,0.8-.9,0.3-.9,0.1-.2,0.4,0.2,0.3,0.5,0.1,0.6-0.2.3-1,1.3v0.9h0Z"/><path id="_26" data-name="26" class="cls-1" d="M478.4,101.29l0.9,0.1,1.8,0.7,2.9-.4,0.5,0.2,1.3,0.9,0.4,0.4,0.5,0.7,0.5,0.4,0.7,0.2,0.8,0.1,3-.2,1.3,0.1,0.9,0.9-0.4.7-0.2.1,0.6,1,1,0.3h2.5l3.3,4.1,1.7,1.2,0.1,0.3v1l0.2,0.4H503l0.7-.1,0.2,0.1,0.5,0.2,1,1,2.2,1.3,0.9,0.2,1.3,1v1.2l0.2,0.5,0.2,0.4-0.2.8,0.1,0.6,0.2,0.5-0.1.3-0.3.3-0.4.1h-0.4l-1-.4-0.4-.2h-0.4l-0.9.4H506l-0.4-.1-0.6-.2-0.4-.1-0.4.1-0.3.3-0.2.7-0.3.4-0.7.6-1.7,2.1-0.2.4-0.1.9v0.6l0.2,0.5,0.3,0.7,1.7,1.4,0.4,1.1-0.2.3-0.4,1.4-1.7.9-0.4.3-0.8.5-0.4.2-0.5.1-1.1.1-0.5-.1-0.9-.8-1.1-.4-0.7-.1-2.5-.6-0.4-.3-0.2-.3-0.3-.9V132l0.1-.4,0.4-.5-0.1-.6-0.4-.7-1.1-.9-0.2-.4-0.2-.5v-0.4l0.1-.4,0.2-.3,0.4-.2,0.3-.3,0.2-.3v-0.4l-0.2-.4-0.4-.3-0.7-.2h-0.8l-0.8.1-2.5.8H485l-0.4-.3-0.3-.4-0.2-.5v-0.4l-0.2-.8-0.2-.2-0.5-.3-2.2-.2-2.8.2-1.2.4-0.6.5-1,.7-0.4.2-0.9-.2-0.3.1-0.1.3-0.1,1.3-0.1.9-0.2.3-0.7.6-0.3.4-0.2.5-0.4.9-0.5.8-0.2.6h-0.8l-1.3-.2-1.6.1-0.2.1-0.5-.1-0.9-.6-0.4-.2-0.6-.1H464l-0.6-.4-0.2-.3v-0.5l0.6-1.7,0.6-.5,0.2-.4,0.2-.8-0.1-.9-0.1-.4-0.4-.2-0.4-.1-1.2.1-0.6.4-0.5.6-0.2.5-0.2.5-0.1.8v0.5l0.1,0.4-0.3.5-0.5.6-1.2.8-1.4.6-1.7-.5-0.3-2-0.3-.8-0.5-.8-0.3-.1h-0.4l-0.4.1-0.7.1h-1.6l-0.6-.4-0.5-.7-0.4-.8-0.4-.7-1-.8-0.3-.7-0.1-.5-1.5-2.3V119l0.5-.5,0.3-.5,0.5-1.8,0.1-1.3L448,114l-0.1-.4-0.2-1v-1l-0.1-.4-0.4-.7v-0.3l0.5-.2,0.8-.2,0.3-.3,0.7-1.2v-0.5l-0.1-.9v-1.3l0.4-1.3V104l-0.1-.4-0.2-.4-0.1-.4-0.3-.3-0.6-.5-0.2-.4,0.1-.5,0.4-.7,0.1-.6V99.3l-0.1-.3-0.2-.3h-0.8l-0.3.2h-0.4l-0.2-.3,0.1-.4,1.3-1.5,0.2-.4,0.6-.7,0.2-.5V94.7l-0.1-.4-0.5-.8,0.1-.4,0.7-.3,1.9-.2,2.9,0.3,0.7,0.3,1.2,0.3,3-1.1V93l0.1,0.8,0.3,0.4,0.6-.4,0.1,0.6-0.1.3-0.5.6v0.4L460,96l0.3,0.2,0.9-.3h0.6l0.4-1.4,0.4-.3,0.6-.3,0.6,0.2,1.6,1.1,0.4,0.5,0.2,0.5v0.4l-0.1.4v0.9l0.1,0.9,0.4,0.1,0.4,0.2,1.5,1.2,0.7,0.3,0.5-.5,0.5-.1,0.4,0.4,0.1,0.9,0.5-.5,0.6-.4,0.7-.1,0.9,0.2-0.3-.4,0.2-.5,0.3-.4,0.3-.2,0.4-.2,0.5,1.1,1.3,0.8,1.5,0.4,1,0.2h0Z"/><path id="_35" data-name="35" class="cls-2" d="M148.7,566.39l0.1,1.4,0.2,2,0.4,1.6,0.4,0.6,0.4,0.3,0.7,0.4,0.1,0.4-0.1.8-0.3.9-0.1.9,0.5,0.8v0.3l-0.5.3-0.3.4-0.4,1.1,0.4,0.7,0.3,0.9-0.1.8-0.7.3-0.6.4-1.4,1.8-0.6.5-3.2,1-0.7.3-1.1,1.3-0.6.3-0.4-.2-0.5-.4-0.4-.2-1.9-.2-0.8-.2-0.8-.3-2.3-2-0.6-.9-0.9-.5-0.4-.3-0.2-.3-1.3-2.9-0.3-1,0.3-1-0.2-.6-0.1-.8,0.1-.8,0.2-.6,0.4-.4,1.7-1,0.8-.6,1.1-1,0.7-1.3-0.2-1.2,0.5-.4,0.2-.9-0.1-1-0.3-.8h1l0.4,0.1,0.5,0.3,0.6-.2,2.4,0.8H144l2.8,0.7,1.1-.3-0.2-1.8,1.3-.2,0.2,0.1,0.2,0.6v0.4l-0.4.2-0.3.6h0Zm52,0.6-1.2,1.7-1.4,1.4-1.8.9h-1.2l-1.7-.8-0.9-.2-2.9.1L189,570l0.2-.2,0.2-.6,0.1-.8,0.3-.1,1.5,0.3,0.9-.1,1.6-.6,2.6-1.1,3.1-2.1,1.4-1.3,0.7-.9,0.4-.8,0.3-1,0.3-2.5,0.3-.9,1-1.5,1.1-3.6,0.3-.6,0.5-.4,1.3-2.2,1.1-2.5,1.7-2.6,0.5-2.5,0.7-1.5,0.2-1.8,0.2-.7,0.5-.5,0.7-.5,1.7-.7,1.6-.2,1.5,0.5,1.3,1.5,0.5,1.7,0.1,2.2-0.3,4.3-0.3,1.1-0.8,1.9-0.1.7-0.1,1.7,0.1,0.5L218,552l0.4,0.7,0.1,0.3-0.2.5-0.8.8-0.2.3-0.1.9-0.2.5-0.7,1-0.4.9-0.5,1.7-1,1.7-1.4.8-4.7.7-2.1.7-1.4,1-1.8.4-0.9.6-1.4,1.5h0Zm34.8-51.4-0.2.7,0.2,0.7,0.2,0.8,0.1,0.9-0.1.3-0.3.7-0.2.4v1.7l-0.7,1.3-1.3,1.1-1.4.8-2.1.5-0.4.5-0.4.5-0.5.2h-0.7l-1,.3h-0.8l-1.5.4-1.2.9-0.9,1.3-0.8,1.6h-0.3l-0.4-.7-1-.3h-2.1l-0.3-.3-0.3-.6-0.1-.6,0.1-.3,0.5-.2,0.4-.3,0.5-.9,0.1-.8,0.2-2.5,0.1-.7,1.5-2.4,0.8-.9,0.6-.4,0.8-.4,0.8-.2h1l0.8-.3,1.5-1.3,0.9-.5,0.8-.3,0.7-.1h2.3l0.6-.2,0.5-.6,0.6-1.2,0.4-1.7,0.4-.9,0.5-.8,0.8-.1,0.8,0.5,1.3,1.2-0.4,1.1-0.2.8-0.3.7-0.9.6h0Z"/><path id="_24" data-name="24" class="cls-1" d="M370.8,59.39l-0.2,3.3,0.1,0.6,0.3,1,0.3,0.5,0.4,0.3,1.8,1,0.5,1,0.9,0.9,0.2,0.4,0.3,1.5-1.4.6-1.3,1-0.5.9-0.6,3-0.4.5-1.1.9-0.4.6-0.4,1.9-1.1-.1-0.3.2-0.2.3v0.4l-0.1,4.1-0.2.7-1,1.3-0.1.4,0.2,0.5,0.4,0.4,1.4,0.8,0.3,0.4v0.5l-0.5.8-0.3.9,0.2,2.9-0.9,4.6,1.2,0.5V100l-1.1,7.1,0.1,1.1-2.8.5-0.3,2.1,1.7-.5-0.6,3.1-2.1.4-1.6-.5-0.1,1.8-1-.4-1.3-2.1-0.9.1-0.5.4-1,1.2-1,.7-1.1.4-1.1-.5-0.5.1-0.3.3-0.6.9-0.4,1.4-0.2.4-0.4-.1-0.6.2-1,.8h-0.5l-1.4-1.1-0.4-.2-0.9.6-0.2,1.2,0.4,3.6-0.5,3.1,0.5,2.5-2,.6-4.4-3.9-0.9-.1-0.5,2.1-3.2-1.2,0.2-1.1-0.2-.6-0.8-1-0.6-.4-1-.3,0.1,1.2-2.9.4-0.6-1.4-3.6,1.1-1.4-.2-0.7-1.2-0.4-.5-0.4-.1-0.2.2-0.2.5-0.4.2H322l-0.3.1-0.5.5-0.3.1-3.9-2-7.1.6-0.4-.1-1.3-1.1-1.6-.6-0.5-.4-0.5-1-0.4-.4-0.4.1-0.9.4L300,119l-2.8,1.1-1.4-1-1.6-.4-2.6.1-1.2-.6-0.4-.1-1.6.2-0.7-.2-3.5-2.2,0.6-.5,0.6-1.1,0.6-.7,0.2-.8,0.1-.4-0.1-.9,0.2-.9-0.3-.5-0.6-.7-1.5-1-2.2-1.9,0.3-.1,0.5-.7,0.2-.4,0.1-.5,0.1-1.1,0.1-.4-0.5-1.3-3.2-.9-0.8-.6-0.4-.2h-0.6l-0.9.3-0.4.3-0.4.5h-0.5l-1.9-.4-2-.1,0.4-1.1V98.6l0.1-.4,0.7-1.8,0.1-.7L272.7,94l0.2-.5,0.3-.3,0.4-.3,0.4-.3V92.2l-0.1-.4-0.6-.8-0.3-.5-0.1-.8,0.1-.6,0.2-.4,0.5-.8,0.2-.1,1.2-.6,1.1-1,0.4-.1,0.8,0.1,0.4-.2,0.5-.4,1-1.4,1.4-1.7,0.3-.6,0.1-.7V80.7l-0.4-1.5,0.1-.7,0.8-.9,0.2-.5,0.1-.5,0.3-.6,1.5,0.3,0.8,0.4,0.3,0.6,0.3,0.1,0.5-.3,0.4-.4,0.6-.7,0.5-.3,0.8-.3,0.8-.1h2.1l0.9,0.2,0.3,0.2,2.1,0.2h0.4l1.6-.7,0.6-.1,2.4-1.3,0.2-.4V73.1l-0.3-.3-0.8-.3-0.3-.2-0.3-.4,0.1-.3,0.2-.2,1.3-.1,0.9-.3,0.3-.2,0.2-.2V69.9l0.6-.8,0.1-.4,0.3-.4,1.2-.6,0.8,0.3,0.4,0.2,0.4,0.4,0.8,0.2h0.6l1.9,1,0.9,0.2,0.3-.1,0.2-.2,0.2-.9,0.2-.3,0.6-.1,1.1,0.2,1.2,0.5,0.6,0.1h0.6l0.8-.4,0.3-.5,0.2-.9,0.2-.3,0.4-.2,2.2,0.5h0.5l1.3-.3,0.5,0.3,0.3,0.3,0.1,0.9,0.3,0.9,0.3,0.3,1,0.7,0.6,0.4,0.6,0.4,0.5,0.2,0.2,0.2,1.2,0.5,0.3,0.2,0.5,0.2,1.7,0.1,0.7-.2,0.5-.1,0.4-.4,0.3-.7,0.3-1,0.5-.8,0.7-1.1,0.4-.3,0.7-.2h1.7l1.3,0.7,0.9,0.2h0.7l1,0.2,0.7,0.5,0.5,0.1,0.4-.1,1.1-.4,0.8,0.1,0.4-.1,0.4-.7,0.1-.3,0.2-.3,2.5-.1,0.4-.1,0.5-.2L346,67l0.3-1.3,0.4-.3,0.6-.1,2.4,0.4,4.2-.5,2.4-1.2,0.4-.1,0.4,0.3,0.5,0.2,0.5-.1,0.7-.7,0.3-.5,0.6-1.8,0.4-.9,0.4-.4,0.8-.4,1.7-.5,1.3-.7,0.7-.7,2.4-1.3h0.4l0.9,0.2,0.9,0.7,1.2,2.1h0ZM349.9,116v-1.3l-0.3-1.2-0.9.2-0.8.7v1.1l0.5,0.8,0.8,0.1Z"/><path id="_25" data-name="25" class="cls-1" d="M661,101.49l0.1,1,0.2,0.9,0.4,0.9,0.7,0.6,2.8,1.1,0.2,0.3v1.8l0.2,0.5,0.8,1,0.1,0.5,0.1,0.4-0.2,1,0.4,1.2-5.7,1.1-1.3,1.6-0.1.3v0.5l0.3,2.2,0.2,0.4,0.3,0.2,1.4,0.7L662,120l0.1,0.5V121l-0.2.5-0.2.4-0.5.3-0.4.6v0.5l0.3,1.5-0.1.5-0.2.3-0.6.2-0.2.2v0.3l0.1,1.1V128l-0.1.6-0.3.5-1,.9-0.1.4,0.1,0.5,0.2,0.2,0.2,0.1,1.1-.5h0.3l0.3,0.2,0.3,0.4,0.1,0.5-0.2.5-0.3.3-0.5.3-1.4-.1-0.4.2-0.3.4-0.1.4-0.1,1.5-1.2,2V138l0.8,2.1v0.6l-0.1.6-3.1,3.6-0.4.3h-0.4l-1.1-1-0.4-.1-1.2.3-0.4-.2-0.8-1.1-0.5-.2h-0.5l-0.5.3-0.4.4-0.1.4-0.1,4.7,1.4,3.6-0.1.4-2.1.5-0.7.5-0.2,1,0.8,0.2,0.9,0.6-0.7.9-0.9.5-7.3-.4-0.6.4-0.7,1.3-0.4,1.5,0.1,1.4-0.2.5-0.4.4-1.2.4h-0.6l-2-.6-0.3.2-0.1.3v1.4l-0.8,1.5-0.9,1.2-1.6.4-0.3.4-0.6,1.6-0.5.6-3.5.8-0.4-.1-1.2-.8-0.4-.1-0.2.1-0.2.3-0.3.6-0.5.6h-2.1l-1,.8-5.1,1.1-1.1-.2-1.1-1.1-0.4-.2-0.4.2-0.3.3-0.3,1-0.4.4-0.4.2h-0.5l-0.5-.2-0.3-.4L606,171l-0.4-.3-0.4-.1-0.4.2-0.3.4-0.2,2.9-2.1-.2-1.2,2.7-0.2-1.4-0.1-1.3,1.1-2.5-0.2-1-0.3-.8-0.6-.6-0.8-.4-0.3-.1-0.2-1.2,0.7-.9,0.4-1.6,0.1-1.2-0.1-1.1,0.1-.4,0.5-.4,1.3-.4,0.4-.3,0.4-.8,0.2-.3,0.9-1.1,0.2-.3,0.1-.4-0.1-.5-0.2-.4-0.2-.5v-0.9l-0.2-.5-0.4-.1-0.4-.1-0.5.1-1.3-.2-0.4-.2-0.2-.3-0.2-.5-0.2-1.3-0.6-1.5-0.1-.9,0.7-1,1-.9,0.6-1,0.3-.4,0.3-.2,0.1-.4,0.5-.6,0.6-.3,1.5-.3,0.5-.3,0.3-.5,0.5-.9,0.6-1,0.4-.5,0.4-.1,0.8-.2,0.4-.3,0.3-.4,0.4-.7,1-.6,0.6-.7,0.2-.4-0.1-2-0.3-.7-0.4-.2-0.6-.6v-0.4l0.4-.7,0.4-.3,0.4-.3,0.3-.1,0.5-.4,0.3-.6,0.6-.6,0.5-.2,0.4-.5,0.2-.7-0.1-.8,0.6-1.4,0.7-2.4v-0.3l0.4-.3,0.3-.6,0.1-.6,0.2-1.3,0.1-.6-0.2-1,0.2-1.2,0.1-.4,0.4-1.9,0.1-.3,0.5-.8,0.4-1.1v-0.4l0.1-1.1v-1.1l0.2-.7,0.1-.6v-1.2l-0.2-2.5-0.4-1.5-0.2-.7-0.3-.4-0.5-.6-0.2-.4v-0.7l-0.1-.4-0.2-.5-0.1-.5,0.1-.5,0.3-.2h0.5l0.3-.2,0.2-.5-0.1-.7,0.3-.9,0.2-.2,0.2-.5,0.4-.9,0.2-.5,0.2-1.5,0.2-.4-0.2-.5-0.5-.3-0.9-.2-0.4-.2-0.4-.3-0.3-.5-0.6-1.7L615,89.7l-0.5-.4,0.1-.2v-1l-0.3-.9-0.5-.6-0.6-.3,0.4-.8,0.3-.3-0.5-.7,0.7-1.7L614,81.5l0.2-.8,1-.4,1.2-.1h0.8l1.5,0.7,0.8,0.1,0.9-.1,0.7,0.2,1.9,1.1,1.3,0.5,0.4,0.3,0.7,0.7,0.5,0.2,0.4-.2,0.5-.3,0.4-.2,0.4,0.2,0.7,0.6,0.4,0.2,3.7,0.2,1,0.3,0.7,0.7,0.5,0.9,0.3,0.9,0.5,0.9,0.7,0.5,0.5,0.1,1.5-.5h5.5l1,0.3-0.2.9,0.2,0.2h0.5l0.3,0.2,0.8,1.5,0.9,1.1,0.7,2.1,0.6,0.8-0.4,1-0.1.6,0.4,0.2v0.3l-0.7,1.2-0.2.7,1-.1,0.8,0.7,0.2,0.9-0.9.7-1,.4,1.3,2v0.7l0.5,0.4,2.7,0.4,0.3-.1,0.5-.2,0.8-1,2.7-.4,1.5-.6,0.5-1.6,0.1-.2h0.3l0.1,0.2,0.5,0.2h0.5l0.5-.3,0.5-.5,0.2,0.2v0.4h0Z"/><path id="_27" data-name="27" class="cls-1" d="M272.6,41.39l-0.2.4-1.4,1.3-0.6,1-0.4.4-0.4.2-0.6.1-0.5-.2H268l-0.5.1-0.3.4-0.1.4-0.1,1.3,0.2,0.6,0.6,0.3,0.8-.1,0.3,0.2,0.1,0.4,0.1,1.5,0.1,0.7,0.3,0.6,0.3,0.5,0.6,0.6,0.4,0.1,0.4,0.2,0.3,0.4,0.3,2.6,0.3,0.6,0.3,0.4,0.3,0.4,1,0.8,0.6,0.1,0.5,0.6,0.7,0.4,0.4,0.1,0.3,0.2-0.1.7-0.3.9v0.6l0.1,0.5,0.3,0.4,0.2,0.3,0.4,0.3,0.3,0.1,0.8-.3,0.8-.5,0.4-.2,0.4-.2,0.2-.4,0.1-.3,0.2-.4,0.2-.2,0.4-.1,0.4,0.4,0.4,0.6,0.7,1.2,0.1,0.6-0.1.6-1.7,1.5-0.3.2-1.6.7h-0.9l-0.5.2-0.2.3-0.3.8-0.1.5-0.2.5-0.4.2-0.4.1-0.3.4-0.1.7,0.3,0.7,0.3,0.6,0.4,0.2,0.4-.2,0.2-.4v-1.2h0.4l0.9,1.3,0.5,0.5,0.7,0.2h0.9l0.3,0.2,1.1,1,0.4,0.5,0.1,0.7,0.2,2.2-0.3.6-0.1.5-0.2.5-0.8.9-0.1.7,0.4,1.5v0.5l-0.1.7-0.3.6-1.4,1.7-1,1.4-0.5.4-0.4.2-0.8-.1-0.4.1-1.1,1-1.2.6-0.2.1-0.5.8-0.2.4-0.1.6,0.1,0.8,0.3,0.5,0.6,0.8,0.1,0.4v0.4l-0.4.3-0.4.3-0.3.3-0.2.5,0.1,1.7-0.1.7-0.7,1.8-0.1.4v1.2l-0.4,1.1-1.4,2.7-1.6,1.1-0.6.8-2.3,6.1-2.3-4.9-0.6-.5-2.3-.6-1.8.3-0.4-.1-1.6-1.4-0.5.7-4.6,2.3-2.5-.8-1.7.4-4.4-3h-1.6l-1.3-1.2-3.6-1.9-1.5-.1,0.1-1.9v-0.6l-0.3-.6-1.3-1.3,1.6-3.5,0.1-1.9,0.2-.7,0.8-1.2v-0.9l-0.5-.5-1.4-.5-0.9-.6-2.1-2.5-0.1-.8,0.8-2.9-1.6-.4,1.1-2,0.4-.4,0.9-.5,0.4-.4,1.1-2,0.2-1.5v-1.6l-1.2-3.9v-0.8l0.1-.7,0.2-.4,0.1-.5-1.6-6,1.5-3.9v-0.6l-0.3-.8-0.2-.5,0.1-.5,0.2-.4,1.6-1.8,0.3-.7,0.3-4,2.1,0.3,0.5-.3,0.3-.5,0.4-1.4,1.2-.7,1.6-4.4-0.1-.6-0.5-.9V37l0.2-.5,1.1-1.1,0.1-.3,0.1-.7-0.2-1.1,0.2-.6L244,31l-0.8-1.3,0.6-3.5,0.2,0.3,0.7-.3,0.1-.8,0.7-.1,0.7-.4,0.2,0.8,1,2.2-0.1.9,0.4-.1,0.6-.8,0.3-.9,0.6,0.2,0.4-.3,0.4-.5,0.6-.2,1.8,0.2,0.5,0.2,3.7,2.1,1.8,0.7,2.7,5,2.1,1-0.3.6-0.3.2v0.5l0.6,0.2,0.4-.1,0.3-.4,0.5-.2h0.7l0.9,0.3,1.7,0.3,2.7-.1,0.7-.5,0.8,0.4,0.8,0.2,0.5,0.4,0.1,1.2L273,39l-0.5.8-0.2.8,0.3,0.8h0Z"/><path id="_28" data-name="28" class="cls-1" d="M393.4,210.39l0.2-1.4,0.8-.8,1,0.2,0.8,1.8Zm55.4,29.2-0.5-.1-0.1.2v0.6l0.3,0.8,0.3,0.8,0.3,0.3,0.2,0.4-0.1.4-0.2.5-0.5.4-0.6.6-0.9.3-2.2.1-0.1-.6-0.2-.2-0.8-.5-1.8.6-2.7,1.4-1.8.4-0.5.1-0.5-.1-0.9-.6-1.5.7-4.2-.2-0.6.5-0.5,1-0.4.1-1.8.5-0.4.2-0.6.5-0.8.2-0.7.3-0.2.2v0.9l-0.1.3-0.4.2-1,.3-0.8.5-0.5.2-0.8.1-0.8.3-0.3.3-0.4.5-0.7.6-0.3.2-0.7.5-0.4.4-0.5.2-0.7-.1-1.4-.9-0.5-.5-0.2-.4,0.4-.4,0.5-.3,2.8-.9h0.5l0.2-.2,0.7-.8,0.3-.2,0.8-.3,0.7-.6,2.1-2.2,0.6-.3,0.3-.1,0.7-.5,0.6-1,0.4-1.2,0.1-.3v-0.9l-0.2-.3-0.5-.4-2.1-1-0.9-.1-0.7-.2-0.6-.1-1.1.2-0.5-.2-0.6-.3-0.7-1-0.3-.3-0.3-.1-0.8.2h-0.4l-0.4-.4-0.3-.3-0.4-.4-2.1-.5-1.5-.7-2.3-.8-0.6-.2-0.4-.4-0.5-.8-0.3-.3-0.4-.3-1-.4h-0.4l-0.8.6-0.6.2-0.8-.2-0.7-.2-1.3-1.3-0.2-.3-0.4-.3h-0.4l-1.1.7-1.1.2-0.5.4-0.2.3-0.4.6-0.3.6-0.3.3-0.6.5-0.5.1-0.6-.7-0.7-.3-0.6-.7-0.4-.7-0.1-.4v-0.5l0.1-.8v-0.4l-0.2-.3-0.5-.4-0.3.1-0.5.9-0.2.4-0.3.4-1.4,1.4-0.2.5-0.4.4-0.6.5-1.4.6-0.6.3-0.4.4-0.2.3-0.4.3H384l-0.7-.1-1-.7,0.6-1,0.4-2,0.6-1.1,0.2-.4,0.1-.4-0.1-.5-0.2-.7-0.1-.5v-0.5l0.3-.2,0.3-.1,0.3,0.3,0.5,0.7,0.5,0.3h0.7l0.5-.2,0.5-.3,0.3-.6,0.4-.8,0.2-.6,0.2-1.7,0.2-.3,0.4-.5,0.5-.3,0.6-.1,0.8,0.3,0.6-.2,1.2-.1,0.5-.2v-0.3l-0.2-.8,0.6-2.2-0.2-.7,0.1-1.1-0.1-.6,0.1-.8-0.1-1.1,0.3-.6,0.9-.7,0.2-.4,0.2-.7v-0.8l-0.3-.8v-0.6l0.2-.3h0.3l0.2,0.2,0.4,0.7,0.3,0.3,0.7,0.2,0.9-.1,0.8-.4,0.9-.3,0.5-.3,0.1-.5v-0.8l0.1-1v-0.4l0.3-1.1,1.3-1.9,0.2-.3,1.7-2.6,0.4-.4,0.9-.5h0.6l0.5,0.1,0.3,0.2h0.4l1.1-.2,0.5-.4,0.4-.8,0.3-.9,0.1-.4v-0.9l0.1-.4,0.5-1,0.1-.5v-0.4l-0.1-.8,0.2-.9,0.6-1,0.6-.8,0.4-.6,0.4-.5,0.5-.4,3.8-1.3,0.8-.6,0.6-.9,0.5-.9,0.4-.9,0.5-.5,0.6-.6,1.9-1.3,0.9-.9,0.8-1.1,0.6-.8,0.5-.5,1.4-.8,2-.5,0.2,1.1,1.7,1.6,0.5,0.8,0.7,0.7,1,0.5,0.8,0.3,0.5,2,0.6,1.8,0.1,0.8-0.2.6-0.3.7-0.4.9-0.3,1.4-0.4.8-0.3,1-0.1.5,0.3,0.5v0.6l-0.2.3-0.6.5-0.3.5-0.3,1.7-0.3.9-0.3.6-0.3.4,0.1,0.4,0.3,0.2,1.3,0.4,0.3,0.4,0.3,0.6,0.1,0.6,0.1,0.8,0.1,0.4v0.5l-0.1.4-0.6.7-0.1.5,0.1,0.4,0.6,0.6,0.4,0.2,0.6-.2,0.7,0.1,0.3-.6h0.4l0.3,0.5,0.7,1.1,0.5,0.6,0.4,0.3,0.4,0.1,0.5-.3,0.3,0.1-0.3,1.2v1.6l0.2,0.5,0.2,0.4,0.4,0.3,0.6,0.5,0.3,0.9-0.1.3-0.3.6,0.3,0.3,0.6-.1,0.2-.2,0.6-.3,0.4,0.1,0.4,0.2L442,218l1,0.9,0.1,0.3,0.1,1.7-0.1,1.6,0.2,0.4,0.3,0.3,0.4,0.1,0.5,0.2,0.6,0.5,0.6,1.1,0.2,0.7-0.2.9v0.8l-0.4,1.1-0.1.6-0.2.3-0.6.6-0.3.5-0.1,1.1-0.3,1.1v0.6l0.1,0.8,0.3,0.5,0.3-.1,0.4-.3,0.5-.7,1.2-.8,0.4-.1,0.5,0.3,0.4,0.8,0.4,1,0.1,0.7,0.1,0.6v1.1l0.4,2.4h0Z"/><path id="_29" data-name="29" class="cls-1" d="M393.5,408.49l1.4,3.7,0.3,3.6,0.4,1,0.5,0.8,5,4.2,12.1,5.3,2.1-.2,2.7,3-0.7,2.1,0.3,1.6-2.8-.9-2.2.4-3.2,1-4.2-1.2-1.1.2-1.3,1-3.9.6-1.2.2-7.9-.7-0.8.2-0.5.6-1.5,2.6-0.6.6-0.5.9-0.2.8-1.3,2.2-2.8.4-1.2,2.4-1.5,1-0.5.3-0.9.4-1.9.4-1.8-.1-5.2-.6-1-.1-0.4.2-0.5.4-3.1,2.2-3,.2-2.1,1.3-0.5.2-1.7.2-0.7.3-0.5.3-0.6.8-1.2,2.1-0.1.6-0.7,2-0.4.8-1.1-2.2-1.9.7-0.6-3.9-0.9-2.1-1.6-1.8-1.1-2.3-0.5-.6-0.6-.3-1.6.1-1.6.6-1.7,1H338l-0.6-.3-0.7-.5-0.3-.7,0.2-.7,0.4-.3,3.7-1.2,1.2-.7,0.5-.6,0.8-1.5,0.4-.4,2.7-.9,1.3-.8,0.7-1,0.8-3.4,0.9-1.2,0.1-1.2-1.5-1.9-0.4-1.1,0.3-.8,1.3-1.4,0.6-.4,1.3-.1,3,2.5,1.5-.1,1.3-.7,1.1-1.3,0.8-1.5,0.2-1.7-0.6-1.7-2-2.7,10-6.1,0.7-1.2-2-1.1-0.5-.7,0.2-.3,0.4-.2,0.5-.2h0.5l1.9,0.8,0.4-.1,0.4-.4,0.3-.8,0.3-.2h0.3l2,1.9,0.8-.2,1.7-1.1,0.8-.8,0.1-1-0.7-1.7,0.7-.9,2.9,0.3h1.8l0.7,1.9,2.6,0.5,2.6-1.5,1.5-2.1h2.8l0.5,3.4,2,0.7,0.3,0.9h0Z"/><path id="_30" data-name="30" class="cls-1" d="M552.2,379.69l0.6,2.1-0.9-1.1-0.2-1.6,0.1-1.9-0.2-1.6,0.3,0.3,0.5,0.9,0.2,0.3-0.4,1.3v1.3h0Zm-12.5-53.8,0.8,3.7V331l-0.5,1.6-0.1.9,0.1,1.3-0.3.8-0.3.4-1.7,1.6-0.3.4-0.3.6-0.1.9v2.3l0.1,0.9,0.2,0.5,0.4,0.2,0.9,0.1,1.6,0.6,0.8,0.5,0.4,0.8,0.7,2.3v0.7l-0.2.9-0.1.4-0.3,1.8-0.2.4-0.3.9-1.3,1.9-0.2.6-0.2,1.1v1.1l0.3,1,0.2,0.6,0.8,0.9,0.9,1.5,0.7,1.4,0.5,0.9,0.3,0.4,0.6,1,0.5,1.1,0.3,0.4,1.3,1.4,0.3,0.3,1.9,2,0.3,0.2,0.8,0.2,0.4,0.2,0.6,0.6,0.5,0.2,0.8-.2,0.2,2.3-0.2.5-1.2-1.5-1.1,3-0.5.5-1,.3-0.4.7,0.2,1.1,1.4,2.6,0.4,0.6,1.5,0.9,1,0.5,0.9,0.1,0.3-.7,0.9,0.5,0.3,0.7-0.2.6-0.7.5-0.3.4-0.4.3H552l-0.4-.3-0.4.2-1.2.5-0.8.2-1.2.6h-1.7l-0.6.2-0.6.3-1.1.7-0.3-.3-1.8-.9-1.5-.2-2.8-.1-0.8.1-0.7.2-0.5.5-0.2.5,0.1,0.6,0.5,0.9-2.7-.6-0.5-1.2-0.9-.1-1.3-.5-0.6-.2-0.7.7-0.2.5h-1.2l-1.5-.2-1.4.6-0.7.5-1.9,2-0.8.4-0.9.2-0.5.4-0.4.3-0.2.6-0.5,1.8v0.4l-0.4.3-0.5-.3h-0.3l-0.4.2-0.9.8-0.4.1-0.7.2-2.2.9-1,.7-4.1-3.2-0.4-.2-2.2-.5-0.5.2-0.1.5-0.6-.2-0.3-.2-0.6-.5-6.6-10.4-0.4-.5-0.2-.3-0.1-.6-0.1-.9,0.1-1.3v-0.4l0.2-.6,0.2-.8-0.1-.4-0.1-.5-0.2-2,0.1-.4,0.3-.8,0.1-1.4v-0.4l0.2-.4,0.5-.7v-0.3l-0.3-.3-4.1-.6-1.6-.8-0.6-.1-2,.1-1.7-1.1-1-.6-1.3-1.5-0.9-1.4-0.7-1.3-0.3-.3-1.5-1.1,0.6-2.1,0.2-.4,1.7-1.9,1.4-1.8,1.2-2.7,0.5-.7,1.3-1.2,0.5-.4,0.5-.2,0.9-.1,0.5-.3,1.9-1.7,1.1-1.4,0.8-.5,0.5-.1,0.3,0.1,0.4,0.2,0.7,0.7,0.3,0.2H497l1.2-.4,1.4-.3,0.7-.2,1.1-.6,1.7-1.3,2.3-1.4,0.2-.4v-0.3l0.8-.2,0.3-.3,0.7-.3h0.7l0.7,0.5,0.8-.1,0.5,0.2,0.3,0.4,0.1,0.6-0.2.6,0.2,0.5,0.4,0.5,0.2,0.2,1,0.4,0.4,0.1h0.4l2.7-.9,3.2-2.6,0.4-.5,0.2-.4,0.1-.8v-0.5l-0.2-1.4v-0.9l-0.1-1.8-0.2-.9-0.2-.8-0.3-.5v-0.7l0.2-.6,0.5-1,0.4-.4,0.5-.3,0.5-.8v-1.3l0.1-.9,0.8-1.6,1.4-1.6,0.7-.7,0.6-.3,0.4,0.1,0.5,0.6,0.3,0.2h0.5l2.5-1.4,1.1-1.2,0.4-.3,0.5-.3,2.6-.6h0.4l1.6,0.6,0.4,0.2,0.2,0.3,0.2,0.8,0.2,0.7,1.3,1.1,2.4,1.9h0Z"/><path id="_31" data-name="31" class="cls-1" d="M532.9,106.89h-0.6l-0.3-.5,0.1-.8,0.4-.4,0.5-.3,0.4-.2,0.3,0.2v0.6l-0.3.9-0.5.5h0Zm4.8-2-0.3.2h-0.5l-1-.2-0.7-.2-0.4-.4v-0.6l0.4-1,0.5-.5h0.6l0.2,0.4v0.7l0.4,0.3,0.8,0.8v0.5ZM552,75.79h-1.1l-1.6.9-0.3.5-0.1.4V78l-0.2.4L547.5,80l-0.1.5-0.1.5v1l-0.2,1.8-0.5,1-0.5.4-0.5.3-0.3.2-0.3.8-1,.4L542.9,88l-0.6.4-0.6.3-2.1.6-0.3.3-0.1.5v0.8l-0.3.8-0.2.4-0.4.2h-0.9l-0.5-.1-2.6.4-0.3.3-0.1.4-0.1.6-0.4.3-0.2.2,0.7,0.3-0.3.6-1.1.7-0.5.6-0.3.5-0.1.5L531,98l-0.4.1-0.8-.2h-0.5l-0.3.3-0.3.4-0.3.6-0.3.9,0.1,0.4,0.4,0.9v0.4l-0.3.7-0.6,1-1.2,1.1-0.9,1.6-0.3,1.1-0.1.6v0.5l0.2,0.3,0.3,0.2,0.2,0.4,0.1,0.3-0.1.5-1.3,1.6-0.9,1.4-0.3.8-0.2.6v0.4l-0.3,1-0.1.6-0.4.8-0.2.6v0.5l0.1,0.4,0.2,0.5L523,120l0.1,0.4,0.1,0.5v1.2l0.1,0.5-0.1.8,0.1,0.5,0.2,0.3,0.7,0.6,0.4,0.8,0.1,0.4,0.5,0.7,0.3,0.2,0.4,0.1,0.5,0.1,0.3,0.2,0.2,0.5-0.2,1.1-0.3.5-0.9,1.3-0.8,1.3-0.6,1.4-0.3.5-0.1.5-0.5.7-0.4.4-0.2.6-0.5.4-0.3-.1-0.8-.2-0.4-.1-1.3-.4H519l-0.6.2-0.7.3-0.8.2h-0.8l-0.8-.4-0.7-.5-0.3-.3-0.5-.7-0.7-.5-0.7-.4-0.8-.3-0.4.1-0.9.4-0.4.1-0.4-.1-0.9-.4-0.7-.5-0.5-.7-0.4-.3-0.7-.4-1.7-.1h-0.4l-0.8-.4h-0.5l-1.7-1.4-0.3-.7-0.2-.5v-0.6l0.1-.9,0.2-.4,1.7-2.1,0.7-.6,0.3-.4,0.2-.7,0.3-.3,0.4-.1,0.4,0.1,0.6,0.2,0.4,0.1h0.4l0.9-.4h0.4l0.4,0.2,1,0.4h0.4l0.4-.1,0.3-.3,0.1-.3-0.2-.5-0.1-.6,0.2-.8-0.2-.4-0.2-.5v-1.2l-1.3-1-0.9-.2-2.2-1.3-1-1-0.5-.2-0.2-.1-0.7.1h-0.3l-0.2-.4v-1l-0.1-.3-1.7-1.2-3.3-4.1h-2.5l-1-.3-0.6-1,0.2-.1,0.4-.7-0.9-.9-1.3-.1-3,.2-0.8-.1-0.7-.2-0.5-.4-0.5-.7-0.4-.4-1.3-.9-0.5-.2-2.9.4-1.8-.7-0.9-.1,0.1-.9,0.4-3.2L478.7,96l-0.1-.4-0.2-.3-0.7-.2-0.9,1.2-0.4.2-0.3-.1-0.7-.4-0.4-.1-0.3-.2-0.2-.3-0.1-.5,0.1-.4,0.6-.6,0.4-.2,0.9-.7,0.6-.7,0.8-.7,0.4-.2,0.8,0.1,0.5,0.4,0.3,0.6,0.3,0.3h0.8l0.5-.1,0.4-.2,1.3-.9,0.3-.3V90.7l-0.2-.3-0.4-.2-0.3-.1-0.4-2.3,0.1-.5,0.3-.5,1.2-.5L484,86l0.1-.6v-1l0.1-.9,0.5-1.3,0.9-1.6,0.1-.6,0.1-.5-0.6-2.6,0.6-1.4,0.3-.7,0.3-.4,0.5-.5,0.6-.1,0.8,0.4,0.3,0.1,0.9-.2h1l0.4-.2,0.4-.4,0.9-1.1,0.4-.3,1.2-.2,0.4-.3,0.3-.4,0.1-.6V70.1l-0.1-.4,0.1-.5,0.1-.5,0.4-.8,0.6-1.1,2.3-1.6,0.6-.3,0.5-.4,0.5-.6,0.6-1.2,0.1-.7V61.4l-0.2-.4-0.2-1.3,0.1-.5,0.3-1.3,0.1-.3,0.9,0.4,0.4-.1,0.1-.7L502,57l0.7,0.3h0.4l0.6-.4,0.6-.5,0.7-1.2,0.6-1.2,0.8-.8,1.1-.3,0.1,0.3,0.5-.1,0.5-.3,0.9-.1,0.9-.4,0.4,0.1,0.9,0.4,0.4,0.3-0.1.6,0.1,0.6,0.3,1,0.2,0.3,0.5,0.2,0.5,0.1,0.6-.1,0.5-.2,0.2-.6,0.4-1,0.6-.4h0.9l1.4,0.4,1.8,1,0.5-.1,0.5-.2,0.5,0.1,1.3,1.3,0.2,2.2-0.5,2.4-0.7,2-0.5.7-1.9,2-0.3.5,0.5,1.3,0.8,0.9,1,0.6,1.1,0.3,1.2,0.1,0.8-.3,0.4-.8,0.1-1.6,0.3-1.2,0.7-.9,1-.3,1,0.2-0.9.8-0.4.8,0.2,0.9,0.8,0.8,0.8,0.5,2.6,0.5,1.5,0.8,1.5,1.2,1.6-.1,0.4,0.1,0.7,0.5,0.4,0.3,1.5,0.2,0.8,0.2,0.5,0.6,1.5,1.2,1.7,0.5,3.6,0.3,3.4-.6,1.2,0.4,0.6,1.7h0Z"/><path id="_32" data-name="32" class="cls-1" d="M271.5,100.89l2,0.1,1.9,0.4h0.5l0.4-.5,0.4-.3,0.9-.3h0.6l0.4,0.2,0.8,0.6,3.2,0.9,0.5,1.3-0.1.4-0.1,1.1-0.1.5-0.2.4-0.5.7-0.3.1,2.2,1.9,1.5,1,0.6,0.7,0.3,0.5-0.2.9,0.1,0.9-0.1.4-0.2.8-0.6.7-0.6,1.1-0.6.5-0.7.9-0.1.5-0.1.7-0.3.1-0.8-.2h-0.7l-1,.2-0.7.4-0.7.6-1.5,1.6-0.3.5-0.2.4-0.5,1.6-0.3.3-0.7.4-0.4.4-1.1,1.7-0.6.5-0.1.5,0.1,0.4,0.6,0.6h1.2l0.3,0.2,0.5,0.7,0.1,0.5-0.8,1.9-0.2.8,0.2,0.5v0.7l-0.4-.2-1.1.7-1.5.7-1.4-.6-1.4-1.2-1.4-.9-0.7.1-0.7.5-0.7.5-0.3.3-0.1.9L266,136l-0.1,1-1,1.3-1.4.9-3.2,1.1-0.8.1h-1.6l-0.6.1-0.6.4-1.1,1.2-0.6.5-0.2-.9-0.4-1-0.6-.8-0.6-.2-0.4-.1-0.7-.5h-0.3l-0.4.3-0.1.8-0.2.4-0.7.5-0.9.3-1,.2-0.7-.1-0.8-.4v-0.6l0.7-1.9-2.4-.1-0.8-.3-1.2-.9-0.7-.2-1.2.6-2.8.7-1.2-.1-0.4.2-0.4.7-0.3.4h-1.4l-0.3-1.8-0.1-1.6-0.9.4-0.2.6-0.2,1-0.5.8h-0.8l-0.7-.1-0.6.3-0.6.6-0.4.7-1.5,1.5-2,.6-3.8-.2,0.2-1.6-0.1-.8-0.3-.4-1.6-.7-0.5-1,0.1-1.1,0.4-1.1,1.7-2.6,1.3-1.2,1.3-.9,0.7-.6,0.5-.7,0.1-1.1-0.4-.9-0.7-.6-0.8-.4-0.9.1-0.8.4-0.7.2-0.6-.5-0.1-1,0.1-2.5-0.4-.9-0.4-.6,1.8-1.2,0.1-2.2,0.7-2.1-3.2.8-0.4-.3-1-1.2-0.3-.6v-0.7l0.6-2.2L218,112l-0.4-.3-1.4-2.2-0.1-.4,0.1-1v-0.3l-0.7-1.5-0.4-1.1,0.2-3.2-0.1-.4,1.7,0.1,2.3-2.5,1.6-.5,1.8-1.9,1.2,1.4,3.5-.2,2.2,0.6,0.2-.2,0.9-1.5,0.4-.1,1.1,0.2,1.3-.6,1.3,1.3,0.3,0.6v0.6l-0.1,1.9,1.5,0.1,3.6,1.9,1.3,1.2h1.6l4.4,3,1.7-.4,2.5,0.8,4.6-2.3,0.5-.7,1.6,1.4,0.4,0.1,1.8-.3,2.3,0.6,0.6,0.5,2.3,4.9,2.3-6.1,0.6-.8,1.6-1.1,1.4-2.7h0Z"/><path id="_34" data-name="34" class="cls-1" d="M403.6,122.79l-0.4-.4-0.1-.6,0.1-.6,0.3-.4,0.5-.2,0.5,0.2,0.5,0.4,0.3,0.5,0.1,0.8-0.3.4-0.7.2-0.8-.3h0Zm0.3-37.6-0.5,1.1-0.3.4-0.4.2-0.2-.1-0.7-.7-0.6-.2-0.6.2-1.2.7-1.4,1.9-1.2.8-0.6-.3-0.3-.3-0.1-.2-0.7,1.2-0.1.6,0.4,1.4,0.1,2.1-0.9.8,0.5,1.7-0.9.4,0.3,0.2,0.9,1,0.6,0.8,0.8,2.7,0.1,2.2-2.6-.3-0.6.2-0.4.4-0.3.7v2l0.2,0.9,0.4,0.5,2-.2-0.2.1,1.9,9.3-0.2.8,2.1,2-0.6,2.8,3.7,0.4,0.8,4,0.8,1.1,0.2,0.2,4.1-.7,0.4,0.2,0.4,0.5-0.1.5-2.5,3.3,0.2,1.1h0.8l4-2.1,0.5,0.1,0.4,0.4,0.1,0.6v0.7l-0.3.7-0.6.5-2.8.7-0.2.3-0.1,1.2-0.1.5-0.2.4-0.3.3-2.5,1-1.6-.1v2.4l2.3,2.4-0.1,1.3-2.6-.4-1.1-1.9-1.2.5-4-.4-0.7.2-1.5,1.4-1,.4-3.9-.6-0.6.2-0.9.8-0.4.1-0.8-.2-1.4-.8,0.1-3.5-1.3.9-2.3.5-2.7-2.9-0.3-1.4-0.3-.2-0.6-.4-0.3-.1-0.4.1-0.8.5-0.7.6-0.9,1.6-1.3,1.6-1.3.4-2.2-4.8-1.4-1.9-2.6.9-0.9-1.1-1.7,1.2-0.8-1.4,1.5-2.9,0.2-.9,0.1-.3,0.9-.7,0.1-.5-0.2-1.2v-0.5l0.8-1,0.2-.6,0.1-.6-0.3-3.5-4.4-.2,0.6-1.9-0.2-2.7,0.7-3.5,2.1-.4,0.6-3.1-1.7.5,0.3-2.1,2.8-.5-0.1-1.1,1.1-7.1v-1.1l-1.2-.5,0.9-4.6-0.2-2.9,0.3-.9,0.5-.8v-0.5l-0.3-.4-1.4-.8-0.4-.4-0.2-.5,0.1-.4,1-1.3,0.2-.7,0.1-4.1v-0.4l0.2-.3,0.3-.2,1.1,0.1,0.4-1.9,0.4-.6,1.1-.9,0.4-.5,0.6-3,0.5-.9,1.3-1,1.4-.6h1l0.7-.2h2.2l1.7-.4,1.6,0.2,0.6-.1,1.5-.8,0.6-.1h0.6l0.4-.2,0.8-.5h0.8l0.5,0.2,1.1,0.5,0.4,0.3,0.9,1.5,0.2,0.6,0.2,0.4,0.7,0.5,4.5,1.6,0.6,0.5,0.1,0.4v0.9l0.1,0.8,0.2,0.9,0.1,0.8,0.1,0.5,0.1,1.2,0.2,0.6,0.2,0.2,0.3,0.2,0.6-.1,0.5-.5,0.4-.3,1.1-.3,0.4,0.2,0.3,0.4,0.1,0.4-0.1.4-0.3.3-0.4.2h-0.4l-0.8.3-0.3.2-0.1.3,0.1,0.4,0.3,0.3,0.8,0.8,0.6,0.2,1.1,0.1,0.5,0.1,0.4,0.3,0.2,0.3,0.5,0.8h0Z"/><path id="_36" data-name="36" class="cls-1" d="M230.3,80l1.6,0.4-0.8,2.9,0.1,0.8,2.1,2.5,0.9,0.6,1.4,0.5,0.5,0.5v0.9l-0.8,1.2-0.2.7L235,92.9l-1.6,3.5-1.3.6-1.1-.2-0.4.1-0.9,1.5-0.2.2-2.2-.6-3.5.2-1.2-1.4-1.8,1.9-1.6.5-2.3,2.5-1.7-.1,0.1,0.4-0.2,3.2,0.4,1.1,0.7,1.5v0.3l-0.1,1,0.1,0.4,1.4,2.2L218,112l0.7,0.2-0.6,2.2v0.7l0.3,0.6,1,1.2,0.4,0.3,3.2-.8-0.7,2.1-0.1,2.2-1.8,1.2-1.3.9-0.8.4h-0.8l-0.3.1-0.4.3-1.1,1-0.8.4-6.8,1.1-0.9.3-1.5,1.1-0.8.3-1.6.1-0.8.1-0.8.6-0.4.6-0.4,1.3-0.4.6-0.9.6-1.1.3-1,.6-0.5.3-0.5,1-0.7.9-0.8.7-0.9.3-0.7.4-0.8.9-0.7.6-0.7-.3,0.1-.8L190.4,125l0.2-1,0.5-.5h1.7l0.8-.2,0.4-.6-0.2-.5-0.9-.4-0.2-.3,0.2-.3,1.2-.6,0.2-.8,0.3-.5,0.6-.5,0.9-1,2.3-1.8,0.8-.4,1.4-1.3,0.8-.4,0.9-.6,0.3-.3,0.1-.5v-2.2h-0.6l-0.6.7-0.5,1.1-0.6,1.1-1.1.4-0.9.3L196,115l-0.5.5-0.5.1-2.3-.1-0.9.2,0.2-.7,0.4-1.4v-0.8h0.3l0.6,1,0.3-.5v-1.9l-0.2-.8,0.2-.1,0.6-.2,1.6,0.4,0.3-.1,0.3-.8,1.7-2,0.7-.7,1.5-1,0.6-.6,0.3-.9-0.4.2h-0.3l-0.5-.2-0.4.1-1.2.7-1.1.9-0.6.4-1,.2-1.4.2-1.4-.2-1.1-.7-0.3-.7-0.2-1.1-0.4-.6-0.6-.4-1.5-.2-0.3-.3,0.3-.5,0.8-.6,1-.3,0.6-.2,0.5,0.2,0.4,0.5v0.6l-0.6.3,0.4,0.3,0.6,0.3,0.7,0.1,0.4-.2,0.2-.6-0.1-.8v-0.6l0.5-.5-0.5-2.1-0.1-1,0.2-.9,0.4-.7,0.5-.5,0.6-.2,0.6-.7,1.6-3.7,0.4-1.4,0.6-1.1,3.2-1.1,1.6,0.5,0.2-.1,0.2-.8,0.2-.4,0.8-.4,3.3-.7,1.3,0.8,0.7,0.1,0.5-.1,1.1-.8,1.3-2,1.7,0.6,0.5-.2,0.3-.5,0.1-.6V82.2l-0.3-1.1V80.8l0.2-.4,0.3-.2H216l0.3,0.1,0.3,0.5,0.2,0.5,0.2,0.4,0.4,0.1,1.3-.9,0.4-.1,1.4,0.4,0.5-.1,0.2-.2,0.6-.8,0.8-.3,5.5,1.1,0.7-.1,1.5-.8h0Z"/><path id="_37" data-name="37" class="cls-1" d="M350.5,179.59l1.2-.8h0.4l0.4,0.2,0.6,1,0.3,0.3,0.6,0.2,1-.1,0.6,0.2,2.2,2-0.9,1.8-0.3,1,0.2,2,0.1,0.3,0.3,0.2,0.9,0.2,0.3,0.2,0.3,0.4,0.2,0.5,0.2,1-0.1,1-0.3.7-1,1.1,0.7,2.4-2.3,2.7,0.2,2.2-0.1.7-0.8,1.5-1.7,1.2-1.2,1.9-5.3,3.8-1,3.2-1.2,1.2-1.5.8-2.9.2h-0.2l0.2,2H344l-1.1,4-0.3.7-0.5.5-1.6.2,0.3,1.6-0.5.5-0.7.1-0.6-.5-1.1-1.2-0.1-1.1-0.2-.4h-0.5l-1.1.3-3.2,2.5-0.3.6,0.1,0.6,0.6,1.1,0.2,0.8v0.8l-0.2.6-2.1,3.1-1.6.6-0.9-.1-0.3-.3-0.1-.3,0.4-.7,0.1-.4v-0.5l-0.2-.4-0.4-.6-0.4-.1-0.4.1-1,.5-1.4.4-0.7.5-0.2.3-0.2.9-0.2.4-0.3.3-0.4.2h-0.6l-1.2-.5-1.6-.8-0.6-.5-0.3-.4-0.6-.5-1-.6-1.6-.6-0.6-.3-0.1-.3,0.3-.2,0.1-.2,0.2-.7,0.3-.4,0.1-.3,0.2-.4v-0.2l-0.2-.3-1-.3-0.5-.3-0.4-.4-0.1-.7-0.8-.2-0.4-.2-0.7-.8-0.5-.4-1.5-1-0.8-.1h-0.5l-0.4.3-1.5,1.1-0.6.3-0.6.1-0.8.2-0.4.2-0.7.7-0.2.4-0.4.8-0.4.3-1.4.2-0.4.2-0.4.3-0.9,1-1.7.6-0.3.2-0.9.3-0.4.2-1.4,1.1-0.5.7v0.4l0.3,0.8-0.1.5-0.1.3-0.3.4-0.3.3-0.7.2-3.1.6-0.6.2-0.4.3-0.5.2H288l-0.8-.5h-0.4l-1.5.8-0.8-.1-0.3-.1h-0.4l-0.5.2h-0.4l-0.5-.1-0.4-.2-0.5-.3-0.8-1-0.5-.4V232l0.2-.4,0.3-.4,1.9-1.4,0.4-.4,0.7-1.4-1.4-1.4-1.1-1.7L281,223l0.8-2,1-1.5,0.1-.7-0.2-1-0.5-.8-0.5-.6-0.3-.5-0.1-1.1,0.2-.9,1.1-1.9,0.3-1v-0.7l-0.1-1-0.4-2-0.5-1.9-0.1-.8v-1.7l0.2-.7-0.2-1,0.1-1.5,0.7-.2,0.2-.7-0.2-.8-0.5-.4-0.7-.1-0.3-.5-0.4-1.3-1-2.4-0.6-1-1.4-1.5-0.4-.7-0.1-.7,0.5-.8,0.1-1.1,1-.5,2.7,0.3,1.2-.1,0.6-.6,1.8-2.7,0.3-1-0.1-1.5,0.2-.4,0.6-.8,1.5-1.3,0.3-.5,0.3-.9,1.6-2.4,0.5-.5,0.8-.2H294l0.4-.3L297,173l0.6-.5,7.1,1.3,8.6,4.9,0.8-.9,2.4,0.3,1.1,0.4,0.2,0.3,0.2,0.4v0.4l-0.3.8,0.1,0.2,0.8,0.8,0.4,0.2,0.3-.1,0.5-.7,0.2-.1h0.3l0.5,1.1,0.5,0.2,0.7-.1,0.5-.5,0.3-.6v-0.4l-0.2-.7-0.1-1.4,0.1-1,0.5-.7,0.8-.1,3.5,1.1,4.4-.7,1.7-1L334,176l1.4,1.6,0.8,0.4,2.8,0.2,2.3,1.7,4-.5,0.2,2.2,0.2,0.1,1.5,0.2,0.3,0.2,0.9,1.1,0.3,0.2,0.4,0.1h0.5l0.4-.2,0.2-.3,0.1-.4,0.2-3h0Z"/><path id="_38" data-name="38" class="cls-2" d="M39.2,583.69l-1.8,2.8-0.1.3,0.1,0.6-0.2.3-0.7.4-0.2.5-0.6.7-0.2.4-0.1,1.2-0.4.6H34.4l-1-.6-0.6-.7-0.4-.7-0.6-.5-3.3-.4-0.9-.4-0.6-.7-0.3-1.8,1.2-.5,1.9,0.1,1.8,0.5,0.7-.5,1.7-1.7,0.3-.4,0.1-.6,0.2-.2,0.9-.4,1.5-1,0.9,0.1,0.8,0.5,0.6,0.6,0.2,0.7-0.3.8h0Zm30.1-11.5-1.2.4-1.1-.3-2.3-1.4-1.5-2.3v-1.8l0.2-1.9,1.3-1.8,2.3-.5,2,0.6,1.9,1.2,2.4,1.8,0.5,1.2,0.3,1.1-0.7,1-0.9.5-1.3,1.3-0.9.7Zm48.3-27.5-0.4,1.4-1.4,1-3.3,1.8-0.7,1.4-0.9.9-1.2,1.3-1.3,1-0.7.3-0.7.5-0.4,1v1.1l0.3,1.3-0.1.5-0.4.4-0.4.4-0.3,1.2-1.5,2.7-0.4,2.2V566l-0.5.9-0.7.8-2.9,2.9-1.1,1.7-1.5-.3-4.3,1.7-0.7-.1-0.5-.7-0.1-.5,0.1-.6-0.4-.2-0.4-.3-0.1-.4-0.1-1-0.1-.3-0.6-.8-1.7-1.7-0.4-.8-0.3-1.1-0.6-.8-0.8-.7-0.4-.7-0.3-2.2-0.2-.5-0.6-.9-0.5-1.2-1.5-1.5-0.4-1,1.1-.7,2.4-1.2,0.8,0.4,1.1,0.8,0.5,0.1h0.6l1.2-.4,1-.5,1.4-.4,1.1-.4,0.8,0.2,2.7-.3,0.9-.7,1.1-.1,0.5-.2,0.9-.1,0.9-.7,3-2.7,0.2-.4,0.1-.7,0.2-.4,0.8-.4,0.4-.3,0.8-.4,1-.2,0.8-.4,0.3-.9,0.7,0.3,4.3,0.1,2.7-1,1.1,0.6h0Zm-77.5-13.6,1,0.3,1.8-.7,0.9,0.3,0.7,0.7,0.4,0.5v1l0.3,1.3,0.4,0.8,0.8,0.5,0.1,0.9-1.3,1.5-0.7,1.2,0.4,1,0.5,1.8-0.4.9-0.2,1.4-1.1,1.4-0.9,2-0.8,1.7-0.4,1H41.3l-0.2-.5-1-.5-0.3-1-0.3-2.5-0.6-.6-0.3-.8-0.9-1.2-0.3-1.1-1.6-2.7-0.2-1.3-0.4-1.6-0.7-.5-0.5-.6,0.3-1.5,1.1-1.7,1.5-1.4,1.2-.7,0.9,0.5,1.1,0.2h0Z"/><path id="_40" data-name="40" class="cls-1" d="M428,156.19l0.2,1.3,0.2,0.5,0.4,0.4,1.8,1.1,0.4-.1,0.8-.4,0.3,0.1,0.5,0.3,0.5,0.4,0.1,0.3,0.1,1.4,0.3,0.5,1.5,0.9,1.5,0.2,0.3,0.3,0.2,0.5-0.4,2.5,0.1,1.1,0.5,0.6,5.9,4.5-0.9.5-1.3,1.5-1.4.1-0.5.3-2.1.4-2.3-.1-1.2-.5-0.1.1L434,176v0.4l-0.1.9-0.1.5-0.4.1-1,.3-3.4,2.6-0.4.1-0.8-.1-2,.5-1.4.8-0.5.5-0.6.8-0.8,1.1-0.9.9-1.9,1.3-0.6.6-0.5.5-0.4.9-0.5.9-0.6.9-0.8.6-3.8,1.3-0.5.4-0.4.5-0.4.6-0.6.8-0.6,1-0.2.9,0.1,0.8v0.4l-0.1.5-0.5,1-0.1.4v0.9l-0.1.4-0.3.9-0.4.8-0.5.4-1.1.2h-0.4l-0.3-.2-0.5-.1H405l-0.9.5-0.4.4-1.7,2.6-0.2.3-1.3,1.9-1-.5-2.7-.3-0.7.1-0.7.4-1-.2-0.8.8-0.2,1.4-1,.7-3.3.7-1.1-6.9-0.4-.7-1-1.1-0.2-.9-0.2-1.1-0.1-.4-0.4-.4-0.7-.1-1.6.5-0.5-.4-0.1-.6,0.6-1.3,0.1-.8-0.7-2.2-0.1-1.9-0.2-.4-0.3-.2-0.7-.3-0.5-.4-0.4-.5-0.9-2.3-0.5-.8-2.5-2.3L376,185l0.6-3.8,2.2-2.6v-1.3l3.2-3.4-1.2-1.1,0.4-1.4,1.8,1.1,1-1,2.8,1.7v-0.7l-0.1-.4-0.9-1.5-0.1-.4v-1.3l-0.9-2.7h1.3l3.5-1.9,1.9,0.1,1.8-.7h3.2l3.8-1.5,1.4-.2,5.3-2,0.7-.8,0.4-.8,0.4-2.5,4.1,2.1,2.4,2.8v0.1l2.2-.2,0.7,2.5,1.8,0.1v-2.8l0.1-.5,0.3-.5,1-.5,0.3-.3,0.5-1.1,0.3-.3,1.1-.6,1.1-.2,2.2,0.4,1.4-.7h0Z"/><path id="_41" data-name="41" class="cls-1" d="M337.6,355.29l-0.1,1.1,3.8,4.1,0.8,3.5,2.5,2.3,0.3,0.7,0.1,2.4,0.4,1.1,0.5,0.5,1.5,0.9,0.4,0.6,0.2,1.4,0.2,0.7,0.3,0.4,1.1,0.7-0.1,4.2-3.5.1-1,1.3,0.5,2.4,1,1.1,1.6,0.1,3-.8,3.8-2.6,0.5,0.3,1.2,0.2,1-.2,0.3-.3,0.8-1.2,2.3-.9,1.1-.2,1.1,0.4,0.9,0.8,0.7,1.1,0.5,1.2v0.5l-0.1.7,0.1,0.5,0.2,0.2,0.6,0.4,0.2,0.3,0.2,1-0.3,2.6-0.4,1,1.6,1.4,0.9,1.8,0.1,1.4L370,396l1.2,3,1.7,1.5,0.9,0.1,2.4-1.8,0.8,0.4,0.6,0.7,0.3,2.4,0.6,1.2,0.2,1.2-2.9-.3-0.7.9,0.7,1.7-0.1,1-0.8.8-1.7,1.1-0.8.2-2-1.9h-0.3l-0.3.2-0.3.8-0.4.4-0.4.1-1.9-.8h-0.5l-0.5.2-0.4.2-0.2.3,0.5,0.7,2,1.1-0.7,1.2-10,6.1-1.5,1.8-0.9.7-1,.5h-0.8l-0.6-.4-2-3.1-0.5-.3-0.3.1-4.9,3.6-0.5.2-0.5-.6v-1l0.8-1.7,0.1-1-0.3-.6-0.5-.4-0.6-.1h-0.6l-0.8.3-0.2.3-0.1.6,0.2,2-0.1.7-0.5,1.1-0.8.9-0.9.7-1,.3-0.9-.1-2.5-2-1.1-.4-1.1.7-1.1,1.9-3.9-.1-1.7.5-1,.8-0.6,1.2-0.5,1.9-2.2-.6-1.4.5-5.9-.8-2.3-1.6-3.3-.9h0.4l1.2-1.6-0.8.6-1.1.4h-1.2l-0.8-.7-1.9.8-0.6.4-1.7-1.6,1.1-2.9-1.2-3.5v-1.4l0.2-.6,0.9-1.3,0.1-.3v-1.8l0.4-1.7-0.5-3.3,0.1-.7,0.6-1.5v-0.8l-0.3-.8-1.4-1.4-0.1-.6,0.3-.5,0.6-.6,0.1-.7-0.3-1.5,0.2-.5,0.4-.2,1.1-.2,0.4-.3,0.2-.5-0.1-.5-1.8-3.3-0.9-2.8-1.1-1.6,0.3-1.6-2.2-1.1-2.8.1-1.1-.6,0.2-1.4,0.2-.4,0.9-.7,1.5-2.7,0.9-.5,6.1-1.7h2l0.4,0.4,0.2,1,0.2,0.3,0.3,0.2,0.5,0.1h0.3l0.3-.3,0.1-.5-0.1-2.3,0.6-.8,0.8-.3,1.7,0.6,1-.7-1-2.4,0.8-3.3L313,368l-1-.1-0.4.2-0.7-1.7,0.5-.6,1.4-1.1,1.1-.5,3.4-.7,0.8-.1,1.9-.4,0.6-.2,0.5-.3,0.5-.6,0.5-1.3,0.7-1,0.1-.4v-0.4l-0.1-.4-0.4-.7v-0.4l0.3-.8,0.3-.4,0.4-.3,1.1-.7,0.6-.6,0.4-.7,0.3-.3,0.4-.4,1.3-.5,3-.4,0.6,0.1,0.6,0.5,0.7,0.8,0.3,0.7-0.2.3-0.7.4-0.4.2-0.6.4v0.8l0.2,1.2,0.3,0.3,0.5,0.1,0.8-.2,1-.7,0.9-.9,0.3-.4,0.9-.6,1.9,0.1h0Z"/><path id="_42" data-name="42" class="cls-1" d="M502.7,133.79l0.3,2.9,0.6,1.9,0.9,1.3v1l-0.4.9-0.3.4-0.5.8-0.1.6,0.2,0.4,0.3,0.4,0.7,1.1,0.4,0.8,0.1,0.4,0.2,0.4,0.3,0.1,0.5,0.6-0.1.8-0.2.5-0.3.6-0.4,1-0.4.5-0.4.2h-0.4l-0.4.1-0.5.3-0.5.5-0.4.4-0.8.4-0.8,1-0.3.4-0.2.2-0.4.1-0.8-.3-0.4-.1h-0.5l-0.5.4-0.3.4-0.1.4,0.1,0.8,0.3,0.2,0.2,1.7-0.1,2.1,0.2,0.9,0.2,0.7,0.4,0.4,0.2,0.4,0.2,0.5,0.3,2.5-0.3.3-0.4.1-0.8.3-0.8.4-0.8.6-0.3.1H495l-0.3-.2-0.1-.3v-1.8l-0.2-.4-0.3-.2-0.8-.3-1.4-.2-0.5.3-0.2.4-0.1.4-0.2,1.5-0.2,1.3-0.5.9-0.7.3-0.2.2-0.3.4-0.3,1.1v2l0.5,1.1,0.1,0.4,0.4,2.2,0.1,2.2,0.1,0.5,0.3,0.3,0.4,0.1,0.8,0.1h0.5l0.8,0.3,0.9,0.8,0.4,0.5v0.9l-0.4,1.5,0.1,1.1,0.1,0.3-0.1.4-0.2.1-0.4-.1-0.5-.6-0.3-.3-1.1-.7-0.6-.6-0.3-.1-0.4.2-1.4,1.4-0.8.1-1-.1-0.8.1-0.6.3-0.5.5-0.5.2-0.7.3-1.1.2-0.6-.1-0.8-.5-0.4-.2-0.5-.2-0.5.2-1.5.7h-0.6l-1.2-.5-0.4-.4-0.4-.3-0.2-.5-0.2-.8-0.2-.4-1.1-.6-0.2-.5-0.1-.3-0.4-.8-0.4-.3-0.4.1-0.5.3-0.7.3-0.5-.1-0.3-.2-0.1-.3,0.3-.6,0.1-.4-0.3-.4-0.7-.5-0.4-.2,0.1-.3,0.7-.5,0.3-.7-0.3-.3-0.3-.1-0.8.2-0.4-.2-0.6-.7-0.7-.4-1.1-.1-0.8-.3-0.5-.2-0.5-.8-0.3-.4-0.6-.1H463l-0.4.2-0.4.3-0.5.3h-1.1l-1.7-.4-0.5-.3-0.3-.4-0.3-.8-0.2-.9-0.2-.4-0.8-.4-0.6-.1-0.5.2-0.4.2-0.5.6-0.1.4-0.7.5-1,.2-2.9.4h-1.6l-5.1-1.2-5.9-4.5-0.5-.6-0.1-1.1,0.4-2.5-0.2-.5-0.3-.3-1.5-.2-1.5-.9-0.3-.5-0.1-1.4-0.1-.3-0.5-.4-0.5-.3-0.3-.1-0.8.4-0.4.1-1.8-1.1-0.4-.4-0.2-.5-0.2-1.3-0.1-.9,0.1-.5,0.3-.3,0.3-.1,3,1.1,3-6,1.5-.2,0.2-2.6,1.5-.4,1.7-1.2,0.2-.4-0.4-3.7v-1.3l0.7-.6,0.8,0.1,0.7,0.9,0.4,0.5,1.2,0.5,0.3,0.3,1,2,4.3-5.4,1.3-.3,1.3,0.1,0.6-2,0.2-.3,0.3-.2h0.4l0.4-.1,0.2-.5,0.2-1.4L455,130l1-.3,1.7,0.5,1.4-.6,1.2-.8,0.5-.6,0.3-.5-0.1-.4v-0.5l0.1-.8,0.2-.5,0.2-.5,0.5-.6,0.6-.4,1.2-.1,0.4,0.1,0.4,0.2,0.1,0.4,0.1,0.9-0.2.8-0.2.4-0.6.5-0.6,1.7v0.5l0.2,0.3,0.6,0.4h0.7l0.6,0.1,0.4,0.2,0.9,0.6,0.5,0.1,0.2-.1,1.6-.1,1.3,0.2H471l0.2-.6,0.5-.8,0.4-.9,0.2-.5,0.3-.4,0.7-.6,0.2-.3,0.1-.9,0.1-1.3,0.1-.3,0.3-.1,0.9,0.2,0.4-.2,1-.7,0.6-.5,1.2-.4,2.8-.2,2.2,0.2,0.5,0.3,0.2,0.2,0.2,0.8v0.4l0.2,0.5,0.3,0.4,0.4,0.3h0.5l2.5-.8,0.8-.1h0.8l0.7,0.2,0.4,0.3,0.2,0.4v0.4l-0.2.3-0.3.3-0.4.2-0.2.3-0.1.4V128l0.2,0.5,0.2,0.4,1.1,0.9,0.4,0.7,0.1,0.6-0.4.5-0.1.4v0.4l0.3,0.9,0.2,0.3,0.4,0.3,2.5,0.6,0.7,0.1,1.1,0.4,0.9,0.8,0.5,0.1,1.1-.1,0.5-.1,0.4-.2,0.8-.5,0.4-.3,1.7-.9h0Z"/><path id="_43" data-name="43" class="cls-1" d="M657.1,179l-3.8.3-11.1,4.2-3.1.7-0.4.3-0.8,1.4-0.1.4-0.2.4-0.5.2-1.1-.7-0.3-.1-2,.1-1.8.3-1.7.8-1.2.7-5,5-2.4,3.2-4.9,5-0.8,1.7,1.2,0.7,1.2,0.5h0.6l0.2-.3-0.2-.4-0.6-.5,0.8,0.1,0.6,0.3,0.5,0.5,1,1.3,1.2,1,0.5-.1,0.9,0.3v1.2l-0.7,1.2-0.4.7-2.9.8-1.2,1.1-2.2,3.5-1.3,1-1.3.5-1.4.2-1.1-1.7,2.2-.2,1,0.7,1.4-.9,1.7-2.6-0.9-.1-1.4.1-3.6,1.2-0.9.6-0.7.8-0.7,1-1.1,2.7-0.2-.2-2.8-1.1-0.4-.4-0.3-.4-0.2-.5v-0.4l-0.3-.4-0.5-.4-1.4-.7-3.1-1.1-1-.6-0.4-.4-0.4-.9v-0.5l0.4-.8,0.1-.4-0.4-.5-0.6-.3-0.9-.3-0.5-.5-0.4-.9-0.2-.2-0.9.2-1.2-.3-0.2-.7,0.2-.2,2.4-1.5,0.3-.3,0.4-.8,0.9-1,0.4-.8v-0.4l-0.4-1.1-0.2-.5-0.1-1-0.3-.9,0.1-.6,0.4-1.4,0.2-.4,0.5-.8,0.2-.5,0.2-.5,0.2-1.3-0.7-2.2-0.7-.5-0.6-.3-0.7-.6-0.5-1.6-0.2-.8-0.2-.3-0.1-.5v-0.4l0.1-.9,0.2-.4,0.5-.2,0.8-.1,0.3-.3,0.4-.6,0.8-.2,0.4-.2,0.4-.3,0.3-.4,0.3-1.1,0.1-.9,0.2-.4,0.3-.5,0.7-.4,0.5-.3,0.5-.4,1.2-2.7,2.1,0.2,0.2-2.9,0.3-.4,0.4-.2,0.4,0.1L606,171l0.9,1.7,0.3,0.4,0.5,0.2h0.5l0.4-.2,0.4-.4,0.3-1,0.3-.3,0.4-.2,0.4,0.2,1.1,1.1,1.1,0.2,5.1-1.1,1-.8h2.1l0.5-.6,0.3-.6,0.2-.3,0.2-.1,0.4,0.1,1.2,0.8,0.4,0.1,3.5-.8,0.5-.6,0.6-1.6,0.3-.4,1.6-.4,0.9-1.2,0.8-1.5v-1.4l0.1-.3,0.3-.2,2,0.6h0.6l1.2-.4,0.4-.4,0.2-.5-0.1-1.4,0.4-1.5,0.7-1.3,0.6-.4,7.3,0.4,0.9-.5,1.2-.1,0.5,0.1,0.3,0.5-0.4.8-1.4,1.9,0.4,0.8,2.4,1,1,0.8-0.1,1.3-0.4,1.7,0.6,1.1,2.3,1.3,1,1.1,0.2,0.5,0.1,1.4,0.9,2,1,0.7,0.2,0.4,0.1,0.6-0.1.4-0.3.4-1.2.6-0.2.2v0.6l0.4,0.4,1.5,0.1,0.3,0.2,0.2,0.3-0.2,1.5h0Z"/><path id="_44" data-name="44" class="cls-1" d="M594.7,186.19l0.5,1.6,0.7,0.6,0.6,0.3,0.7,0.5,0.7,2.2-0.2,1.3-0.2.5-0.2.5-0.5.8-0.2.4-0.4,1.4-0.1.6,0.3,0.9,0.1,1,0.2,0.5,0.4,1.1v0.4l-0.4.8-0.9,1-0.4.8-0.3.3-2.4,1.5-0.2.2,0.2,0.7-1.2.5-1.7.1-0.6.1-0.5.2-0.8.5-0.3.3-0.5.4-0.4-.1-0.3-.1-0.1-.8-0.1-.4-0.3-.4-0.8-.2-2.2.2-1.1-.3-2.1-1.3-0.6-.6-0.4-.3-0.4-.3-0.6-.3h-0.8l-0.5.2-0.8,1-0.4.8-0.2.8-0.1.9v0.9l-0.2.3-2.3,1.3-0.3.3-0.5.3h-0.4l-0.7-.5-0.8-.1-0.5.1-0.5.3-0.4.4v0.4l0.1,0.4-0.1,1.3,0.2,0.3,0.7,0.4h0.3l0.4,0.3,0.7,0.1,0.8-.2h0.3l0.3,0.2v0.8l-0.2.9,0.1,0.8,0.2,0.8v0.8l-0.2.8v0.8l0.7,0.4,0.4,1.1v0.4l-0.2.2-2.1.8-0.4.5-0.3.4,0.2,0.9,0.3,0.3,0.6,0.5,0.3,0.3,0.6,0.7,0.2,0.4,0.2,0.4v0.6l-0.3.4-1.7,1.1-0.5.5-0.7,1.2-0.5.5-1,.8-0.1.3,0.2,0.9-0.1.6-0.3.4-0.3.3-1.7.8-0.4.1-0.8.1-0.8.2h-0.6l-0.6-.1-0.8-.4h-0.5l-0.2.3-0.1.4v1.6l-0.2.9-0.5.9-0.1.9-0.2.5-0.4.6-0.6.4-0.7.8-0.2.4-0.1.5,0.3,1.2-0.1.4-3.1,1.5-1.7.3h-0.7l-0.4-.1-0.3.1-0.1.3-0.2.9-0.2.6-0.4.4-0.7.5-0.5.1-1,.6-0.3.4-0.2.4-0.1,1.3,0.1,0.3v0.4l0.1,0.8,0.4,0.7,0.7,0.5,0.5,0.6,0.3,0.6-2.5,1.3-0.6.1-0.8.1-0.4-.2-0.4-.3-0.3-.3v-1.7l-0.4-.7v-0.4l0.3-.7v-0.5l-0.1-.5-0.7-.7-2.2-1.1-0.7-.2-0.5-.1-0.8.1-1.6-.1-1.1.3-0.8.3H536l-1,.3-0.7-.5-0.8-2.2,1-.3,2.1-1.1,0.4-.3,0.2-.3,0.2-.4-0.2-.8-0.6-.7-1.5-1.2-1.1-.7-2.8-.3-0.9-.4-0.3-.4-0.2-.3v-0.6l-0.5-.4-0.6-.6-0.3-.4-0.3-.8-0.4-1.1-0.3-.1-0.6.5-0.3.4-0.1.5,0.2,0.9v0.4l-0.3.5-0.8.3-0.9.2h-1.4l-2.4-.6,0.3-.5,0.2-.7v-0.5l-0.1-.7-0.2-.3-1.1.2h-0.5l-0.6-.3-0.7-.2h-0.4l-0.6.4-0.4-.2-0.6-.4-4.7-4.5-1.1-.6-0.6-.1-0.6.4-0.3-.1v-0.7l0.2-.5V230l-0.2-.8-1.9-2.5-0.7-.8-1.3-.5,0.5-.8,0.3-.1,0.3-.3,1.5-2.2,0.3-.5,0.4-.3,0.9-.4,0.3-.3,0.3-.5v-2.8l0.7-2.2,0.3-.3,0.3-.3,1.1,0.3h0.4l0.7,0.3,0.7,0.5h0.8l0.7-.4,0.4-.3,0.5-.7-0.2-1.1v-0.7l0.3-.9,0.3-.8,0.2-.5v-1.2l-0.1-.6-0.3-.8-0.3-.5-0.2-.5,0.1-1.1,0.2-.5,0.4-.9,0.1-.6V202l-0.1-.5-0.1-.4-0.4-.5-1.2-.8-0.6-.7-0.3-.5-0.4-.7-0.2-.9,0.1-1.9,0.1-.5-0.6-1.1,3,0.1,1.3-.5,1.4-.1,0.8,0.3,0.5-.1,0.4-.5,0.3-.6v-0.7l-0.3-1.2-0.1-.7,0.3-.5,1-.3,0.3-.3,0.2-.4,0.4-1,0.2-.4,0.5-.4,0.5-.2h0.5l0.5,0.2,1.3,0.9,2.6,0.1,0.6-.4,0.2-.7-0.2-.5L529,185l-0.1-.6V184l0.5-1.2,0.4-.3,0.5-.2h0.9l2.1,0.9,0.4-.1,1.6-.8,0.5-1.1,0.4-.3,0.7,0.1,3.8,2.6,0.1,0.6,0.1,0.4,0.3,0.3,1.5,0.8h0.4l0.4-.2,2.4-2.8,2.6,2.2L549,185l0.5-.2,0.4-.5,0.9-2.9,0.5-.6h0.5l0.4,0.3,2.1,2.6,3.7-4.6-1.4-2.8,0.7-.6-0.2-3.6,0.1-.6,0.4-.4,0.4,0.1,0.4,0.3,3,5.1,0.4,0.4,0.3-.1,0.3-.5,0.1-.8-0.6-1.6-1.6-2.8-0.3-.7,0.1-.6,0.5-.4,2.6-.1,0.3,0.2,0.3,0.4,0.2,1,0.2,0.3,0.2,0.3h0.9l0.2,0.2,0.5,1,1.1,1.5,3,1.8,1.1-.8,2,2.4,10.3,4.7,0.8,0.8,1.7,4,0.8,0.3,0.2-.2,0.5-.9,0.3-.4,0.5-.2h2l1.1,0.6,1.1,0.1,2.2-.3h0Z"/><path id="_45" data-name="45" class="cls-1" d="M444.8,244.89l-0.3,1,1.2,3.7,2-.1v3.1l-1.2,3.2,1.3,0.5,1.6,1.8,0.8,2.9,1.1,1.3,0.7,2.5,4.1,4.6-0.8,2.3-0.2,7.5-2.1,1.6-2-.7-2.1.3-3.2-2.6-1.9.5v0.8l-4.8.2-0.5.4-0.6,2.3-0.4.7-0.7.4-2.5-.1-3.1,1.9-0.3,1.7-3.5,2.5-1.4-.5-4.1.8-1.9,1.4h-0.6l-2-1.4-0.8.1-0.7.5-1.2,1.4-1.5-.2-1.2-1-2.9-1-0.2-3.1-4.5-.8-1.1,1.2-0.3.1-0.5-.1-1-.8-0.3-.5,0.1-.6,0.7-1.8,0.4-2.7,1.7,0.2,0.7-.7,0.2-.5v-0.6l-0.1-.4-0.6-.7-0.1-.4,0.1-.7,0.5-.3,0.6-.2,0.4-.5,0.2-.4-0.1-1.2-0.1-.5-3.6.7-1.6-.7-1.5,4.5-2.2,1.1-8.2-1.7-0.3.1-0.3.2-0.4.8-0.6.3-0.5-.1L386,278l-0.5-.6-0.5-2.6h-1.2l-0.7.5-0.4,1-0.2,1.4-0.7.3-0.7.6-0.6.7-0.2.9-3.3.3-0.5.6-2.2,1.2-0.6-.9,1.1-2.5-0.2-.8-0.4-.6-0.9-1-3.9-2.1-0.5.2-1.1,2-2,7.2-1.2-1-0.6-.7-0.4-.6-1.4-1.6-0.6-1.1-0.3-.2-0.8-.2-0.7-.4-0.3-.4-0.7-.6-0.9-1-1.6-2.1-0.4-.3-0.7-.5-0.6-.6-0.1-.3,0.1-.4,0.9-1.4,0.2-.4,0.5-.7,0.4-1.1,0.1-1.2,0.1-.8,0.2-.4,0.1-.5-0.1-.4-0.3-.5-0.6-.7-0.1-.4,0.3-.8v-0.6l-0.2-.7-0.2-.5-0.4-.2h-0.3l-0.8.1-0.3.1-0.9.8-0.4.4-0.5.8-0.5.3h-0.6l-1.5-.3-0.3-.3-0.1-.5,0.1-1.2,0.1-.6,0.2-1.4,0.2-.5,0.5-.7,0.1-.4v-0.4l-0.2-.3-0.5-.7-0.4-.3-0.3-.2-0.4-.1-1.2.1-0.9.2-0.4.2-0.2-.7v-1.6l0.7-4.3,0.3-3.1-0.1-.5v-0.6l0.2-1.5,0.4-.7,1.3-.6,4.3,0.5,1.3,0.6,0.5,0.4,1,0.1,0.7-.2,0.5-.2,0.4-.4,1.8-1.4,0.6-.7,0.3-.3,0.6-.3,1.1-.4h0.5l0.3,0.3,0.3,1.6,0.2,0.3,0.6,0.2,1-.2,0.7-.3,0.9-.7,0.4-.3,0.3-.8,0.1-.5,0.4-.7,0.5-.4,0.7-.5,0.5-.4,1-.6,0.7-.6,0.5-.7,0.2-1,0.2-.8,0.3-.3h0.9l2.1-.3,1-.3h0.4l0.3,0.4-0.1.4,0.2,0.8,0.2,1.4,0.1,0.4,0.3,0.3,0.3,0.3,0.8,0.4,0.6,0.2,0.6-.1,1.1-.2,1.3-.6,1,0.7,0.7,0.1h0.6l0.4-.3,0.2-.3,0.4-.4,0.6-.3,1.4-.6,0.6-.5,0.4-.4,0.2-.5,1.4-1.4,0.3-.4,0.2-.4,0.5-.9,0.3-.1,0.5,0.4,0.2,0.3v0.4l-0.1.8v0.5l0.1,0.4,0.4,0.7,0.6,0.7,0.7,0.3,0.6,0.7,0.5-.1,0.6-.5,0.3-.3,0.3-.6,0.4-.6,0.2-.3,0.5-.4,1.1-.2,1.1-.7h0.4l0.4,0.3,0.2,0.3,1.3,1.3,0.7,0.2,0.8,0.2,0.6-.2,0.8-.6h0.4l1,0.4,0.4,0.3,0.3,0.3,0.5,0.8,0.4,0.4,0.6,0.2,2.3,0.8,1.5,0.7,2.1,0.5,0.4,0.4,0.3,0.3,0.4,0.4h0.4l0.8-.2,0.3,0.1,0.3,0.3,0.7,1,0.6,0.3,0.5,0.2,1.1-.2,0.6,0.1,0.7,0.2,0.9,0.1,2.1,1,0.5,0.4,0.2,0.3v0.9l-0.1.3-0.4,1.2-0.6,1-0.7.5-0.3.1-0.6.3-2.1,2.2-0.7.6-0.8.3-0.3.2-0.7.8-0.2.2H417l-2.8.9-0.5.3-0.4.4,0.2,0.4,0.5,0.5,1.4,0.9,0.7,0.1,0.5-.2,0.4-.4,0.7-.5,0.3-.2,0.7-.6,0.4-.5,0.3-.3,0.8-.3,0.8-.1,0.5-.2,0.8-.5,1-.3,0.4-.2,0.1-.3v-0.9l0.2-.2,0.7-.3,0.8-.2,0.6-.5,0.4-.2,1.8-.5,0.4-.1,0.5-1,0.6-.5,4.2,0.2,1.5-.7,0.9,0.6,0.5,0.1,0.5-.1,1.8-.4,2.7-1.4,1.8-.6,0.8,0.5,0.2,0.2,0.1,0.6h0Z"/><path id="_46" data-name="46" class="cls-1" d="M550,255.79l0.7,0.5,1.7,2.8,1.1,0.2,0.9-2,1.6,0.9,0.5,2.6v0.8l-0.1.6v0.5l0.5,0.6,0.7,0.1,0.8-.3,0.7-.5,0.7-1.2,1.6-.9,2.5,3.9,0.9,0.3,1.1-.3,1-1,1.3-2.1,1.5-.9,1.7,0.6,1.6,2.1,3.4,2.1-0.2.6-0.1,1.4-0.3.9-0.5.8-1,1.1-0.7.9-0.5,1-0.2,1-0.3.7-1.4,2-0.5,1-0.3,2.1,0.1,2.9,0.3,2.4,0.9,3.8,2.8,6.1,1,1.9-0.5.4-0.7.5,0.3,1.1,0.4,2,0.7,1.9,1.2,2.1,1.2,2.3,1.6,2.9,0.7,0.9,1.6,1.3,1.7,1.7-8.9,1.7-3.5-1.6-4.7,3.6-7.9,1.3,1.3,2.3,0.8-.3,0.6-.1,0.6,0.3,0.6,0.8-4.8,2.8-0.9-.5-0.7-.9-3.5-2-0.8-.1-3,.8-0.7-.3-1.2-1.3-0.4-.3h-0.4l-1,.3-0.4-.1-0.4-.1-0.6-.7,0.4-.4,0.1-.9,0.3-.7v-0.3l-0.6-1.7V314l0.2-.8v-0.5l-0.2-.5-1.5-2.5-0.5-.4-0.9-.3-0.6.2-0.7.4-0.8.2h-1.2l-1.2.3h-1.3l-0.5-.3-0.8-.6-4.3-5.1-0.3-.6-0.3-.9V302l0.3-1.3,0.2-.3,0.4-.9,0.2-.4,0.3-.9,0.2-.4,0.5-.7,0.6-.6,0.3-.8,0.7-2.1,0.1-.8-0.1-.4v-0.9l0.1-.9,0.3-.9-0.1-.4-0.3-.5-5.9-1.9h-0.8l-0.4-.2-2.1-1.4-0.9-.3h-0.4l-0.5.2h-0.9l-0.1-.4-0.1-.9-0.2-.2-0.4-.2-0.2-.4-0.3-.1-0.2-.2-0.3-.6-0.6-.1-0.3-.5-0.3-.4-0.1-.2-0.1-.6,0.3-.5,0.3-.9-0.1-.7,0.1-.2,0.3-.3-0.2-.4v-1.1l0.1-.8-0.2-.5,0.1-.5,0.2-.6,0.2-.2,0.4-.2,0.5-.4,0.5-.7,1.6-3.2,0.2-.3,1-1,0.8-.7,0.4-.2H525l1.5,0.7h0.8l0.5-.1,0.7-.4,0.4-.8v-0.5l-0.1-.9-0.1-.9,0.2-.5,1-1.9,0.5-.7,0.3-.5,0.4-.9,0.6-3,0.1-.9,0.1-.9,0.1-.9v-0.4l-0.1-.4-0.3-.5v-0.3l0.1-.4,0.3-.3,1.7-.8,0.6-.5,0.7,0.5,1-.3h0.4l0.8-.3,1.1-.3,1.6,0.1,0.8-.1,0.5,0.1,0.7,0.2,2.2,1.1,0.7,0.7,0.1,0.5V253l-0.3.7v0.4l0.4,0.7v1.7l0.3,0.3,0.4,0.3,0.4,0.2,0.8-.1,0.6-.1,2.5-1.3h0Zm-16.5-7.7-0.8.1-0.3.2-0.8.1-0.8.1-0.4.1-0.5.2-0.7-.1-1.2-.4-2.8-.5h-0.4l-0.5-.1-0.4-.4-1.2-3.6-0.3-1.2-0.2-.2-1-.7-0.5-.6,0.1-1.1,2.4,0.6h1.4l0.9-.2,0.8-.3,0.3-.5v-0.4l-0.2-.9,0.1-.5,0.3-.4,0.6-.5,0.3,0.1,0.4,1.1,0.3,0.8,0.3,0.4,0.6,0.6,0.5,0.4v0.6l0.2,0.3,0.3,0.4,0.9,0.4,2.8,0.3,1.1,0.7,1.5,1.2,0.6,0.7,0.2,0.8-0.2.4-0.2.3-0.4.3-2.1,1.1-1,.3h0Z"/><path id="_47" data-name="47" class="cls-1" d="M344.6,129.19l-0.7,3.8-2.1-1,0.6-1.3-1.6-3.1-0.6-2.3,4.4,3.9h0Zm5.3-13.2-0.7.4-0.8-.1-0.5-.8v-1.1l0.8-.7,0.9-.2,0.3,1.2V116h0Zm13.3-2.2-0.7,3.5,0.2,2.7-0.6,1.9,4.4,0.2,0.3,3.5-0.1.6-0.2.6-0.8,1v0.5l0.2,1.2-0.1.5-0.9.7-0.1.3-0.2.9-1.5,2.9,0.8,1.4,1.7-1.2,0.9,1.1,2.6-.9,1.4,1.9,2.2,4.8,1.3-.4,1.3-1.6,0.9-1.6,0.7-.6,0.8-.5,0.4-.1,0.3,0.1,0.6,0.4,0.3,0.2,0.3,1.4,2.7,2.9,2.3-.5,1.3-.9-0.1,3.5,1.4,0.8,0.8,0.2,0.4-.1,0.9-.8,0.6-.2,3.9,0.6,1-.4,1.5-1.4,0.7-.2,4,0.4,1.2-.5,1.1,1.9,2.6,0.4-0.7,1.6,1.1,2.4,0.2,1-0.2,3.2,1.7,1.3,0.5,1.5-0.4,2.5-0.4.8-0.7.8-5.3,2-1.4.2-3.8,1.5h-3.2l-1.8.7-1.9-.1-3.5,1.9h-1.3l0.9,2.7v1.3l0.1,0.4,0.9,1.5,0.1,0.4v0.7l-2.8-1.7-1,1-1.8-1.1-0.4,1.4,1.2,1.1-3.2,3.4v1.3l-2.2,2.6-4.1,1.1-1.9,1.9-0.9.4-1.3-.5-4-2.9-1-.3-0.9.1-1.8,1.2-1.5-.3-0.6.1-0.8.6-2.2-2-0.6-.2-1,.1-0.6-.2-0.3-.3-0.6-1-0.4-.2h-0.4l-1.2.8-1.6.3-0.7-1,1.5-1.4,0.5-.9,0.1-1.2-0.2-2.3-0.2-.8-0.9-1.6-0.2-.6-0.1-.8,0.4-3.2-0.2-.4-0.4-.3-0.2-.6-0.1-1,0.1-1,0.3-.8,0.6-.7,0.5-.4,1.9-.3,0.4-.2,1.2-1.3-2.7-2-0.2-.6,0.2-.5,0.3-.4,0.2-.5-0.2-.5-1.4-.6-0.4-.9-0.2-2.4-0.4-.9-1.4-2-1-2.5,4.9-3.1-1-2.2-0.2-1.2,0.1-1.3,0.4-1v-0.7l-0.4-1.4v-0.7l1.1-1.4-4.3-3.7-0.5-2.5,0.5-3.1-0.4-3.6,0.2-1.2,0.9-.6,0.4,0.2,1.4,1.1h0.5l1-.8,0.6-.2,0.4,0.1,0.2-.4,0.4-1.4,0.6-.9,0.3-.3,0.5-.1,1.1,0.5,1.1-.4,1-.7,1-1.2,0.5-.4,0.9-.1,1.3,2.1,1,0.4,0.1-1.8,1.6,0.5h0Z"/><path id="_48" data-name="48" class="cls-1" d="M478.3,50.79l-1.5,2.5,1,1.3L476,57l-0.4.2-0.4-.2-0.6.4,0.1,2.3-0.3.9-0.4.1-0.1.4,0.4,2.6-0.2.9-0.5.6-1.5.3-2.3.4-1-.4-0.7.2-0.9.6v0.3l1,1.4,0.2,0.7-0.1.7-0.3.1-1.3-.3-0.8.4h-0.5l-1.8-.7-1.9.3-2.1-.6-1-.6-0.5-.1-1.4.1-2.4-2.2-0.4-.8,0.2-.8,0.7-1.6,0.1-.7-0.7-1.6-0.9-1.2-0.6-.5-0.6-.2-0.8.3-0.2.5-0.2,1.3-0.3.6-0.5.4-2.7.5-0.6-.2-1.1-1V60.2l-0.4-.4-1-.1h-1.5l-1-.2-0.7-.7-0.6-.2-0.8.3-3.8,2.4-2.7,1-0.1-.7-0.3-1.3-0.3-.9V58.6l-0.1-.9-0.1-.5,0.1-.5,0.5-.6,3.7-2.7,0.5-.5,0.6-.3,2.7,0.2,1.2-.1,1,0.3,0.4,0.1,1.9-1,0.3-.4,0.2-.6-0.1-2.2,0.9,0.3,0.8,0.1,1.1-.8,1.4,0.9,2.2,1.9V50.9l-0.6-1.5-0.1-.7-0.3-.5V48l0.2-.3,0.6-.2,0.5-.6,2-1.2,0.7-.2V45h-0.3V44.6l0.7-.4,1.1-.1,2.3,0.1,2.1-.2,1.7-.7,0.5,0.1,1,0.7,0.9,0.9,0.3,0.7,0.6,1.5,0.1,1.3,0.2-.2,0.3-1.2,0.1-1,0.2-.2,0.5-.1,0.6,0.1,0.5,0.3,1.4,0.2,2.5,1.1,1.9,0.4,1,0.4,0.9,1.3,2.5,1.2h0ZM440.2,57l-0.1-.6-0.8-1.1-0.8-.3v2.4l0.3,0.3,1.4-.7h0Z"/><path id="_49" data-name="49" class="cls-1" d="M340.2,125.29l0.6,2.3,1.6,3.1-0.6,1.3,2.1,1,0.7-3.8,2-.6,4.3,3.7-1.1,1.4v0.7l0.4,1.4v0.7l-0.4,1-0.1,1.3,0.2,1.2,1,2.2-4.9,3.1,1,2.5,1.4,2,0.4,0.9,0.2,2.4,0.4,0.9,1.4,0.6,0.2,0.5-0.2.5-0.3.4-0.2.5,0.2,0.6,2.7,2-1.2,1.3-0.4.2-1.9.3-0.5.4-0.6.7-0.3.8-0.1,1,0.1,1,0.2,0.6,0.4,0.3,0.2,0.4-0.4,3.2,0.1,0.8,0.2,0.6,0.9,1.6,0.2,0.8,0.2,2.3-0.1,1.2-0.5.9-1.5,1.4,0.7,1,1.6-.3-0.2,3-0.1.4-0.2.3-0.4.2h-0.5l-0.4-.1-0.3-.2-0.9-1.1-0.3-.2-1.5-.2-0.2-.1-0.2-2.2-4,.5-2.3-1.7-2.8-.2-0.8-.4L334,176l-0.5-.1-1.7,1-4.4.7-3.5-1.1-0.8.1-0.5.7-0.1,1,0.1,1.4,0.2,0.7v0.4l-0.3.6-0.5.5-0.7.1-0.5-.2-0.5-1.1H320l-0.2.1-0.5.7-0.3.1-0.4-.2-0.8-.8-0.1-.2,0.3-.8v-0.4l-0.2-.4-0.2-.3-1.1-.4-2.4-.3-0.8.9-8.6-4.9-7.1-1.3,0.8-.7,1.5-1.4,1.4-2.3,0.1-.1,0.6,0.1h0.2l0.1-.4v-0.8l0.4-.5,0.7-.2,1.3-.1v-0.5l1.7-2.7,0.1-.4-0.2-.4v-0.5l0.3-.6,1.1-1.2,2.1-3.1-1-1.5-1.9-2-2-1.3-2.1-.8-3.6-.7-0.7-.1-0.6.7-0.6.4-0.6.3-0.5.2-1.2-.5-0.6-1-0.3-1.1-0.1-1.1-0.2-.6-0.3-.5-0.1-.5,0.2-.6,0.4-.5,0.1-.5,1.1-4.9,0.5-1.1-1.1-.4-0.8-.1-0.4-.4,0.4-2.6-0.2-1-0.6-.7-1-.5-0.6,1.3-1.5.5-3.2.1-1.3-.4-1.6-2.5-1.4-.3-0.3,1.8-1,.7-2.8.2-1.2-.2-1.1-.9-0.6-.3v-0.7l-0.2-.5,0.2-.8,0.8-1.9-0.1-.5-0.5-.7-0.3-.2h-1.2l-0.6-.6-0.1-.4,0.1-.5,0.6-.5,1.1-1.7,0.4-.4,0.7-.4,0.3-.3,0.5-1.6,0.2-.4,0.3-.5,1.5-1.6,0.7-.6,0.7-.4,1-.2h0.7l0.8,0.2,0.3-.1,0.1-.7,0.1-.5,0.7-.9,3.5,2.2,0.7,0.2,1.6-.2,0.4,0.1,1.2,0.6,2.6-.1,1.6,0.4,1.4,1L300,119l3.9,0.1,0.9-.4,0.4-.1,0.4,0.4,0.5,1,0.5,0.4,1.6,0.6,1.3,1.1,0.4,0.1,7.1-.6,3.9,2,0.3-.1,0.5-.5,0.3-.1h0.5l0.4-.2,0.2-.5,0.2-.2,0.4,0.1,0.4,0.5,0.7,1.2,1.4,0.2,3.6-1.1,0.6,1.4,2.9-.4-0.1-1.2,1,0.3,0.6,0.4,0.8,1,0.2,0.6-0.2,1.1,3.2,1.2,0.5-2.1,0.9,0.1h0Z"/><path id="_50" data-name="50" class="cls-1" d="M600.1,166.39l-0.7.9,0.2,1.2,0.3,0.1,0.8,0.4,0.6,0.6,0.3,0.8,0.2,1-1.1,2.5,0.1,1.3,0.2,1.4-0.5.4-0.5.3-0.7.4-0.3.5-0.2.4-0.1.9-0.3,1.1-0.3.4-0.4.3-0.4.2-0.8.2-0.4.6-0.3.3-0.8.1-0.5.2-0.2.4-0.1.9v0.4l0.1,0.5,0.2,0.3,0.2,0.8-2.2.3-1.1-.1-1.1-.6h-2l-0.5.2-0.3.4-0.5.9-0.2.2-0.8-.3-1.7-4-0.8-.8-10.3-4.7-2-2.4-1.1.8-3-1.8-1.1-1.5-0.5-1-0.2-.2h-0.9l-0.2-.3L564,171l-0.2-1-0.3-.4-0.3-.2-2.6.1-0.5.4-0.1.6,0.3,0.7,1.6,2.8,0.6,1.6-0.1.8-0.3.5-0.3.1-0.4-.4-3-5.1-0.4-.3-0.4-.1-0.4.4-0.1.6,0.2,3.6-0.7.6,1.4,2.8-3.7,4.6-2.1-2.6-0.4-.3h-0.5l-0.5.6-0.9,2.9-0.4.5-0.5.2-0.5-.1-2.6-2.2-2.4,2.8-0.4.2h-0.4l-1.5-.8-0.3-.3-0.1-.4-0.1-.6-3.8-2.6-0.7-.1-0.4.3-0.5,1.1-1.6.8-0.4.1-2.1-.9h-0.9l-0.5.2-0.4.3-0.5,1.2v0.4L529,185l0.3,0.6,0.2,0.5-0.2.7-0.6.4-2.6-.1-1.3-.9-0.5-.2h-0.5l-0.5.2-0.5.4-0.2.4-0.4,1-0.2.4-0.3.3-1,.3-0.3.5,0.1,0.7,0.3,1.2v0.7l-0.3.6-0.4.5-0.5.1-0.8-.3-1.4.1-1.3.5-3-.1-1.5-1.4-0.3-.4-0.4-.4-0.3-.4-2.4-2.1-0.6-.7-0.3-.4-0.1-.4-0.5-.8-2.2-1.9-1.5-.8-1.8-1.4-1.1-.5-0.6-.4-0.4-.4-0.3-.4-1.2-.4-3.6,1.2-0.4-.5-0.9-.8-0.8-.3h-0.5l-0.8-.1-0.4-.1-0.3-.3-0.1-.5-0.1-2.2-0.4-2.2-0.1-.4-0.5-1.1v-2l0.3-1.1,0.3-.4,0.2-.2,0.7-.3,0.5-.9,0.2-1.3,0.2-1.5,0.1-.4,0.2-.4,0.5-.3,1.4,0.2,0.8,0.3,0.3,0.2,0.2,0.4v1.8l0.1,0.3,0.3,0.2h0.4l0.3-.1,0.8-.6,0.8-.4,0.8-.3,0.4-.1,0.3-.3-0.3-2.5-0.2-.5-0.2-.4-0.4-.4-0.2-.7-0.2-.9,0.1-2.1-0.2-1.7-0.3-.2-0.1-.8,0.1-.4,0.3-.4,0.5-.4h0.5l0.4,0.1,0.8,0.3,0.4-.1,0.2-.2,0.3-.4,0.8-1,0.8-.4,0.4-.4,0.5-.5,0.5-.3,0.4-.1h0.4l0.4-.2,0.4-.5,0.4-1,0.3-.6,0.2-.5,0.1-.8-0.5-.6-0.3-.1-0.2-.4-0.1-.4-0.4-.8-0.7-1.1-0.3-.4-0.2-.4,0.1-.6,0.5-.8,0.3-.4,0.4-.9v-1l-0.9-1.3-0.6-1.9-0.3-2.9,0.4-1.4,0.2-.3-0.4-1.1h0.5l0.8,0.4h0.4l1.7,0.1,0.7,0.4,0.4,0.3,0.5,0.7,0.7,0.5,0.9,0.4,0.4,0.1,0.4-.1,0.9-.4,0.4-.1,0.8,0.3,0.7,0.4,0.7,0.5,0.5,0.7,0.3,0.3,0.7,0.5,0.8,0.4h0.8l0.8-.2,0.7-.3,0.6-.2h0.3l1.3,0.4,0.4,0.1,0.8,0.2,0.3,0.1,0.5-.4,0.2-.6,0.4-.4,0.5-.7,0.1-.5,0.3-.5,0.6-1.4,0.8-1.3,0.9-1.3,0.3-.5,0.2-1.1-0.2-.5-0.3-.2-0.5-.1-0.4-.1-0.3-.2-0.5-.7-0.1-.4-0.4-.8-0.7-.6-0.2-.3-0.1-.5,0.1-.8-0.1-.5v-1.2l-0.1-.5L523,120l-0.5-.7-0.2-.5-0.1-.4v-0.5l0.2-.6,0.4-.8,0.1-.6,0.3-1v-0.4l0.2-.6,0.3-.8,0.9-1.4,1.3-1.6,0.1-.5-0.1-.3-0.2-.4-0.3-.2-0.2-.3v-0.5l0.1-.6,0.3-1.1,0.9-1.6,1.2-1.1,0.6-1,0.3-.7v-0.4l-0.4-.9-0.1-.4,0.3-.9,0.3-.6,0.3-.4,0.3-.3h0.5l0.8,0.2L531,98l0.6-.4,0.1-.5,0.3-.5,0.5-.6,1.1-.7,0.3-.6-0.7-.3,0.2-.2,0.4-.3,0.1-.6,0.1-.4,0.3-.3,2.6-.4,0.5,0.1h0.9l0.4-.2,0.2-.4,0.3-.8V90.1l0.1-.5,0.3-.3,2.1-.6,0.6-.3,0.6-.4,1.1-1.1,1-.4-0.4,1.6,0.1,0.5,1.2,1.1,0.1,0.6-0.2.6-0.4.3-1,.3-0.2.2-0.1.6,0.8,2,0.4,7.1,0.3,1.4v0.8l-0.5,1.1,0.1,0.4,2.5,1.6,0.3,1.1v0.5l-0.1.7-3.7,5.8-0.1.6,0.3,0.5,0.5,0.2h0.6l0.3-.3,0.3-1.1,0.3-.3,0.5-.2,0.4-.1,0.4,0.1,0.6,0.4,0.3,0.1,0.4-.1,0.4-.5,1.4-3.7v-0.5l-0.4-1.7v-0.4l0.1-.2h1.1L552,108l0.2,0.6v2.1l0.4,1.9v0.6l-0.1.5-0.7,1-0.3.9L552,125l-0.1.9-0.4.9-0.5.6-0.6.3-0.3-.1-0.7-1.1-0.3-.2-0.4-.1-0.3-.1-0.4.1-0.5.5-0.4.8-0.4,2v0.9l0.5,0.9,3.4,2.3,4.8,0.1,0.7,0.6,2,3.4,2.4,1.3,0.7,0.7,0.6,0.9,1,5.1,0.2,0.6,0.4,0.5,4.8,3.1,0.3,0.3,1,2.5,0.3,0.3,1.3,0.5,2.5,2.7,0.6,0.1h0.3l1.3-1.1h0.5l0.5,0.2,0.5,0.6,0.4,0.7,0.6,2.4,1.6,1.9,0.6,1.3,1.5,6,1.6-.5,0.8-.1,0.7,0.5,0.5,0.7,0.3,0.2,3.9,0.5,1-2.1,1.5-1.1,0.9,0.7,1.6-.6,0.9-1.4,4.4,1.3h0Zm-67.2-59.5,0.5-.5,0.3-.9v-0.6l-0.3-.2-0.4.2-0.5.3-0.4.4-0.1.8,0.3,0.5h0.6Zm4.8-2v-0.5l-0.8-.8-0.4-.3v-0.7l-0.2-.4h-0.6l-0.5.5-0.4,1v0.6l0.4,0.4,0.7,0.2,1,0.2h0.5Z"/><path id="_07" data-name="07" class="cls-1" d="M645.8,321.84l2.2,3.1,1.8,1,1.7-.8,0.7,1v1.2l-1.1.2h-1.5l-2.2-1.4-0.7-.4-1.3.9-0.7,1.1-0.7.4-0.6-.2,0.2-1.1-0.2-.5v-0.5l0.2-.4,0.3-.6v-0.4l-0.5-.4,0.2-.4,0.6-.7,0.3,0.3,0.5-.1,0.4-.7,0.1-.9h0.2Zm6.3-20.3,0.5,0.2,0.3,0.2,0.4,0.4-0.2.5,0.2,1.2,0.7,1.9h-0.7l-0.6.5-0.4.7-0.1.9-0.2.3-1.6,1.1-1.4,2.1-0.5.5-1.3.7-0.4.5-0.7-.7-0.7.9-0.6.4-0.5,1.9v1.4h-1.5l-0.4-1.1-0.8-.6-0.6.2-0.5-.1-0.4.1-0.4-.7-0.7-.2-0.8.2-0.3.7-1.4-.9-0.5-.6-0.2-1,0.6-1.4,0.1-.8-0.4-.7,0.4-.4,0.4-.3h0.5l0.5,0.3,0.4-.3,0.4-.1h1.1l-0.4-2.4v-1.4l0.5-.5,0.6-.3,0.7-.5,1-1.2h0.3l0.4,0.4,0.9-.7,0.5,0.3,0.9-.7,1.2-.7,1.2-.3,1,0.1,0.4-.5,0.6-.3,0.6,0.1,0.8,0.6,0.3,0.1h0.8Zm62.2-1.9-0.9,1.3-1.4-.1-0.7-1.9,1.2-1.2,1.7-.8,0.3,1.1-0.2,1.6h0Zm8.8-47.8,0.6,0.8,0.3-.3,0.6,0.3-0.5.4-1.5.7-0.6.1-0.6.4-0.6.6-0.6.5-0.5-.3h-0.3l-0.1,1.9,1.6,0.3,3.4-1v0.4l-0.5.3v0.8l-0.1.4-0.5.5-0.8.3-1.4.4-0.3.4-0.1,1.2,0.6,1.3,1.1,1.2,1.4,0.8,1.3,0.3h3.1l0.7-.3,1.4-1.4,0.6-.3,1.3,0.4,2.5,1.5,1.5,0.1-0.2.6v0.5l0.2,0.9-0.1.3-0.3.2-0.1.4,0.2,0.7-0.6,1.6-0.4.8-0.6.3-0.8.3-0.5.7-0.1.9,0.3,0.9-1.8,1.7-1.9,2.2-1.4,2.8-0.4,3.2L727,283l-0.7,2.4-1.4,1.5-4.1,2.6-1.7,1.4-0.3.6-0.6.5-0.4.1-0.2-.2-1.2-1.8-0.3-.2-0.7-.3-0.2-.2-0.2-.6-0.1-.6-0.2-.5-0.3-.3-0.4-.1-0.7-.6-0.4-.1-0.5.1-0.7.2-0.5.1-3.8-.3-1.8-.7-1.1-1.4-0.4-3.1-0.7-.4,0.2-1,0.6-1.4-0.5-1.2-1.2-1.1-1.5-.9-1.2-.3-1,.3-2.8,1.6-0.6.6-0.5,1.6-1.1,1.1-1.2.2-0.8-1.5-0.2-.6,0.1-.3,0.4-.3-1.2-1.2-0.4.5-0.3.2-0.3-.1-0.3-.6-1.2.7-0.3.1-0.4-.3-0.4-1-0.8-.7-0.2-1,0.1-1.2,0.2-.9,3.2-2,0.9-.2,0.8-.5,2.2-2.3,0.7-.4,0.9-.1,0.7-.3,0.8-.6,1.3-1.5,0.2-.3,0.5-.9H699l0.5,0.1,0.2-.1,1-1.1,1.3-1.4,0.3-.3,0.3-.1,1.3-.6,0.6-.6,0.5-.5,0.6-.4,0.6-.2,0.2-.1,0.3-.5,0.1-.1,0.9,0.1,0.5-.1,1.3-.6,2.6-1.8,1.4-.4,2.5-.3,2.5-.6,4.6-1.9h0v0Zm41.5-5.2,1,0.8-0.2.5,0.1,0.5,0.3,0.2,0.2-.2,0.4-.4,0.4-.6-0.1-.9,0.3-.2,0.3,0.3-0.2.8,0.3,0.4,1.2,0.8,0.5,0.7,0.4,0.4,0.3,0.2,0.6,0.1,0.3,0.2,0.5,0.6,0.4,1-0.1.8-0.8.3,0.7,0.4,0.7-.1,0.6,0.2,0.4,1.8,0.9,1.6,0.4,0.9h-0.3l-0.2-.4-0.6-.6-0.4-.2-0.1,3.8-2.3.3-3.2-1.5-7.2-4.8-1.5-.6h-1.8l-3.1.6-1.8-.6,0.2-.7,0.1-.8,0.1-.8,0.5-.5-0.3-.3-0.9-.3-0.4-.4-0.5-.6V249l0.2-.3,0.1-.7,0.6-.7,3-.7,1.1,0.4,4.3-.4h2.3l0.6-.3,0.7-.6,0.5-.3,0.1,0.7,0.4,0.5h0Z"/><polyline class="cls-3" points="45.5 489.39 225.4 489.39 256.9 520.89 256.9 594.72"/></svg>